<?xml version="1.0" encoding="utf-8"?>
<!-- Generator: Adobe Illustrator 21.0.2, SVG Export Plug-In . SVG Version: 6.00 Build 0)  -->
<svg version="1.1" id="Слой_1" xmlns="http://www.w3.org/2000/svg" xmlns:xlink="http://www.w3.org/1999/xlink" x="0px" y="0px"
	 viewBox="0 0 875 532" style="enable-background:new 0 0 875 532;" xml:space="preserve">
<style type="text/css">
	.st0{fill:url(#SVGID_1_);}
	.st1{fill:url(#SVGID_2_);}
	.st2{fill:url(#SVGID_3_);}
	.st3{fill:url(#SVGID_4_);}
	.st4{fill:url(#SVGID_5_);}
	.st5{fill:url(#SVGID_6_);}
	.st6{fill:url(#SVGID_7_);}
	.st7{fill:url(#SVGID_8_);}
	.st8{fill:url(#SVGID_9_);}
	.st9{fill:url(#SVGID_10_);}
	.st10{fill:url(#SVGID_11_);}
	.st11{fill:url(#SVGID_12_);}
	.st12{fill:url(#SVGID_13_);}
	.st13{fill:url(#SVGID_14_);}
	.st14{fill:url(#SVGID_15_);}
	.st15{fill:url(#SVGID_16_);}
	.st16{fill:url(#SVGID_17_);}
	.st17{fill:url(#SVGID_18_);}
	.st18{fill:url(#SVGID_19_);}
	.st19{fill:url(#SVGID_20_);}
	.st20{fill:url(#SVGID_21_);}
	.st21{fill:url(#SVGID_22_);}
</style>
<g>
	<linearGradient id="SVGID_1_" gradientUnits="userSpaceOnUse" x1="925.8134" y1="87.8153" x2="54.8134" y2="620.8153">
		<stop  offset="0" style="stop-color:#FFE1C8"/>
		<stop  offset="1" style="stop-color:#B5C4EB"/>
	</linearGradient>
	<path class="st0" d="M611.7,220.9l-0.8-0.2l-0.5-0.1c-0.4,1-0.8,2-1.3,3c-0.1,0.2-0.2,0.3-0.2,0.5l1,0.8l87,63.4l1.1-1.9
		c7-12.2,12.6-25.2,16.7-38.7l0.6-2L611.7,220.9L611.7,220.9z M695.7,282.2l-17.1-12.4l0,0c0.2-0.4,0.4-0.7,0.6-1.1l0,0
		c0.2-0.4,0.4-0.7,0.5-1.1l0,0c0.4-0.9,0.9-1.8,1.3-2.7l0,0l0-0.1c0.5-1,1-2.1,1.4-3.2c0.6-1.3,1.2-2.7,1.7-4l0,0c0,0,0,0,0,0
		c0,0,0,0,0,0h0c0.4-0.9,0.7-1.8,1.1-2.7h0c0.1-0.2,0.2-0.4,0.2-0.6l0,0c0.4-1,0.8-2.1,1.2-3.1l0,0c0.4-1.1,0.8-2.2,1.2-3.3
		c0.3-0.8,0.6-1.6,0.8-2.4l0,0c0-0.1,0.1-0.2,0.1-0.3l0,0c0.2-0.6,0.4-1.2,0.6-1.8l0,0l20.8,4.9
		C706.6,260.2,701.7,271.5,695.7,282.2z M687.6,243c-0.2,0.5-0.3,1.1-0.5,1.6l0,0l0,0l-0.1,0.2l0,0l0,0c-0.3,0.8-0.5,1.6-0.8,2.3
		l0,0c-0.4,1.1-0.8,2.2-1.2,3.3l0,0c-0.4,1-0.8,2.1-1.2,3.1h0c-0.1,0.2-0.2,0.4-0.2,0.6l0,0c-0.4,0.9-0.7,1.8-1.1,2.6l0,0
		c-0.6,1.3-1.1,2.7-1.7,4l0,0c-0.5,1-1,2.1-1.4,3.1l0,0l0,0.1c-0.4,0.9-0.9,1.8-1.3,2.7h0c-0.2,0.4-0.4,0.7-0.5,1.1
		c-0.1,0.3-0.3,0.5-0.4,0.8l0,0l-57.3-41.7L687.6,243z"/>
	<linearGradient id="SVGID_2_" gradientUnits="userSpaceOnUse" x1="912.1326" y1="65.459" x2="41.1326" y2="598.459">
		<stop  offset="0" style="stop-color:#FFE1C8"/>
		<stop  offset="1" style="stop-color:#B5C4EB"/>
	</linearGradient>
	<path class="st1" d="M558.1,244.5L558.1,244.5l0.4-0.9l0.1-0.3l0.4-0.9l0.2-0.5c-0.4-0.3-0.8-0.5-1.2-0.8c-0.6-0.4-1.2-0.9-1.8-1.4
		l-1.1,1.3l-0.1,0.1l-0.2,0.2l-0.8,0.9l0,0l-12,13.7l-38.3,43.8L477,330.3l1.3,1.3c3,3,6.2,5.8,9.4,8.4c6.5,5.3,13.5,9.9,20.8,13.7
		l1.9,1l32.6-75.6L558.1,244.5z M482.5,330.1l17.8-20.4l-11.3,26.2C486.8,334.1,484.6,332.1,482.5,330.1z M508.6,349.2
		c-6.3-3.4-12.3-7.4-17.9-12l14-32.5l1.9-2.2l38.3-43.8l5.3-6.1l-10.8,25L508.6,349.2z"/>
	<linearGradient id="SVGID_3_" gradientUnits="userSpaceOnUse" x1="869.7755" y1="-3.7588" x2="-1.2245" y2="529.2412">
		<stop  offset="0" style="stop-color:#FFE1C8"/>
		<stop  offset="1" style="stop-color:#B5C4EB"/>
	</linearGradient>
	<path class="st2" d="M532,229.2l0.2-0.1l0.8-0.5l1.8-1l2.6-1.5h0l0.8-0.4l5.6-3.2l0.8-0.5l0.3-0.1c-0.3-1.2-0.6-2.4-0.8-3.7
		l-1.6,0.3l-0.6,0.1l0,0l-10.1,1.6l-1.7,0.3l0,0l-0.9,0.1l0,0l-36.3,5.8l-57.8,9.2l0.2,1.9c0.7,7.3,1.9,14.5,3.5,21.5l0,0
		c1.4,6.2,3.2,12.3,5.3,18.2l0.8,2.2l71.6-41.1L532,229.2z M485.4,231.6L485.4,231.6l-43.3,24.8c0,0,0,0,0,0
		c-1.3-5.7-2.2-11.6-2.8-17.5L485.4,231.6z M446.8,273.5c-1.7-4.9-3.1-9.9-4.3-15h0l48.4-27.8h0l2.4-0.4l36.3-5.8l1.5-0.2l0,0l1-0.2
		l0.9-0.1l-0.3,0.2l-1.8,1l-0.8,0.5l-0.2,0.1l0,0l-15.8,9.1L446.8,273.5z"/>
	<linearGradient id="SVGID_4_" gradientUnits="userSpaceOnUse" x1="895.9112" y1="38.9507" x2="24.9112" y2="571.9507">
		<stop  offset="0" style="stop-color:#FFE1C8"/>
		<stop  offset="1" style="stop-color:#B5C4EB"/>
	</linearGradient>
	<path class="st3" d="M545.1,239.5L545.1,239.5l0.7-0.8l2.9-3.3l0,0l0,0l0.2-0.2l0,0l0.3-0.4l0,0l0.1-0.1l0.1-0.1l0,0l0.5-0.6
		l0.3-0.3c-0.7-1-1.4-2.1-2-3.2l-1.5,0.9l-0.1,0.1l-0.1,0.1h0l0,0l-0.3,0.1l-0.8,0.5l0,0l-4.9,2.8h0l-1,0.6l-0.1,0.1l0,0l-10.3,5.9
		L487.9,265v0l-39.8,22.8l0.8,1.7c2.2,4.7,4.6,9.3,7.3,13.8c2.9,4.9,6.1,9.6,9.5,14.1c1.3,1.7,2.6,3.4,4,5l1.5,1.8l51.6-59
		L545.1,239.5z M453.3,289.4l28.9-16.6l0,0l-23.5,26.9c0,0,0,0,0,0C456.8,296.4,455,292.9,453.3,289.4z M471.3,317.9
		c-0.8-1-1.6-2-2.4-3v0c-3.3-4.3-6.3-8.7-9.1-13.3c0,0,0,0,0,0l27.7-31.7l0,0l2.3-1.3l41.3-23.7l8-4.6l-19.4,22.2L471.3,317.9z"/>
	<linearGradient id="SVGID_5_" gradientUnits="userSpaceOnUse" x1="899.4217" y1="44.6874" x2="28.4217" y2="577.6874">
		<stop  offset="0" style="stop-color:#FFE1C8"/>
		<stop  offset="1" style="stop-color:#B5C4EB"/>
	</linearGradient>
	<path class="st4" d="M613,193.2l-0.3,0.2h0l-0.5,0.3l-0.2,0.1c0,0.1,0.1,0.3,0.1,0.4c0.1,0.6,0.3,1.1,0.4,1.7
		c0.1,0.5,0.2,1,0.3,1.4l0,0.2l1.6-0.3l107.5-17.1l-0.2-1.9c-0.4-3.8-0.9-7.6-1.5-11.3v0c-1.6-9.8-4-19.2-7.3-28.3l-0.8-2.2
		l-72.4,41.5L613,193.2z M623.6,191.7l18.1-10.4l2.1-1.2l0,0l52.8-8.4l1.3,0.4l15.6,5.3h0L623.6,191.7z M710,142.2
		c2.8,8.2,4.9,16.7,6.3,25.4v0c0.5,3,0.9,6,1.2,9.1v0l-19.9-6.7c-0.6-6.4-1.6-12.8-3-19l0,0L710,142.2z M692.9,152
		c1.2,5.8,2.2,11.8,2.8,17.8l-46.9,7.5l0,0L692.9,152z"/>
	<linearGradient id="SVGID_6_" gradientUnits="userSpaceOnUse" x1="845.0291" y1="-44.198" x2="-25.9709" y2="488.802">
		<stop  offset="0" style="stop-color:#FFE1C8"/>
		<stop  offset="1" style="stop-color:#B5C4EB"/>
	</linearGradient>
	<path class="st5" d="M586.6,167.7L586.6,167.7l-0.1,0.9l-0.1,0.7c1.3,0.2,2.5,0.5,3.7,0.9l0.6-1.5L604,138l0,0l0.1-0.3l33.3-77.1
		l1.3-3.1l-1.9-0.8c-3.7-1.5-7.6-2.8-11.4-3.9c0,0,0,0-0.1,0c-0.5-0.1-0.9-0.3-1.3-0.4l0,0c-3.6-1-7.3-1.8-11-2.5
		c-4.1-0.7-8.2-1.3-12.3-1.6l-2-0.2l-0.2,2l-3.9,38.9l-6.2,61.4L586.6,167.7z M599.6,79.7l2.8-27.3c2.9,0.3,5.7,0.7,8.5,1.1
		c0,0,0,0,0,0L599.6,79.7L599.6,79.7L599.6,79.7z M592.4,150.7l6.2-61.4l0.3-3v0l14-32.4c0,0,0,0,0,0c3.4,0.6,6.8,1.4,10.1,2.3l0,0
		c0.4,0.1,0.8,0.2,1.2,0.4h0l0,0c3.1,0.9,6.2,1.9,9.2,3.1l-32.8,76l-0.2,0.4l-8.7,20.1L592.4,150.7z"/>
	<linearGradient id="SVGID_7_" gradientUnits="userSpaceOnUse" x1="837.7108" y1="-56.1573" x2="-33.2893" y2="476.8427">
		<stop  offset="0" style="stop-color:#FFE1C8"/>
		<stop  offset="1" style="stop-color:#B5C4EB"/>
	</linearGradient>
	<path class="st6" d="M557.9,95.2l11.6,52.5l3.6,16l0,0l0.2,1v0l0.7,3l0,0.1l0.2,0.9l0.2,0.8c1.2-0.3,2.5-0.5,3.7-0.6l0.2-1.4
		l0.3-2.6v0l0.1-1l0-0.1v0l3.7-37.1l8-79.1l-2.2,0c-8.2,0.1-16.3,1-24.4,2.6c-4.4,0.9-8.8,2-13.2,3.3l-1.8,0.5l9,40.8L557.9,95.2z
		 M573.5,146.9l-11.6-52.3l0-0.2l-0.6-2.8v0l0,0l3.8-37.3c0,0,0,0,0,0c6.9-1.4,13.9-2.2,21-2.4l-7.5,74.6l-3,29.4L573.5,146.9z
		 M562.9,54.6l-3.1,30.7l0,0v0L553.5,57C556.6,56.1,559.8,55.3,562.9,54.6z"/>
	<linearGradient id="SVGID_8_" gradientUnits="userSpaceOnUse" x1="835.8036" y1="-59.2738" x2="-35.1963" y2="473.7262">
		<stop  offset="0" style="stop-color:#FFE1C8"/>
		<stop  offset="1" style="stop-color:#B5C4EB"/>
	</linearGradient>
	<path class="st7" d="M529.7,122l22,34.8l0.3,0.5l3.4,5.5h0l6.3,10l0.2,0.3l0,0l0.5,0.8l0.4,0.7c0.7-0.4,1.4-0.9,2.1-1.3
		c0.1,0,0.1-0.1,0.2-0.1c0.3-0.2,0.6-0.3,0.9-0.5l-0.3-1.3l-8.1-36.4l0-0.2l-17.2-77.6l-2.2,0.9c-6.6,2.7-13.1,5.9-19.4,9.7
		c-5.1,3-10.2,6.4-15,10.1l-1.5,1.1l26.9,42.5L529.7,122z M557.6,158.8L557.6,158.8l-2-3.1l-0.3-0.5l-22-34.8v0l-0.3-0.5l-1.4-2.2
		L521.3,71c5.3-3.2,10.8-5.9,16.4-8.3l16.1,72.7v0l5.9,26.5L557.6,158.8z M507.8,80c3.8-2.8,7.7-5.5,11.7-7.9l9,40.6L507.8,80z"/>
	<linearGradient id="SVGID_9_" gradientUnits="userSpaceOnUse" x1="837.0182" y1="-57.2889" x2="-33.9817" y2="475.7111">
		<stop  offset="0" style="stop-color:#FFE1C8"/>
		<stop  offset="1" style="stop-color:#B5C4EB"/>
	</linearGradient>
	<path class="st8" d="M551,181.8l0.8,0.6l0,0l0.7,0.5l0.6,0.4c0.4-0.5,0.8-0.9,1.2-1.4c0.2-0.2,0.4-0.5,0.6-0.7
		c0.2-0.3,0.5-0.5,0.7-0.8l-0.6-1l-10.5-16.6h0L495.2,85l-1.8,1.6c-1.7,1.5-3.3,3.1-5,4.6v0c-2.1,2.1-4.2,4.2-6.3,6.4l0,0v0
		c-5.8,6.3-11.1,12.9-15.9,20l-1.1,1.6l53.9,39.3L551,181.8z M491.3,94.1L491.3,94.1c1-1,2.1-2,3.1-2.9l47.9,75.8h0l4.2,6.6
		l-25.1-18.3l-1.9-1.4L485.4,100C487.3,98,489.3,96,491.3,94.1z M470.6,118.3c4.1-5.9,8.6-11.4,13.4-16.7l31.1,49.1L470.6,118.3z"/>
	<linearGradient id="SVGID_10_" gradientUnits="userSpaceOnUse" x1="843.3879" y1="-46.88" x2="-27.6121" y2="486.12">
		<stop  offset="0" style="stop-color:#FFE1C8"/>
		<stop  offset="1" style="stop-color:#B5C4EB"/>
	</linearGradient>
	<path class="st9" d="M530.9,191.5l9.6,2.3l4.6,1.1h0l0.9,0.2l0.5,0.1c0.1-0.4,0.3-0.8,0.4-1.1c0.2-0.5,0.4-0.9,0.6-1.4
		c0.1-0.3,0.3-0.6,0.4-0.9l-1.1-0.8l-86.9-63.4l-1.1,1.9c-1.2,2.1-2.4,4.3-3.6,6.5c-5,9.6-9.2,19.6-12.4,30.1l0,0
		c-0.2,0.7-0.4,1.4-0.7,2.2l-0.6,2l85.5,20.3L530.9,191.5z M461.1,133.4l75.5,55l-8.1-2.8l-5.4-1.8l-64.1-46.7
		C459.7,135.9,460.4,134.7,461.1,133.4z M458.1,139l60.6,44.2l0,0l-71.8-17C449.9,156.8,453.7,147.7,458.1,139z"/>
	<linearGradient id="SVGID_11_" gradientUnits="userSpaceOnUse" x1="854.7831" y1="-28.2585" x2="-16.2168" y2="504.7415">
		<stop  offset="0" style="stop-color:#FFE1C8"/>
		<stop  offset="1" style="stop-color:#B5C4EB"/>
	</linearGradient>
	<path class="st10" d="M542.3,208.7L542.3,208.7l0.9-0.1l0.3-0.1c0-0.6,0.1-1.3,0.2-1.9c0.1-0.6,0.1-1.2,0.2-1.9l-1.6-0.4l-3.3-0.8
		l-0.1,0l-13.5-3.2l-10.9-2.6L439,179.9l-0.4,2c-1.5,6.8-2.6,13.8-3.3,20.8c-0.3,3.1-0.5,6.2-0.7,9.3c-0.2,3-0.2,6-0.2,8.9
		c0,0.9,0,1.8,0,2.7l0,2.3l91.2-14.5L542.3,208.7z M439.2,203.1c0.6-6.2,1.6-12.3,2.8-18.4l64.2,15.2l0,0l-67.6,10.8c0,0,0,0,0,0
		C438.7,208.2,438.9,205.7,439.2,203.1z M438.3,221.2v-0.3c0-2.7,0.1-5.4,0.2-8.1c0,0,0,0,0,0l72.9-11.6h0l2.2,0.5l10.9,2.6l8.2,1.9
		l-7.6,1.2L438.3,221.2z"/>
	<linearGradient id="SVGID_12_" gradientUnits="userSpaceOnUse" x1="924.1676" y1="85.1258" x2="53.1676" y2="618.1259">
		<stop  offset="0" style="stop-color:#FFE1C8"/>
		<stop  offset="1" style="stop-color:#B5C4EB"/>
	</linearGradient>
	<path class="st11" d="M570.1,248l0.1-1l0.1-0.7c-1.3-0.2-2.5-0.5-3.6-0.9L566,247l0,0l-5.5,12.8L535.4,318L518,358.2l1.9,0.8
		c4,1.6,8.2,3,12.4,4.2c4,1.1,8.1,2.1,12.3,2.8c3.8,0.7,7.6,1.2,11.4,1.5l1.9,0.2l0.6-5.6l8.8-87.1L570.1,248z M535.2,328.5
		L535.2,328.5l-2.8,28.1c-3-0.3-5.9-0.6-8.8-1.1l0,0L535.2,328.5z M539.6,360.9c-2.1-0.5-4.1-1-6.1-1.6c-1-0.3-2-0.6-3-0.9
		c0,0,0,0,0,0c0.9,0.1,1.7,0.2,2.6,0.2L539.6,360.9L539.6,360.9L539.6,360.9z M563.4,274.5l-8.8,87.1l-0.2,1.7
		c-0.8-0.1-1.5-0.2-2.2-0.3h0l-17.9-6l3.5-34.6l1.2-2.8l25.1-58.2l0.8-1.9L563.4,274.5z"/>
	<linearGradient id="SVGID_13_" gradientUnits="userSpaceOnUse" x1="931.4894" y1="97.0908" x2="60.4894" y2="630.0908">
		<stop  offset="0" style="stop-color:#FFE1C8"/>
		<stop  offset="1" style="stop-color:#B5C4EB"/>
	</linearGradient>
	<path class="st12" d="M584.3,254.8l-1.5-7l-0.2-0.9l-0.2-0.8c0,0-0.1,0-0.1,0h0c-0.1,0-0.2,0.1-0.3,0.1c-0.4,0.1-0.8,0.2-1.1,0.2
		l-0.1,0c-0.4,0.1-0.8,0.1-1.2,0.2l-0.1,0c-0.2,0-0.4,0.1-0.6,0.1l-0.1,1.3l0,0.2l-0.3,3.4l-6.2,61.5l-5.6,55l2.2,0
		c5.7-0.1,11.4-0.5,17-1.3c4.3-0.6,8.5-1.4,12.7-2.4l0,0c2.6-0.6,5.3-1.4,7.9-2.1l1.8-0.5l-2.4-10.9L584.3,254.8z M581.3,259.8
		l20.3,91.6l1.5,6.8l0,0l-19.7-6.6l-7.8-35.4l0.3-2.8L581.3,259.8z M575,322.5L575,322.5l6.4,29.1c-3.2,1-6.4,1.8-9.6,2.5L575,322.5
		z M597.4,360.2L597.4,360.2c-4.1,1-8.2,1.8-12.3,2.4h0c-4.7,0.7-9.5,1.1-14.2,1.2l0.8-7.6l0,0c3.7-0.8,7.4-1.7,11-2.8l18,6.1
		c0,0,0,0,0,0C599.5,359.7,598.5,360,597.4,360.2z"/>
	<linearGradient id="SVGID_14_" gradientUnits="userSpaceOnUse" x1="933.4034" y1="100.2184" x2="62.4034" y2="633.2184">
		<stop  offset="0" style="stop-color:#FFE1C8"/>
		<stop  offset="1" style="stop-color:#B5C4EB"/>
	</linearGradient>
	<path class="st13" d="M594.9,242.6l-0.5-0.8l-0.4-0.7c-0.3,0.2-0.5,0.3-0.8,0.5c-0.4,0.3-0.9,0.5-1.4,0.8c-0.1,0.1-0.3,0.1-0.4,0.2
		c-0.3,0.1-0.5,0.3-0.8,0.4l0.2,0.9v0l0.1,0.3v0l9.5,43.1l15.8,71.1l2.2-0.9c7.4-3,14.6-6.7,21.6-11h0c3.8-2.4,7.5-4.9,11.2-7.6l0,0
		c0.5-0.4,1.1-0.8,1.6-1.2l1.4-1.1l-10.7-16.9L594.9,242.6z M615.4,336.3l-9.2-41.5l21.1,33.4C623.5,331.1,619.5,333.8,615.4,336.3z
		 M615.9,338.4L615.9,338.4c4.4-2.7,8.7-5.6,13-8.8l19.5,6.6c0,0,0,0,0,0c-3.4,2.5-6.9,4.8-10.4,7c-6.1,3.8-12.4,7-18.9,9.8
		L615.9,338.4z M647.8,333.8l-18.5-6.2L605,289.1v0l-0.6-2.5l-7.3-32.8l43.1,68.2L647.8,333.8L647.8,333.8z"/>
	<linearGradient id="SVGID_15_" gradientUnits="userSpaceOnUse" x1="932.1833" y1="98.2246" x2="61.1833" y2="631.2246">
		<stop  offset="0" style="stop-color:#FFE1C8"/>
		<stop  offset="1" style="stop-color:#B5C4EB"/>
	</linearGradient>
	<path class="st14" d="M690.6,298.1l1.1-1.6l-86.7-63.2l-0.7-0.5l-0.5-0.4c-0.1,0.1-0.2,0.2-0.2,0.3c-0.4,0.6-0.9,1.1-1.4,1.7
		c-0.3,0.3-0.5,0.6-0.8,0.9l0.4,0.6l0.3,0.4l10,15.9l49.7,78.6l1.8-1.6c1.7-1.5,3.3-3.1,5-4.6v0c6.5-6.3,12.5-13.2,18-20.4h0
		C687.7,302.1,689.2,300.1,690.6,298.1z M610.3,242.2l69.5,50.7l0,0l-12.4-4.2l-1.1-0.4l-49.9-36.3l-1.2-2L610.3,242.2z
		 M619.4,256.5l45.1,32.9c-4.1,6-8.7,11.7-13.5,17.1L619.4,256.5L619.4,256.5z M652.1,308.2c5.1-5.6,9.9-11.6,14.2-17.9l19,6.4l0,0
		l0.9,0.6c-1,1.4-2,2.8-3.1,4.2h0c-5.3,7.1-11.2,13.8-17.5,20v0c-1,1-2.1,2-3.1,2.9L652.1,308.2L652.1,308.2z"/>
	<linearGradient id="SVGID_16_" gradientUnits="userSpaceOnUse" x1="914.4149" y1="69.1885" x2="43.4149" y2="602.1885">
		<stop  offset="0" style="stop-color:#FFE1C8"/>
		<stop  offset="1" style="stop-color:#B5C4EB"/>
	</linearGradient>
	<path class="st15" d="M619.5,206.2l-5,0.8l-0.7,0.1l-0.2,0l-0.3,0.1c0,0.6-0.1,1.3-0.1,1.9c0,0.5-0.1,0.9-0.2,1.4
		c0,0.2,0,0.3,0,0.5l1.5,0.4l103.4,24.5l0.4-2c0.2-0.7,0.3-1.5,0.5-2.2c0,0,0,0,0,0c1.3-6.1,2.2-12.3,2.8-18.5
		c0.6-6.1,0.9-12.3,0.9-18.3c0-0.9,0-1.7,0-2.6l0-2.3l-2.3,0.4L619.5,206.2z M718.5,194.7c0,5.9-0.3,11.9-0.9,17.9
		c-0.6,6.1-1.5,12.2-2.8,18.1l0,0v0c0,0.1,0,0.1,0,0.2l-8.3-2l-0.1,0l-11.9-4c1.4-6.5,2.4-13.1,3.1-19.8c0.2-2.5,0.4-4.9,0.6-7.4
		l0,0l20.3-3.2V194.7z M696.1,198c-0.1,2.3-0.3,4.6-0.5,6.9c-0.7,6.6-1.7,13.1-3,19.4l-65-15.4h0L696.1,198z"/>
	<linearGradient id="SVGID_17_" gradientUnits="userSpaceOnUse" x1="700.4127" y1="250.683" x2="664.6225" y2="272.5845">
		<stop  offset="0" style="stop-color:#FFE1C8"/>
		<stop  offset="1" style="stop-color:#B5C4EB"/>
	</linearGradient>
	<polygon class="st16" points="682.5,261.6 682.5,261.6 682.5,261.6 	"/>
	<linearGradient id="SVGID_18_" gradientUnits="userSpaceOnUse" x1="712.9074" y1="232.6572" x2="663.1299" y2="263.118">
		<stop  offset="0" style="stop-color:#FFE1C8"/>
		<stop  offset="1" style="stop-color:#B5C4EB"/>
	</linearGradient>
	<polygon class="st17" points="688,247.9 688,247.9 688,247.9 	"/>
	<linearGradient id="SVGID_19_" gradientUnits="userSpaceOnUse" x1="884.6005" y1="20.4674" x2="13.6005" y2="553.4674">
		<stop  offset="0" style="stop-color:#FFE1C8"/>
		<stop  offset="1" style="stop-color:#B5C4EB"/>
	</linearGradient>
	<path class="st18" d="M596.5,227.2c0.3-0.3,0.5-0.5,0.7-0.8c0,0,0.1-0.1,0.1-0.1c0.2-0.2,0.4-0.5,0.6-0.7c0,0,0.1-0.1,0.1-0.1
		c0.2-0.3,0.4-0.6,0.6-0.8c0.5-0.7,1-1.4,1.4-2.2c0,0,0,0,0-0.1c0.1-0.2,0.2-0.3,0.3-0.4l0-0.1l0-0.1c0,0,0-0.1,0.1-0.2c0,0,0,0,0,0
		c0,0,0-0.1,0.1-0.1c0.2-0.3,0.3-0.6,0.4-0.8c0,0,0,0,0-0.1c0.2-0.3,0.4-0.7,0.5-1.1c0,0,0-0.1,0-0.1c0.1-0.2,0.2-0.4,0.3-0.6
		c0.1-0.1,0.1-0.2,0.1-0.3c0.2-0.5,0.5-1.1,0.7-1.7c0,0,0,0,0,0c0.2-0.5,0.3-1,0.5-1.5c0-0.1,0.1-0.3,0.1-0.4c0,0,0,0,0-0.1
		c0.1-0.3,0.2-0.5,0.2-0.7c0,0,0-0.1,0-0.1c0-0.1,0.1-0.2,0.1-0.4c0-0.1,0-0.1,0-0.1c0.1-0.5,0.3-1,0.3-1.5c0,0,0-0.1,0-0.1
		c0.1-0.3,0.1-0.5,0.1-0.8c0,0,0,0,0-0.1c0,0,0,0,0,0v0c0-0.2,0.1-0.3,0.1-0.4l0-0.2v0c0-0.2,0.1-0.5,0.1-0.7c0,0,0-0.1,0-0.1
		c0.1-0.3,0.1-0.6,0.1-0.9v0c0,0,0,0,0,0c0-0.1,0-0.2,0-0.3c0-0.4,0.1-0.9,0.1-1.4v0c0-0.5,0-1,0-1.4v-0.3c0-0.1,0-0.2,0-0.3V205
		c0-0.2,0-0.4,0-0.6v-0.2l0-0.2c0-0.3,0-0.7-0.1-1h0c0-0.4-0.1-0.9-0.1-1.3c0,0,0,0,0-0.1c-0.1-0.4-0.1-0.8-0.2-1.3v0l0-0.2
		c-0.1-0.4-0.1-0.7-0.2-1.1c0-0.1,0-0.2-0.1-0.2c0-0.1-0.1-0.2-0.1-0.3c0-0.2-0.1-0.4-0.2-0.6h0c-0.1-0.3-0.2-0.6-0.3-0.9
		c0,0,0,0,0-0.1c-0.1-0.4-0.3-0.8-0.4-1.2c-0.1-0.2-0.1-0.4-0.2-0.5c0,0,0-0.1,0-0.1c-0.1-0.2-0.1-0.4-0.2-0.5c0,0,0-0.1,0-0.1
		c-0.1-0.3-0.2-0.6-0.4-0.9c0,0,0-0.1-0.1-0.1c-0.1-0.2-0.2-0.5-0.3-0.7v0l-0.4-0.7c-0.2-0.3-0.4-0.6-0.5-0.9
		c-0.2-0.4-0.4-0.7-0.6-1.1c-0.1-0.1-0.2-0.3-0.3-0.4c-0.1-0.2-0.2-0.3-0.4-0.5c0-0.1-0.1-0.1-0.1-0.2c-0.1-0.1-0.1-0.2-0.2-0.3
		l-0.1-0.2l-0.1-0.2l0,0l-0.2-0.2l-0.1-0.1c0,0,0,0,0,0c-0.2-0.3-0.5-0.6-0.7-0.9c0,0,0,0,0,0c-0.2-0.3-0.5-0.5-0.7-0.8
		c0,0,0,0,0-0.1c-0.2-0.3-0.5-0.5-0.7-0.7l-0.1-0.1c-0.3-0.2-0.5-0.5-0.8-0.7l0,0l-0.1-0.1l0,0c-0.3-0.2-0.6-0.5-0.9-0.7l0,0
		c-0.2-0.1-0.3-0.3-0.5-0.4c0,0,0,0-0.1,0c-0.1,0-0.1-0.1-0.2-0.1c-0.1-0.1-0.2-0.1-0.3-0.2c0,0,0,0,0,0c0,0-0.1-0.1-0.1-0.1
		c-1.2-0.8-2.5-1.5-3.8-2.1c0,0,0,0,0,0c-0.2-0.1-0.4-0.2-0.6-0.3c-0.1,0-0.2-0.1-0.2-0.1c-0.1-0.1-0.3-0.1-0.5-0.2c0,0-0.1,0-0.1,0
		c0,0,0,0,0,0c-0.6-0.2-1.3-0.4-2-0.6c-0.2-0.1-0.4-0.1-0.6-0.1c-1.4-0.3-2.8-0.5-4.3-0.6c-0.3,0-0.6,0-0.8,0
		c-1.1,0-2.2,0.1-3.3,0.2c-0.2,0-0.3,0.1-0.5,0.1c-0.9,0.1-1.8,0.3-2.6,0.6c-2,0.6-3.9,1.3-5.7,2.3c-0.1,0.1-0.2,0.1-0.4,0.2
		c-2.7,1.5-5.2,3.6-7.3,6c-0.1,0.1-0.2,0.2-0.3,0.3c-0.3,0.3-0.6,0.7-0.9,1c-1.8,2.2-3.2,4.6-4.4,7.2c0,0.1-0.1,0.2-0.1,0.3
		c-1.3,3-2.2,6.2-2.5,9.6c0,0,0,0,0,0.1c0,0.1,0,0.1,0,0.2c-0.1,1-0.1,2-0.1,3c0,2.3,0.3,4.6,0.8,6.7c0,0.2,0.1,0.3,0.1,0.5
		c0.8,3,1.9,5.9,3.6,8.4c0.1,0.1,0.2,0.3,0.3,0.4c0.3,0.5,0.6,0.9,1,1.3l0.1,0.1l0,0c1.4,1.8,2.9,3.3,4.7,4.7
		c0.1,0.1,0.3,0.2,0.4,0.3c0,0,0.1,0,0.1,0.1c1.7,1.2,3.5,2.1,5.5,2.8v0c0.6,0.2,1.3,0.4,2,0.6c0.2,0.1,0.4,0.1,0.6,0.1
		c1.4,0.3,2.8,0.5,4.3,0.6h0c0.4,0,0.7,0,1,0c0.3,0,0.6,0,0.9,0h0l0.2,0c0.1,0,0.3,0,0.4,0c0.1,0,0.3,0,0.4,0c0,0,0.1,0,0.1,0
		c0,0,0,0,0,0c0.2,0,0.4,0,0.6-0.1h0c0,0,0,0,0.1,0c0.1,0,0.2,0,0.3,0c0.2,0,0.4-0.1,0.5-0.1h0l0,0h0c0.3,0,0.6-0.1,0.9-0.2l0,0h0
		l0.2,0h0c0.2-0.1,0.4-0.1,0.6-0.1l0,0l0.1,0c0.3-0.1,0.6-0.1,0.8-0.2l0,0h0c0.2-0.1,0.5-0.1,0.7-0.2c0,0,0,0,0.1,0
		c0.1,0,0.2-0.1,0.3-0.1c0,0,0.1,0,0.2-0.1c0.2,0,0.4-0.1,0.6-0.2c0,0,0.1,0,0.1-0.1c0.4-0.1,0.9-0.3,1.3-0.5
		c0.2-0.1,0.4-0.2,0.6-0.3c0.1,0,0.1,0,0.1-0.1c0,0,0,0,0,0c0.5-0.2,0.9-0.4,1.3-0.7c0,0,0.1,0,0.1,0c0.1,0,0.1,0,0.1-0.1
		c0,0,0.1,0,0.1-0.1c0,0,0,0,0,0c0.1-0.1,0.3-0.1,0.4-0.2c0.2-0.1,0.4-0.3,0.6-0.4c0.2-0.1,0.4-0.3,0.7-0.4l0.1-0.1l0,0h0
		c0.1-0.1,0.3-0.1,0.4-0.3c0,0,0,0,0,0l0.1,0l0.1-0.1l0,0l0.1-0.1l0.1,0c0.1-0.1,0.2-0.1,0.3-0.2l0.1,0l0.3-0.2l0.1,0l0.1-0.1
		c0,0,0,0,0.1,0c0.1-0.1,0.2-0.2,0.3-0.2c0.1,0,0.1-0.1,0.1-0.1c0.2-0.1,0.4-0.3,0.5-0.4c0.2-0.1,0.3-0.3,0.5-0.4c0,0,0,0,0.1,0
		c0,0,0,0,0,0c0.2-0.2,0.5-0.4,0.7-0.7l0.1-0.1l0.1-0.1l0,0c0.3-0.2,0.5-0.5,0.7-0.7l0.2-0.2l0.1-0.1c0.3-0.3,0.5-0.6,0.8-0.8l0,0
		c0,0,0.1,0,0.1-0.1C596.4,227.3,596.5,227.3,596.5,227.2z M556.2,210.1c0-0.9,0-1.9,0.1-2.9c0.6-5.8,2.9-11,6.2-15.1
		c3.3-4,7.5-7,12.1-8.3c2.6,3.9,4,8.8,4,14.1c0,1-0.1,2-0.2,3c-0.1,0.6-0.1,1.2-0.2,1.7v0l0,0c0,0.1,0,0.3-0.1,0.4v0
		c-0.1,0.5-0.2,1-0.3,1.5v0l-0.1,0.2v0c-0.1,0.5-0.3,1.1-0.4,1.6l0,0v0c0,0.1-0.1,0.2-0.1,0.4c0,0,0,0,0,0c-0.2,0.5-0.3,0.9-0.4,1.3
		l0,0l0,0c0,0,0,0.1-0.1,0.2c-0.3,0.8-0.6,1.6-1,2.3v0l-0.1,0.1v0c-0.4,0.8-0.8,1.5-1.2,2.2v0l0,0.1l0,0c-0.4,0.6-0.8,1.2-1.2,1.8
		l-0.1,0.2c-0.4,0.5-0.8,1.1-1.2,1.6l0,0l-0.2,0.2v0c-0.5,0.5-0.9,1-1.4,1.5l0,0l-0.2,0.2l0,0c-0.5,0.5-1,0.9-1.5,1.4c0,0,0,0,0,0
		c-0.1,0.1-0.2,0.2-0.3,0.3c0,0,0,0,0,0c-0.2,0.2-0.4,0.3-0.6,0.5c-0.1,0.1-0.2,0.2-0.4,0.3c-0.3,0.2-0.5,0.4-0.7,0.5l0,0
		c-0.2,0.1-0.3,0.2-0.4,0.3l0,0c-0.2,0.1-0.5,0.3-0.8,0.5v0c-0.1,0.1-0.2,0.1-0.3,0.2c0,0,0,0,0,0c-0.4,0.2-0.7,0.4-1.1,0.6
		l-0.2,0.1c-0.3,0.2-0.7,0.4-1,0.5l0,0l0,0c-0.1,0-0.2,0.1-0.3,0.1c-0.3,0.1-0.6,0.3-0.9,0.4c-0.1,0-0.3,0.1-0.4,0.2
		c-0.1,0-0.2,0.1-0.3,0.1C557.9,220.8,556.2,215.7,556.2,210.1z M595.3,222.3L595.3,222.3c-0.2,0.3-0.4,0.5-0.5,0.7l0,0l0,0.1
		c-0.2,0.2-0.3,0.4-0.5,0.6l-0.1,0.1c-0.2,0.3-0.5,0.6-0.9,1l0,0c-0.2,0.2-0.4,0.5-0.6,0.6l0,0l-0.3,0.3h0c-0.2,0.2-0.3,0.3-0.5,0.5
		l-0.2,0.1l0,0l0,0c-0.2,0.2-0.4,0.4-0.7,0.6l0,0l-0.1,0c-0.1,0.1-0.2,0.2-0.4,0.3l0,0c-0.2,0.2-0.3,0.3-0.4,0.3l-0.1,0l-0.1,0.1
		c-0.1,0.1-0.2,0.1-0.2,0.2l0,0h-0.1l-0.5,0.5l0,0l0,0l0,0l-0.1,0.1l-0.2,0.1l-0.1,0.1l-0.1,0.1c0,0,0,0-0.1,0.1c0,0,0,0,0,0l-0.1,0
		l-0.1,0l0,0c-0.2,0.1-0.4,0.2-0.6,0.4c-0.3,0.2-0.6,0.4-0.8,0.5l0,0c-0.1,0-0.2,0.1-0.2,0.1l0,0l0,0c-0.4,0.2-0.8,0.4-1.2,0.6
		l-0.1,0l-0.1,0c-0.1,0.1-0.2,0.1-0.3,0.1l-0.1,0l-0.1,0c-0.4,0.2-0.8,0.3-1.2,0.4l-0.1,0l-0.1,0c-0.1,0.1-0.3,0.1-0.5,0.2l-0.1,0
		l-0.1,0c0,0,0,0-0.1,0l0,0h0c-0.2,0.1-0.4,0.1-0.6,0.2c0,0,0,0-0.1,0c-0.3,0.1-0.4,0.1-0.6,0.1l-0.1,0l-0.1,0c0,0-0.1,0-0.1,0
		c0,0-0.1,0-0.1,0l0,0l-0.4,0.1l-0.1,0l0,0c-0.2,0.1-0.4,0.1-0.6,0.1l-0.1,0l0,0h0c-0.2,0-0.5,0.1-0.7,0.1h0l-0.1,0
		c-0.2,0-0.3,0-0.6,0.1h-0.1l-0.1,0l-0.1,0h-0.2l-0.1,0l-0.1,0h-0.1l-0.1,0c-0.3,0-0.5,0-0.7,0c-0.3,0-0.6,0-0.9,0
		c-2-0.1-3.9-0.4-5.7-1.1l0,0c-1.7-0.6-3.2-1.4-4.6-2.4c-1.2-0.9-2.3-1.8-3.3-2.9c0,0,0.1,0,0.1,0c0.3-0.1,0.6-0.3,0.9-0.4
		c0.1-0.1,0.3-0.1,0.4-0.2c0,0,0,0,0.1,0c0.4-0.2,0.7-0.3,1.1-0.5l0.2-0.1h0c0.4-0.2,0.8-0.4,1.2-0.7h0c0.1-0.1,0.2-0.2,0.3-0.2v0
		c0.3-0.2,0.5-0.3,0.8-0.5c0,0,0,0,0,0c0.2-0.1,0.3-0.2,0.4-0.3v0c0.2-0.2,0.5-0.3,0.7-0.5l0,0l0,0c0.1-0.1,0.2-0.2,0.4-0.3
		c0.2-0.2,0.5-0.4,0.7-0.5l0,0c0.1-0.1,0.2-0.2,0.3-0.3l0,0h0c0.6-0.5,1.1-1,1.6-1.5l0.2-0.2c0.5-0.5,1-1.1,1.5-1.6l0.2-0.3l0,0
		c0.4-0.6,0.9-1.1,1.3-1.7v0l0.1-0.2c0.4-0.6,0.9-1.3,1.3-1.9v0l0.1-0.1v0c0.4-0.8,0.9-1.6,1.3-2.4l0.1-0.1v0
		c0.4-0.8,0.7-1.6,1.1-2.4l0,0l0,0c0,0,0-0.1,0.1-0.2c0,0,0,0,0-0.1c0.2-0.5,0.3-0.9,0.5-1.4l0,0l0,0c0-0.1,0.1-0.2,0.1-0.4
		c0,0,0,0,0,0c0.2-0.6,0.3-1.1,0.5-1.7v0l0-0.2v0c0.1-0.5,0.2-1,0.3-1.6c0,0,0,0,0,0c0-0.1,0.1-0.3,0.1-0.5c0,0,0,0,0,0
		c0.1-0.6,0.2-1.2,0.2-1.8c0.1-1.1,0.2-2.1,0.2-3.2c0-5.4-1.4-10.5-4-14.6c1.2-0.2,2.4-0.4,3.7-0.4c0.2,0,0.5,0,0.7,0h0
		c2.1,0.1,4,0.5,5.8,1.1l0.1,0l0.1,0c0,0,0.1,0,0.2,0.1l0,0l0.1,0l0,0l0.1,0c0.1,0,0.3,0.1,0.4,0.2h0l0,0c1.1,0.5,2.2,1.1,3.3,1.8
		l0.1,0l0.1,0c0,0,0,0,0.1,0c0,0,0,0,0.1,0l0.1,0l0.1,0.1c0.2,0.1,0.3,0.3,0.6,0.4c0.3,0.2,0.5,0.4,0.8,0.6l0,0c0,0,0,0,0,0
		c0.2,0.2,0.4,0.4,0.6,0.6c0,0,0,0,0,0l0,0l0,0l0,0c0.2,0.2,0.4,0.4,0.6,0.6l0,0l0,0c0.2,0.2,0.4,0.4,0.6,0.7l0,0l0,0
		c0.2,0.3,0.4,0.5,0.6,0.8l0.1,0.1l0,0l0.1,0.1l0.1,0.2l0,0l0.2,0.3l0,0l0,0l0.1,0.1l0,0l0.2,0.2l0.1,0c0.4,0.5,0.7,1,1,1.6v0
		c0.1,0.2,0.3,0.4,0.3,0.6l0.1,0.2l0.1,0.2c0.2,0.3,0.3,0.7,0.4,0.9l0,0.1l0,0c0.1,0.2,0.2,0.5,0.3,0.7l0,0.1l0,0
		c0.1,0.2,0.1,0.3,0.2,0.4l0,0.1l0,0.1c0.1,0.2,0.2,0.4,0.2,0.5l0,0v0c0.1,0.4,0.2,0.7,0.3,1l0,0l0,0c0.1,0.2,0.1,0.5,0.2,0.7v0l0,0
		c0.1,0.4,0.2,0.7,0.3,1.1v0c0.1,0.3,0.1,0.6,0.2,0.9l0,0.2c0.1,0.4,0.1,0.7,0.2,1.1v0.1c0.1,0.3,0.1,0.7,0.1,1.1v0
		c0,0.3,0,0.5,0,0.8v0l0,0.2v0.1l0,0v0c0,0.2,0,0.3,0,0.4v0.3c0,0.1,0,0.2,0,0.3v0.2c0,0.5,0,0.9,0,1.3v0c0,0.5-0.1,0.9-0.1,1.4
		c0,0.3-0.1,0.6-0.1,0.8l0,0l0,0.1c0,0.2-0.1,0.5-0.1,0.7l0,0.1l0,0.1v0.1c0,0,0,0.1,0,0.1l0,0.1l0,0.1l0,0c0,0.3-0.1,0.5-0.1,0.6
		l0,0v0c-0.1,0.5-0.2,0.9-0.3,1.4l0,0.1l0,0.1c0,0.1,0,0.1-0.1,0.3l0,0l0,0c-0.1,0.2-0.1,0.4-0.2,0.6l0,0l0,0c0,0.1-0.1,0.2-0.1,0.3
		l0,0.1c-0.1,0.4-0.3,0.9-0.4,1.3l0,0c-0.3,0.8-0.6,1.6-1,2.3l0,0l0,0c-0.1,0.3-0.3,0.6-0.5,0.9l0,0l0,0c-0.1,0.3-0.3,0.5-0.4,0.7
		l0,0.1l0,0.1c0,0-0.1,0.1-0.1,0.2c0,0,0,0,0,0.1c0,0,0,0,0,0c-0.1,0.1-0.1,0.2-0.2,0.2l0,0l0,0C596.2,221,595.8,221.7,595.3,222.3z
		"/>
	<linearGradient id="SVGID_20_" gradientUnits="userSpaceOnUse" x1="857.0626" y1="-24.5335" x2="-13.9374" y2="508.4665">
		<stop  offset="0" style="stop-color:#FFE1C8"/>
		<stop  offset="1" style="stop-color:#B5C4EB"/>
	</linearGradient>
	<path class="st19" d="M626.9,105.8L626.9,105.8l-25.2,58.3l-3.5,8.1l0,0.1l0,0l-0.4,0.8l-0.2,0.5c0.3,0.2,0.6,0.4,0.9,0.6
		c0.2,0.1,0.3,0.2,0.5,0.4l0,0c0.3,0.2,0.6,0.5,1,0.7c0.2,0.2,0.4,0.3,0.6,0.5l1.2-1.3l11.2-12.9l0,0l0,0l57.2-65.5l3.9-4.5l5.5-6.3
		l-1.3-1.3c-2.4-2.4-4.9-4.6-7.4-6.8h0c-3.3-2.8-6.7-5.3-10.2-7.7c-4.1-2.8-8.3-5.4-12.7-7.6l-1.9-1l-0.8,2L626.9,105.8L626.9,105.8
		z M646,71.7c2.3,1.9,4.5,3.9,6.7,6l-18.3,21l10.4-24.2L646,71.7z M630.5,107.6L630.5,107.6L630.5,107.6l1.2-2.8l22.7-25.9l0.5,0.2
		l1.6,0.5c0.9,0.3,1.9,0.6,2.8,1l0,0l15,5.1l-3,3.5l-3.9,4.5L610.1,159l0,0l-3.6,4.1L630.5,107.6z M668.4,80.3L668.4,80.3
		c0.8,0.6,1.5,1.3,2.2,1.9l-16.1-5.4c-2.5-2.5-5.1-4.8-7.8-7l0,0l1.4-3.3c3.5,1.9,7,4.1,10.4,6.4C662,75.2,665.2,77.7,668.4,80.3z"
		/>
	<linearGradient id="SVGID_21_" gradientUnits="userSpaceOnUse" x1="873.2845" y1="1.9754" x2="2.2845" y2="534.9755">
		<stop  offset="0" style="stop-color:#FFE1C8"/>
		<stop  offset="1" style="stop-color:#B5C4EB"/>
	</linearGradient>
	<path class="st20" d="M643.4,139.9l-36.1,41.3l-0.1,0.2l-0.5,0.5l-0.3,0.3c0.1,0.1,0.1,0.2,0.2,0.3l0,0c0.6,0.9,1.2,1.8,1.7,2.7
		c0,0.1,0.1,0.1,0.1,0.2l1.5-0.9l85.6-49.1l13.1-7.5l-0.8-1.7c-0.7-1.6-1.5-3.1-2.3-4.7c-2-3.9-4.2-7.8-6.5-11.5
		c-2.5-4-5.2-7.9-8.1-11.6c-1.3-1.7-2.6-3.4-4-5l-1.5-1.8l-1.5,1.8l-9.6,11L643.4,139.9z M681.8,118.9l-29.5,16.9l0,0l24-27.5
		C678.3,111.8,680.1,115.3,681.8,118.9z M693.6,131.9l-76,43.6l28.9-33l1.8-2.1l0,0l35-20.1l19.2,6.5L693.6,131.9z M685.5,97.8
		c0.8,1,1.6,2,2.4,3c2.8,3.6,5.4,7.4,7.8,11.3c2.3,3.6,4.4,7.4,6.3,11.2v0c0.3,0.5,0.5,1,0.8,1.6l-19-6.4c-1.9-4-3.9-7.9-6.1-11.7
		l0,0L685.5,97.8z"/>
	<linearGradient id="SVGID_22_" gradientUnits="userSpaceOnUse" x1="898.3702" y1="42.9692" x2="27.3702" y2="575.9692">
		<stop  offset="0" style="stop-color:#FFE1C8"/>
		<stop  offset="1" style="stop-color:#B5C4EB"/>
	</linearGradient>
	<path class="st21" d="M641.1,388.7c18.7-9.4,36.1-22.1,51.4-37.4c4.7-4.7,9.2-9.7,13.5-14.9c0,0,0,0,0,0l169.5-45.6l-1-3.9
		l-164.2,44.2c0,0,0,0,0,0c25.1-32.3,42.1-72.7,46.6-116.9c0.8-7.7,1.2-15.2,1.2-22.7c0-41.4-11.6-79.3-31.8-109.9
		S677.3,28,643.2,16.5h0c-0.1,0-0.2-0.1-0.3-0.1c0,0,0,0,0,0c0,0,0,0,0,0l-1.1-0.4l-21.5-7.3c-1.6-0.5-3.2-1.1-4.9-1.5
		c-0.2-0.1-0.5-0.1-0.7-0.2v0c-0.1,0-0.3-0.1-0.5-0.1c-1.5-0.4-3.1-0.9-4.6-1.3l0,0l-0.1,0l0,0c-1.6-0.4-3.3-0.8-4.9-1.2
		c-0.6-0.1-1.2-0.2-1.7-0.4c-1.2-0.2-2.3-0.5-3.5-0.7c-0.7-0.1-1.4-0.2-2-0.4c-1.1-0.2-2.2-0.4-3.3-0.5c-0.7-0.1-1.4-0.2-2.1-0.3
		c-1.1-0.1-2.2-0.3-3.3-0.4c-0.7-0.1-1.4-0.2-2.1-0.2c-1.2-0.1-2.4-0.2-3.6-0.3c-0.6,0-1.2-0.1-1.8-0.1c-1.8-0.1-3.6-0.2-5.5-0.3
		c-1.8-0.1-3.5-0.1-5.2-0.1c0,0,0,0,0,0h-0.1c-0.5,0-1,0-1.5,0c-1.2,0-2.4,0-3.7,0.1c-0.6,0-1.2,0-1.8,0.1c-1.2,0-2.4,0.1-3.6,0.2
		c-0.5,0-1.1,0.1-1.7,0.1c-1.6,0.1-3.2,0.3-4.8,0.4c-0.1,0-0.2,0-0.4,0c-1.7,0.2-3.4,0.4-5.1,0.6c-0.6,0.1-1.1,0.1-1.6,0.2
		c-1.2,0.2-2.4,0.4-3.6,0.6c-0.6,0.1-1.2,0.2-1.8,0.3c-1.2,0.2-2.3,0.4-3.5,0.7c-0.5,0.1-1.1,0.2-1.7,0.3c-1.5,0.3-3,0.7-4.5,1
		c-0.1,0-0.3,0.1-0.6,0.1c-1.7,0.4-3.3,0.9-5,1.3c-0.5,0.1-1,0.3-1.5,0.4c-1.2,0.3-2.3,0.7-3.5,1c-0.6,0.2-1.2,0.4-1.7,0.5
		c-1.1,0.4-2.2,0.7-3.4,1.1c-0.5,0.2-1.1,0.4-1.6,0.6c-1.4,0.5-2.7,1-4.1,1.5c-0.2,0.1-0.5,0.2-0.7,0.3c-1.6,0.6-3.2,1.3-4.8,1.9
		c-0.5,0.2-0.9,0.4-1.4,0.6c-1.2,0.5-2.3,1-3.4,1.5c-0.6,0.3-1.1,0.5-1.6,0.8c-1.1,0.5-2.2,1-3.2,1.5c-0.5,0.3-1,0.5-1.5,0.8
		c-1.3,0.6-2.6,1.3-3.8,2c-0.2,0.1-0.4,0.2-0.7,0.4l0,0l-0.1,0.1c-1.4,0.8-2.9,1.6-4.3,2.4c-0.4,0.2-0.7,0.4-1,0.6
		c-1.1,0.6-2.2,1.3-3.3,1.9c-0.5,0.3-1,0.6-1.5,0.9c-0.9,0.6-1.8,1.1-2.7,1.7c-0.6,0.4-1.1,0.7-1.7,1.1c-0.8,0.6-1.7,1.1-2.5,1.7
		c-0.6,0.4-1.1,0.8-1.7,1.1v0c-0.8,0.6-1.7,1.2-2.5,1.8c-0.5,0.4-1.1,0.8-1.6,1.2c-0.9,0.6-1.7,1.3-2.5,1.9c-0.5,0.4-1,0.7-1.5,1.1
		c-1,0.8-2,1.6-3,2.4c-0.3,0.2-0.6,0.5-0.9,0.7c-1.3,1-2.6,2.1-3.8,3.2l0,0l-0.1,0.1l0,0c-0.8,0.7-1.6,1.4-2.4,2.1
		c-0.3,0.2-0.6,0.5-0.9,0.8c-1.1,1-2.3,2-3.4,3.1v0c-0.2,0.2-0.3,0.3-0.4,0.4c-1,0.9-1.9,1.8-2.9,2.8c-0.4,0.4-0.8,0.8-1.1,1.1
		c-0.7,0.7-1.4,1.4-2.1,2.1c-0.4,0.5-0.9,0.9-1.3,1.3c-0.6,0.7-1.3,1.3-1.9,2c-0.5,0.5-0.9,1-1.3,1.4c-0.6,0.6-1.2,1.3-1.8,2
		c-0.5,0.5-0.9,1-1.3,1.5c-0.6,0.6-1.2,1.3-1.7,1.9c-0.5,0.5-0.9,1.1-1.3,1.6c-0.4,0.4-0.8,0.9-1.2,1.4c-0.2,0.2-0.3,0.4-0.5,0.6
		c-0.4,0.5-0.8,1-1.3,1.5c-0.5,0.7-1.1,1.4-1.6,2.1c-0.4,0.5-0.8,1-1.2,1.6c-0.5,0.7-1.1,1.4-1.6,2.1c-0.4,0.5-0.8,1.1-1.2,1.6
		c-0.5,0.7-1.1,1.4-1.6,2.1c-0.4,0.5-0.8,1.1-1.2,1.6h0c-0.5,0.7-1,1.5-1.5,2.2c-0.4,0.5-0.8,1.1-1.1,1.6c-0.5,0.8-1,1.5-1.5,2.3
		c-0.4,0.5-0.7,1.1-1.1,1.6c-0.5,0.8-1,1.6-1.5,2.4c-0.3,0.5-0.7,1-1,1.6c-0.6,0.9-1.1,1.7-1.6,2.6c-0.3,0.4-0.6,0.9-0.8,1.4
		c0,0,0,0,0,0l-0.1,0.1l0,0c-0.3,0.5-0.6,1.1-0.9,1.6c-0.5,0.8-1,1.7-1.5,2.5c-0.4,0.6-0.7,1.3-1,1.9c-0.4,0.8-0.9,1.6-1.4,2.5
		c-0.4,0.7-0.7,1.3-1,2c-0.4,0.8-0.8,1.6-1.3,2.4c-0.4,0.7-0.7,1.4-1,2.1c-0.4,0.8-0.8,1.6-1.2,2.4c-0.3,0.7-0.7,1.4-1,2.1
		c-0.4,0.8-0.8,1.6-1.1,2.4c-0.3,0.7-0.7,1.4-1,2.2c-0.4,0.8-0.7,1.6-1.1,2.4c-0.3,0.8-0.6,1.5-0.9,2.2c-0.3,0.8-0.7,1.6-1,2.4
		c-0.3,0.8-0.6,1.5-0.9,2.2c-0.3,0.8-0.6,1.6-0.9,2.5c-0.1,0.2-0.2,0.5-0.3,0.8c-0.3,0.9-0.6,1.7-0.9,2.6c-0.1,0.2-0.2,0.4-0.2,0.6
		c-0.5,1.4-1,2.8-1.4,4.2c-0.1,0.4-0.3,0.8-0.4,1.1c-0.4,1.1-0.7,2.2-1.1,3.3c-0.1,0.4-0.3,0.8-0.4,1.2c-0.4,1.4-0.9,2.9-1.3,4.3v0
		l-0.1,0.2c-0.4,1.4-0.8,2.8-1.1,4.2c-0.1,0.4-0.2,0.9-0.3,1.3c-0.3,1.1-0.6,2.3-0.8,3.4c-0.1,0.4-0.2,0.7-0.3,1.1
		c-0.3,1.4-0.7,2.9-1,4.4c-0.1,0.3-0.1,0.6-0.2,0.9v0c-0.3,1.2-0.5,2.4-0.7,3.6c-0.1,0.4-0.2,0.9-0.3,1.3c-0.2,1.2-0.5,2.5-0.7,3.7
		c0,0.3-0.1,0.5-0.1,0.8c-0.3,1.5-0.5,3-0.7,4.5c-0.1,0.4-0.1,0.8-0.2,1.2c-0.2,1.2-0.3,2.3-0.5,3.5c-0.1,0.4-0.1,0.9-0.2,1.3
		c-0.2,1.5-0.4,3.1-0.5,4.6c-0.8,7.6-1.2,15.2-1.2,22.7c0,41.4,11.6,79.3,31.8,109.9c19.8,30,47.8,52.8,81.1,64.5h0c0,0,0,0,0,0
		L-0.5,522.6l1,3.9l0,0l495-133.3l16.5,5.6l0.8,0.3h0l0.7,0.3v0c14.1,4.8,29.1,7.5,44.7,8.1c1.9,0.1,3.8,0.1,5.7,0.1
		c2.8,0,5.6-0.1,8.3-0.2h0L116.2,530.1l1,3.9l758.3-204.2l-1-3.9L641.1,388.7z M410.9,324.1c-19.7-29.9-31.1-67.1-31.1-107.7
		c0-7.3,0.4-14.8,1.1-22.3c0.1-1.5,0.3-3,0.5-4.5c0-0.4,0.1-0.9,0.2-1.3c0.2-1.2,0.3-2.3,0.5-3.5c0.1-0.4,0.1-0.8,0.2-1.2
		c0.2-1.5,0.5-3,0.7-4.4c0.1-0.2,0.1-0.5,0.1-0.8c0.2-1.2,0.4-2.4,0.7-3.7c0.1-0.4,0.2-0.9,0.3-1.3c0.2-1.2,0.5-2.4,0.7-3.6
		c0.1-0.3,0.1-0.6,0.2-0.9c0.3-1.4,0.6-2.9,1-4.3c0.1-0.4,0.2-0.7,0.3-1.1c0.3-1.1,0.6-2.2,0.8-3.3c0.1-0.4,0.2-0.8,0.3-1.3
		c0.4-1.4,0.7-2.7,1.1-4.1l0,0l0-0.2c0.4-1.4,0.8-2.8,1.3-4.2c0.1-0.4,0.2-0.8,0.4-1.2c0.3-1.1,0.7-2.2,1-3.2
		c0.1-0.4,0.2-0.7,0.4-1.1c0.5-1.4,0.9-2.8,1.4-4.1c0.1-0.2,0.1-0.4,0.2-0.6c0.3-0.8,0.6-1.7,0.9-2.5c0.1-0.2,0.2-0.5,0.3-0.8
		c0.3-0.8,0.6-1.6,0.9-2.4c0.3-0.7,0.6-1.5,0.9-2.2c0.3-0.8,0.6-1.6,1-2.4c0.3-0.7,0.6-1.5,0.9-2.2c0.3-0.8,0.7-1.6,1-2.4
		c0.3-0.7,0.6-1.4,0.9-2.1c0.4-0.8,0.7-1.6,1.1-2.4c0.3-0.7,0.6-1.4,1-2.1c0.4-0.8,0.8-1.6,1.2-2.4c0.4-0.7,0.7-1.4,1-2
		c0.4-0.8,0.8-1.6,1.2-2.4c0.4-0.7,0.7-1.3,1-2c0.4-0.8,0.9-1.6,1.3-2.4c0.3-0.6,0.7-1.3,1-1.8c0.5-0.8,0.9-1.7,1.4-2.5
		c0.3-0.5,0.6-1,0.9-1.5l0,0l0.1-0.1l0,0c0.3-0.4,0.5-0.9,0.8-1.4c0.5-0.9,1-1.7,1.6-2.5c0.3-0.5,0.6-1,1-1.5c0.5-0.8,1-1.6,1.5-2.3
		c0.3-0.5,0.7-1.1,1.1-1.6c0.5-0.8,1-1.5,1.5-2.2c0.4-0.5,0.7-1.1,1.1-1.6c0.5-0.7,1-1.4,1.5-2.1c0.4-0.5,0.8-1.1,1.2-1.6
		c0.5-0.7,1-1.4,1.5-2.1c0.4-0.5,0.8-1,1.2-1.6c0.5-0.7,1-1.4,1.6-2c0.4-0.5,0.8-1,1.2-1.5c0.5-0.7,1.1-1.3,1.6-2
		c0.4-0.5,0.8-1,1.2-1.5c0.2-0.2,0.3-0.4,0.5-0.6c0.4-0.4,0.8-0.9,1.1-1.3c0.4-0.5,0.9-1,1.3-1.5c0.6-0.6,1.1-1.3,1.7-1.9
		c0.5-0.5,0.9-1,1.3-1.5c0.6-0.6,1.2-1.3,1.8-1.9c0.4-0.5,0.9-1,1.3-1.4c0.6-0.6,1.3-1.3,1.9-2c0.4-0.4,0.8-0.9,1.2-1.3
		c0.7-0.7,1.4-1.4,2.1-2.1c0.4-0.4,0.7-0.7,1.1-1.1c1-0.9,1.9-1.8,2.9-2.7c0.2-0.1,0.3-0.3,0.4-0.4v0c1.1-1,2.2-2,3.3-3
		c0.3-0.2,0.6-0.5,0.9-0.8c0.8-0.7,1.5-1.4,2.3-2l0,0l0.2-0.1l0,0c1.2-1.1,2.5-2.1,3.8-3.1c0.3-0.2,0.6-0.4,0.9-0.7
		c1-0.8,2-1.6,3-2.4c0.5-0.4,0.9-0.7,1.4-1.1c0.8-0.6,1.7-1.3,2.5-1.9c0.5-0.4,1-0.8,1.6-1.1c0.8-0.6,1.6-1.1,2.4-1.7h0
		c0.5-0.4,1.1-0.8,1.6-1.1c0.8-0.6,1.6-1.1,2.5-1.6c0.6-0.4,1.1-0.7,1.6-1.1c0.9-0.6,1.7-1.1,2.6-1.6c0.5-0.3,1-0.6,1.5-0.9
		c1.1-0.6,2.1-1.3,3.2-1.9c0.4-0.2,0.7-0.4,1-0.6c1.4-0.8,2.8-1.6,4.2-2.3l0,0l0.1-0.1l0,0c0.2-0.1,0.4-0.2,0.7-0.3
		c1.2-0.7,2.5-1.3,3.7-1.9c0.5-0.3,1-0.5,1.5-0.8c1-0.5,2.1-1,3.1-1.5c0.5-0.3,1.1-0.5,1.6-0.7c1.1-0.5,2.2-1,3.3-1.5
		c0.5-0.2,0.9-0.4,1.3-0.6c1.6-0.7,3.1-1.3,4.7-1.9c0.2-0.1,0.4-0.2,0.7-0.3c1.3-0.5,2.7-1,4-1.5c0.5-0.2,1-0.4,1.6-0.5
		c1.1-0.4,2.2-0.8,3.3-1.1c0.6-0.2,1.1-0.4,1.7-0.5c1.1-0.4,2.3-0.7,3.4-1c0.5-0.1,1-0.3,1.4-0.4c1.6-0.4,3.3-0.9,4.9-1.3
		c0.1,0,0.3-0.1,0.6-0.1c1.4-0.4,2.9-0.7,4.4-1c0.5-0.1,1.1-0.2,1.6-0.3c1.1-0.2,2.3-0.4,3.4-0.6c0.6-0.1,1.2-0.2,1.8-0.3
		c1.2-0.2,2.3-0.4,3.5-0.5c0.5-0.1,1-0.2,1.5-0.2c1.7-0.2,3.3-0.4,5-0.6c0.1,0,0.2,0,0.3,0c1.6-0.2,3.2-0.3,4.7-0.4
		c0.5,0,1.1-0.1,1.6-0.1c1.2-0.1,2.3-0.1,3.5-0.2c0.6,0,1.2-0.1,1.8-0.1c1.2,0,2.4-0.1,3.6-0.1h0c0.5,0,1,0,1.5,0h0.1
		c1.7,0,3.4,0,5.1,0.1c1.8,0.1,3.6,0.2,5.3,0.3c0.6,0,1.1,0.1,1.7,0.1c1.2,0.1,2.4,0.2,3.6,0.3c0.7,0.1,1.3,0.1,2,0.2
		c1.1,0.1,2.2,0.3,3.3,0.4c0.7,0.1,1.4,0.2,2,0.3c1.1,0.2,2.1,0.3,3.2,0.5c0.7,0.1,1.3,0.2,2,0.3c1.1,0.2,2.3,0.5,3.4,0.7
		c0.6,0.1,1.2,0.2,1.7,0.3c1,0.2,2,0.4,2.9,0.7c-0.3,0-0.5,0-0.7-0.1c-0.3,0-0.5,0-0.8-0.1h-0.1c-0.3,0-0.6-0.1-0.9-0.1
		c-0.8-0.1-1.5-0.1-2.3-0.1c-1.1-0.1-2.1-0.1-3.2-0.2c-1.4,0-2.8-0.1-4.2-0.1c-0.3,0-0.7,0-1,0h-0.5h-0.2c0,0,0,0,0,0
		c-0.3,0-0.7,0-1,0h0c-0.3,0-0.5,0-0.8,0c-0.1,0-0.3,0-0.4,0c-0.4,0-0.9,0-1.4,0c-0.4,0-0.8,0-1.2,0c-0.3,0-0.5,0-0.8,0
		c-0.3,0-0.7,0-1,0h0c-0.2,0-0.3,0-0.5,0c-0.3,0-0.5,0-0.8,0c-0.3,0-0.7,0-1,0c-0.4,0-0.8,0.1-1.3,0.1h-0.1l0,0
		c-0.3,0-0.6,0-0.9,0.1c-0.3,0-0.5,0-0.8,0c-0.4,0-0.8,0.1-1.2,0.1c-0.4,0-0.8,0.1-1.2,0.1c0,0,0,0,0,0c-0.1,0-0.1,0-0.2,0
		c-0.8,0.1-1.5,0.1-2.2,0.2c0,0-0.1,0-0.1,0l-0.1,0c0,0,0,0-0.1,0c0,0-0.1,0-0.1,0c-0.1,0-0.2,0-0.3,0c-1.6,0.2-3.1,0.4-4.7,0.6
		c0,0,0,0,0,0c0,0-0.1,0-0.1,0h0c-0.3,0-0.5,0.1-0.8,0.1s-0.5,0.1-0.8,0.1c0,0,0,0-0.1,0c-1.2,0.2-2.3,0.4-3.5,0.6h0c0,0,0,0,0,0
		c-0.1,0-0.2,0-0.3,0.1c-0.5,0.1-1,0.2-1.5,0.3c-0.7,0.1-1.4,0.3-2.1,0.4c-0.5,0.1-0.9,0.2-1.4,0.3c-0.6,0.1-1.1,0.2-1.6,0.3
		c0,0,0,0,0,0c-1.5,0.3-3,0.6-4.4,1c-0.2,0-0.4,0.1-0.6,0.1h0c-1.5,0.4-3,0.8-4.4,1.2c-0.2,0-0.3,0.1-0.5,0.1
		c-0.5,0.1-1,0.3-1.5,0.4c-0.1,0-0.2,0-0.2,0.1c-0.8,0.2-1.7,0.5-2.5,0.8c-0.3,0.1-0.5,0.1-0.8,0.2c-0.3,0.1-0.7,0.2-1,0.3
		c0,0,0,0,0,0c-0.2,0.1-0.5,0.1-0.7,0.2l0,0c0,0,0,0,0,0c-0.3,0.1-0.5,0.2-0.8,0.3c-0.9,0.3-1.7,0.6-2.6,0.9
		c-0.4,0.1-0.9,0.3-1.3,0.4c-0.1,0-0.2,0.1-0.3,0.1v0c-1.4,0.5-2.7,1-4.1,1.5c0,0,0,0,0,0s0,0,0,0c-0.1,0-0.3,0.1-0.4,0.1
		c-0.1,0-0.2,0.1-0.3,0.1v0l-2.4,0.9c-0.8,0.3-1.6,0.7-2.4,1c-0.2,0.1-0.5,0.2-0.7,0.3c-0.2,0.1-0.5,0.2-0.7,0.3v0h0
		c-0.9,0.4-1.7,0.8-2.6,1.1c-0.2,0.1-0.4,0.2-0.7,0.3c0,0-0.1,0-0.1,0c0,0,0,0,0,0c0,0,0,0-0.1,0c0,0,0,0,0,0
		c-0.3,0.1-0.5,0.2-0.8,0.4c-0.3,0.1-0.5,0.3-0.8,0.4v0c-1.1,0.5-2.1,1-3.2,1.5c-0.5,0.3-1,0.5-1.5,0.8l0,0c-0.6,0.3-1.3,0.7-1.9,1
		c-0.6,0.3-1.3,0.7-1.9,1c-0.1,0.1-0.2,0.1-0.4,0.2c-0.1,0-0.2,0.1-0.3,0.1c-0.1,0-0.1,0.1-0.2,0.1c-1.2,0.6-2.4,1.3-3.5,2
		c-0.2,0.1-0.4,0.2-0.5,0.3c-0.1,0-0.2,0.1-0.3,0.1c0,0,0,0,0,0c-0.1,0-0.1,0.1-0.2,0.1c-0.1,0-0.2,0.1-0.3,0.2c0,0-0.1,0-0.1,0
		c0,0,0,0-0.1,0c-0.5,0.3-1,0.6-1.6,0.9c-0.5,0.3-1,0.6-1.5,0.9c-0.2,0.1-0.4,0.2-0.6,0.4c0,0,0,0,0,0c-0.1,0.1-0.2,0.1-0.3,0.2
		c-0.4,0.3-0.8,0.5-1.2,0.7c-0.9,0.6-1.8,1.1-2.7,1.7h0c-0.6,0.4-1.1,0.7-1.7,1.1c-0.8,0.5-1.7,1.1-2.5,1.7h0
		c-0.1,0-0.1,0.1-0.2,0.1c-0.5,0.3-1,0.7-1.5,1c-0.1,0.1-0.3,0.2-0.4,0.3c-0.6,0.4-1.1,0.8-1.7,1.2c-0.1,0.1-0.3,0.2-0.4,0.3
		c0,0,0,0,0,0c-0.2,0.2-0.5,0.3-0.7,0.5c-0.2,0.1-0.3,0.2-0.4,0.3c-0.1,0.1-0.3,0.2-0.4,0.3l0,0c-0.8,0.6-1.7,1.3-2.6,1.9v0
		c-0.5,0.4-0.9,0.7-1.4,1.1c-1,0.8-2,1.6-3.1,2.4c0,0,0,0,0,0c-0.1,0.1-0.3,0.2-0.4,0.3c-0.1,0-0.1,0.1-0.2,0.2
		c-0.1,0.1-0.1,0.1-0.2,0.2c-0.3,0.3-0.6,0.5-0.9,0.8c-0.3,0.3-0.6,0.5-1,0.8c0,0,0,0,0,0c-0.7,0.5-1.3,1.1-2,1.6
		c-0.2,0.1-0.3,0.3-0.5,0.4c-0.6,0.5-1.2,1.1-1.9,1.6c-0.2,0.1-0.3,0.3-0.5,0.4c-0.2,0.2-0.4,0.3-0.6,0.5c0,0,0,0,0,0
		c-1.1,1-2.2,2-3.3,3l0,0c-0.1,0.1-0.2,0.2-0.3,0.2c-0.1,0.1-0.2,0.1-0.2,0.2h0c-0.5,0.5-1,0.9-1.4,1.4c0,0,0,0,0,0c0,0,0,0,0,0
		c0,0,0,0,0,0c-0.4,0.4-0.9,0.9-1.4,1.3c-0.2,0.2-0.4,0.4-0.6,0.6c-0.2,0.2-0.4,0.4-0.5,0.5c-0.3,0.3-0.7,0.7-1.1,1c0,0,0,0,0,0
		c-0.3,0.3-0.5,0.5-0.8,0.8c-0.1,0.1-0.2,0.2-0.3,0.3h0c0,0,0,0,0,0c-0.2,0.2-0.4,0.4-0.6,0.6c0,0,0,0,0,0c-0.2,0.2-0.4,0.4-0.6,0.6
		c-0.4,0.4-0.8,0.8-1.2,1.2l-0.7,0.8c0,0,0,0,0,0c0,0,0,0,0,0c0,0,0,0,0,0c0,0,0,0-0.1,0.1h0l-0.1,0.1v0c-0.4,0.4-0.8,0.8-1.1,1.2v0
		c-0.6,0.6-1.2,1.3-1.8,2c-0.3,0.3-0.6,0.7-0.9,1c-0.2,0.2-0.3,0.3-0.5,0.5c-0.6,0.6-1.2,1.3-1.7,2c-0.5,0.5-0.9,1-1.3,1.6
		c-0.6,0.7-1.1,1.3-1.7,2c-0.4,0.5-0.8,1-1.2,1.5c-0.6,0.7-1.1,1.4-1.7,2c-0.2,0.2-0.4,0.5-0.6,0.7c-0.2,0.3-0.4,0.6-0.7,0.9
		c-0.4,0.5-0.8,1.1-1.3,1.6c-0.1,0.1-0.2,0.3-0.3,0.4l0,0v0c0,0-0.1,0.1-0.1,0.2c-0.4,0.5-0.7,0.9-1.1,1.4v0l0,0
		c-0.4,0.5-0.8,1-1.1,1.6c-0.1,0.2-0.3,0.4-0.4,0.5c-0.2,0.3-0.4,0.6-0.6,0.8c-0.1,0.1-0.1,0.2-0.2,0.3c-0.1,0.2-0.3,0.4-0.4,0.5h0
		c-0.5,0.7-1,1.4-1.5,2.2c0,0.1-0.1,0.1-0.1,0.2c-0.3,0.4-0.6,0.8-0.8,1.2c-0.1,0.1-0.1,0.2-0.2,0.3c-0.5,0.8-1,1.5-1.5,2.2
		c-0.4,0.5-0.7,1.1-1.1,1.6c-0.1,0.1-0.1,0.2-0.2,0.3c-0.1,0.1-0.1,0.1-0.1,0.2c-0.4,0.6-0.8,1.3-1.2,1.9c0,0,0,0,0,0
		c-0.3,0.4-0.5,0.8-0.8,1.3c-0.1,0.1-0.1,0.2-0.2,0.3c0,0,0,0-0.1,0.1c0,0,0,0.1,0,0.1c-0.5,0.8-1,1.7-1.5,2.5
		c-0.1,0.2-0.3,0.4-0.4,0.6c0,0,0,0,0,0c-0.1,0.2-0.3,0.4-0.4,0.7c-0.4,0.6-0.7,1.2-1,1.8c-0.5,0.8-0.9,1.6-1.4,2.4c0,0,0,0,0,0.1
		c0,0,0,0,0,0c-0.2,0.3-0.4,0.6-0.5,0.9c0,0,0,0,0,0c-0.2,0.3-0.3,0.6-0.5,0.9c-0.2,0.4-0.4,0.8-0.7,1.2c-0.2,0.3-0.4,0.7-0.6,1
		c0,0,0,0,0,0c0,0.1-0.1,0.1-0.1,0.2c0,0,0,0.1-0.1,0.1c0,0,0,0,0,0c-0.2,0.4-0.4,0.7-0.6,1.1c-0.1,0.2-0.2,0.5-0.4,0.7v0
		c-0.4,0.8-0.8,1.6-1.3,2.4c-0.3,0.7-0.7,1.4-1,2h0c-0.4,0.8-0.8,1.6-1.2,2.4c-0.3,0.7-0.7,1.4-1,2.1c-0.4,0.8-0.8,1.6-1.1,2.4
		c0,0,0,0,0,0.1c0,0,0,0,0,0c-0.1,0.3-0.3,0.6-0.4,0.9c-0.2,0.4-0.3,0.8-0.5,1.1c-0.2,0.4-0.4,0.8-0.5,1.2c-0.2,0.4-0.4,0.8-0.5,1.2
		c-0.3,0.7-0.6,1.4-0.9,2.2c-0.3,0.8-0.7,1.6-1,2.5c-0.2,0.4-0.3,0.7-0.4,1.1c-0.1,0.4-0.3,0.7-0.4,1.1v0c-0.3,0.8-0.6,1.7-1,2.5
		l0,0c-0.1,0.3-0.2,0.5-0.3,0.8c-0.3,0.8-0.6,1.6-0.9,2.4c0,0.1-0.1,0.1-0.1,0.2c0,0.1-0.1,0.3-0.2,0.5c0,0.1,0,0.1-0.1,0.2
		c0,0,0,0,0,0.1c0,0.1-0.1,0.2-0.1,0.3c-0.2,0.5-0.4,1-0.5,1.5c0,0,0,0,0,0c-0.2,0.7-0.5,1.4-0.7,2.1c-0.1,0.4-0.3,0.8-0.4,1.1
		c-0.2,0.6-0.3,1.1-0.5,1.6c-0.2,0.5-0.3,1.1-0.5,1.6c0,0.2-0.1,0.3-0.2,0.5c0,0.1-0.1,0.2-0.1,0.2c-0.1,0.2-0.1,0.3-0.2,0.5
		c0,0,0,0,0,0c-0.4,1.2-0.8,2.5-1.1,3.7c0,0,0,0.1,0,0.1c0,0.1,0,0.1-0.1,0.2c0,0.1,0,0.1-0.1,0.2v0l0,0v0v0l0,0.1l0,0l0,0
		c-0.1,0.3-0.2,0.7-0.3,1c-0.3,1-0.6,2.1-0.8,3.1l-0.3,1.3c-0.1,0.3-0.1,0.5-0.2,0.8c-0.2,0.7-0.4,1.5-0.6,2.2
		c0,0.1-0.1,0.3-0.1,0.4c0,0.1,0,0.1,0,0.2c0,0.1-0.1,0.2-0.1,0.4c0,0.2-0.1,0.4-0.1,0.6c-0.4,1.5-0.7,2.9-1,4.4
		c-0.1,0.3-0.1,0.6-0.2,0.9c-0.1,0.3-0.1,0.6-0.2,0.9c-0.1,0.3-0.1,0.6-0.2,0.9v0c-0.1,0.6-0.2,1.2-0.4,1.8
		c-0.1,0.5-0.2,0.9-0.3,1.3c0,0,0,0,0,0c-0.1,0.6-0.2,1.2-0.3,1.8l0,0c-0.1,0.6-0.2,1.3-0.3,1.9v0l0,0v0c0,0.2-0.1,0.5-0.1,0.8
		c0,0,0,0,0,0.1c0,0,0,0,0,0c-0.1,0.7-0.2,1.4-0.4,2.1c-0.1,0.7-0.2,1.4-0.3,2.1c0,0,0,0.1,0,0.2v0c0,0.2,0,0.4-0.1,0.6
		s-0.1,0.4-0.1,0.6l0,0c-0.1,0.8-0.2,1.6-0.3,2.4c0,0.4-0.1,0.8-0.2,1.1c0,0.2-0.1,0.4-0.1,0.6c0,0,0,0.1,0,0.1c0,0.2,0,0.3-0.1,0.5
		c-0.1,0.5-0.1,1.1-0.2,1.7c0,0.2,0,0.4-0.1,0.6c-0.1,0.7-0.2,1.4-0.2,2.1c0,0.1,0,0.1,0,0.2h0c0,0.4-0.1,0.8-0.1,1.2
		c0,0.6-0.1,1.1-0.1,1.7c-0.1,1-0.2,1.9-0.2,2.9c-0.4,5.7-0.7,11.4-0.7,17c0,1.1,0,2.3,0,3.4c0,0.4,0,0.8,0,1.1c0,1,0.1,2.1,0.1,3.1
		c0,0.8,0.1,1.6,0.1,2.3c0,0.5,0,1,0.1,1.5c0,0.6,0.1,1.2,0.1,1.8c0.1,2,0.3,4,0.4,6c0.1,0.6,0.1,1.1,0.2,1.7c0,0.1,0,0.3,0,0.4
		c0,0,0,0,0,0c0.1,1.1,0.2,2.2,0.4,3.3c0,0,0,0,0,0.1c0.1,0.7,0.2,1.5,0.3,2.2c0,0,0,0,0,0c0,0.1,0,0.1,0,0.2c0.1,0.7,0.2,1.3,0.3,2
		c0,0.2,0,0.4,0.1,0.5c0,0,0,0,0,0c0.1,0.5,0.1,0.9,0.2,1.4c0.1,0.7,0.2,1.5,0.3,2.2c0.1,0.4,0.1,0.8,0.2,1.2
		c0.2,0.9,0.3,1.9,0.5,2.8c0,0.1,0,0.2,0,0.3c0.2,1.1,0.4,2.2,0.6,3.4c0.2,1.1,0.4,2.2,0.7,3.3c0.1,0.6,0.3,1.3,0.4,1.9
		c0.4,1.6,0.7,3.2,1.1,4.8c0,0,0,0.1,0,0.1c0,0.1,0.1,0.3,0.1,0.4c0,0,0,0.1,0,0.1c0.1,0.4,0.2,0.9,0.3,1.3c0,0,0,0,0,0
		c0.1,0.3,0.1,0.5,0.2,0.7c0,0,0,0,0,0c0,0,0,0,0,0c0.1,0.2,0.1,0.5,0.2,0.7c0.1,0.3,0.2,0.6,0.3,1c0.3,1.2,0.7,2.4,1,3.6
		c0,0,0,0,0,0c0.1,0.3,0.2,0.5,0.3,0.8c0.3,0.9,0.5,1.7,0.8,2.6c0,0,0,0,0,0c0,0.1,0,0.1,0.1,0.2c0.1,0.3,0.2,0.6,0.3,0.9
		c0,0,0,0,0,0c0,0,0,0,0,0c0,0.2,0.1,0.3,0.2,0.5c0.1,0.3,0.2,0.5,0.3,0.8c0.1,0.3,0.2,0.5,0.3,0.8c0,0,0,0,0,0
		c0,0.1,0.1,0.3,0.1,0.5c0,0.1,0,0.1,0.1,0.1c0.4,1.1,0.7,2.2,1.1,3.2c0.3,0.9,0.6,1.8,1,2.6c0,0.1,0.1,0.1,0.1,0.2
		c0,0,0,0.1,0.1,0.1c0.2,0.5,0.4,1,0.6,1.5c0.2,0.5,0.4,0.9,0.5,1.4c0,0,0,0,0,0c0,0.1,0,0.1,0.1,0.2c0,0,0,0,0,0c0,0,0,0,0,0
		c0,0,0,0.1,0,0.1c0.4,1,0.8,1.9,1.2,2.9c1,2.3,2,4.6,3,6.9c0.5,1,1,2.1,1.5,3.1h0c0,0,0,0.1,0.1,0.1c0,0,0,0,0,0
		c0.2,0.3,0.3,0.7,0.5,1c0.3,0.7,0.7,1.4,1,2.1c0,0,0,0,0,0c0.5,1,1.1,2.1,1.6,3.1c0.5,1,1.1,2,1.6,3c0,0,0,0,0,0
		c0.1,0.2,0.2,0.4,0.3,0.6c0.4,0.8,0.9,1.5,1.3,2.3c0,0.1,0.1,0.1,0.1,0.2c0.4,0.8,0.9,1.6,1.4,2.3c0.2,0.3,0.3,0.6,0.5,0.8
		c0,0.1,0.1,0.2,0.2,0.2c0,0,0,0,0,0c0.5,0.8,1,1.6,1.4,2.3c0,0,0,0,0,0c0.2,0.4,0.4,0.7,0.7,1.1c0,0,0,0,0,0c0.2,0.4,0.4,0.7,0.7,1
		c0,0,0,0,0,0c0.2,0.2,0.3,0.5,0.5,0.7c0,0,0.1,0.1,0.1,0.1c0.5,0.7,0.9,1.4,1.4,2c0.3,0.4,0.6,0.8,0.9,1.3c0.6,0.8,1.2,1.7,1.8,2.5
		c0,0,0,0,0,0c0.4,0.5,0.8,1.1,1.2,1.6c0.2,0.2,0.3,0.5,0.5,0.7c0.1,0.2,0.3,0.4,0.4,0.6c0,0,0,0,0,0c0.1,0.2,0.3,0.4,0.4,0.5
		c0.1,0.1,0.1,0.2,0.2,0.3c0.1,0.1,0.2,0.2,0.2,0.3c0.1,0.1,0.1,0.1,0.2,0.2c0.1,0.1,0.1,0.2,0.2,0.3c0.1,0.1,0.2,0.3,0.3,0.4
		c0,0,0,0,0,0c0.8,1,1.6,2,2.4,3.1v0c0.1,0.1,0.1,0.2,0.2,0.3c0.7,0.8,1.4,1.7,2.1,2.5c2,2.3,4,4.6,6.1,6.8v0l0.6,0.6
		c0.8,0.8,1.6,1.6,2.4,2.4c0.4,0.4,0.8,0.8,1.2,1.2c0.2,0.2,0.4,0.4,0.6,0.6c0.2,0.2,0.4,0.4,0.6,0.6c0.3,0.3,0.7,0.6,1,0.9l0,0l0,0
		c0.5,0.5,1,1,1.5,1.5c0.5,0.5,1.1,1,1.6,1.5c0.8,0.7,1.6,1.4,2.4,2.1c0.3,0.2,0.6,0.5,0.8,0.7c0.8,0.7,1.7,1.5,2.6,2.2
		c0.4,0.4,0.9,0.7,1.3,1c0.4,0.4,0.9,0.7,1.3,1h0c2.2,1.7,4.4,3.4,6.6,4.9c0.4,0.3,0.9,0.6,1.3,0.9c0.6,0.4,1.1,0.8,1.7,1.2
		c0.6,0.4,1.1,0.8,1.7,1.1c0.5,0.4,1.1,0.7,1.6,1.1C451.8,370.7,428.2,350.2,410.9,324.1z M564,403.4c-1.8,0-3.7,0-5.6-0.1
		c-15.3-0.5-29.9-3.3-43.6-7.9h0l-0.2-0.1c-0.2-0.1-0.4-0.1-0.5-0.2c0,0,0,0,0,0c0,0,0,0,0,0c0,0,0,0,0,0c-0.8-0.3-1.5-0.5-2.3-0.8
		c0,0,0,0,0,0l0,0l-0.1,0c0,0,0,0,0,0c-1-0.4-2-0.7-3-1.1c0,0,0,0,0,0v0c-0.5-0.2-0.9-0.4-1.4-0.5c-0.6-0.3-1.3-0.5-1.9-0.8
		c0,0-0.1,0-0.1,0c-0.7-0.3-1.4-0.6-2.2-0.9c-0.6-0.2-1.1-0.5-1.6-0.7c-0.2-0.1-0.4-0.2-0.6-0.3c-0.9-0.4-1.8-0.8-2.6-1.2
		c-0.6-0.3-1.2-0.6-1.8-0.9c0,0-0.1,0-0.1,0c-0.6-0.3-1.2-0.6-1.7-0.9c-0.3-0.1-0.5-0.3-0.8-0.4c-0.3-0.1-0.6-0.3-0.8-0.4
		c-1.3-0.7-2.6-1.4-3.9-2.1c-0.2-0.1-0.3-0.2-0.5-0.3c-0.2-0.1-0.3-0.2-0.5-0.3h0c-0.9-0.5-1.9-1.1-2.8-1.6v0
		c-0.5-0.3-0.9-0.6-1.4-0.8c-0.5-0.3-0.9-0.6-1.4-0.9v0l0,0c-0.3-0.1-0.5-0.3-0.8-0.5c-0.1-0.1-0.2-0.1-0.3-0.2
		c-0.4-0.2-0.7-0.5-1.1-0.7c-1.1-0.7-2.2-1.5-3.3-2.2v0c-0.7-0.5-1.4-1-2.1-1.5c-0.2-0.1-0.3-0.2-0.5-0.3c-0.8-0.6-1.6-1.1-2.3-1.7
		c-1-0.8-2-1.5-3-2.3c-1.2-1-2.5-2-3.7-3c-1.3-1-2.5-2.1-3.7-3.2v0c-0.3-0.3-0.6-0.5-0.9-0.8c-0.5-0.4-1-0.9-1.5-1.4
		c-0.7-0.6-1.4-1.3-2.1-2c-0.1-0.1-0.2-0.2-0.3-0.3v0c-0.8-0.8-1.5-1.5-2.3-2.3c-0.1-0.1-0.3-0.3-0.4-0.4c-1.4-1.4-2.8-2.9-4.1-4.4
		c0,0,0,0,0,0c-0.7-0.8-1.5-1.6-2.2-2.4c-0.7-0.8-1.5-1.7-2.2-2.5c-0.8-1-1.6-1.9-2.4-2.9c-0.7-0.9-1.4-1.8-2.1-2.6
		c-0.1-0.1-0.2-0.3-0.3-0.4s-0.2-0.3-0.3-0.4c-0.3-0.3-0.5-0.7-0.8-1c-0.2-0.2-0.3-0.4-0.4-0.6c0,0,0,0,0,0
		c-0.6-0.8-1.1-1.5-1.7-2.3c-0.1-0.1-0.2-0.2-0.2-0.3l0,0c-0.2-0.3-0.4-0.5-0.6-0.8c-1-1.5-2.1-3-3.1-4.5c0,0-0.1-0.1-0.1-0.1
		c-0.4-0.6-0.7-1.1-1.1-1.7c-0.1-0.2-0.2-0.4-0.4-0.5c0-0.1-0.1-0.1-0.1-0.2c-0.1-0.1-0.2-0.3-0.2-0.4c0,0,0,0,0,0
		c-0.2-0.2-0.3-0.5-0.4-0.7c-1.6-2.6-3.1-5.2-4.6-7.8l0,0c-0.2-0.3-0.4-0.6-0.5-0.9c-0.3-0.6-0.6-1.1-0.9-1.7
		c-1.1-2.1-2.2-4.2-3.3-6.4c0,0,0,0,0-0.1c0,0,0-0.1-0.1-0.1c0,0,0,0,0-0.1c-0.5-1-1-2-1.4-3c-0.1-0.2-0.2-0.4-0.3-0.6
		c-0.4-0.8-0.7-1.6-1.1-2.4c-0.5-1.1-1-2.2-1.4-3.4c-0.4-1-0.8-2-1.2-3c-0.1-0.1-0.1-0.2-0.1-0.3c0,0,0,0,0,0c0,0,0,0,0,0
		c0,0,0-0.1,0-0.1c-0.4-0.9-0.7-1.9-1.1-2.8c0-0.1-0.1-0.2-0.1-0.2c-0.3-0.9-0.7-1.8-1-2.7c0-0.1-0.1-0.2-0.1-0.3
		c-0.3-0.7-0.5-1.5-0.8-2.2c0-0.1-0.1-0.2-0.1-0.3c-0.1-0.4-0.3-0.9-0.4-1.3c-0.1-0.3-0.2-0.5-0.3-0.8c-0.1-0.3-0.2-0.5-0.3-0.8
		l-0.4-1.4h0c0,0,0,0,0-0.1c-0.3-0.9-0.5-1.7-0.8-2.6c-0.1-0.2-0.1-0.4-0.2-0.5l0,0c-0.3-1-0.6-2.1-0.9-3.1c0,0,0,0,0-0.1
		c0-0.1-0.1-0.2-0.1-0.3c0,0,0,0,0-0.1v0l0,0c-0.2-0.5-0.3-1.1-0.4-1.6c0,0,0,0,0,0v0c0-0.1-0.1-0.3-0.1-0.4
		c-0.2-0.6-0.3-1.1-0.4-1.7c0-0.1,0-0.1-0.1-0.2c-1.4-5.4-2.5-10.9-3.4-16.5c-0.1-0.6-0.2-1.2-0.3-1.8c-0.1-0.3-0.1-0.6-0.1-0.8
		c-0.1-0.7-0.2-1.4-0.3-2.1l0,0c-0.1-0.4-0.1-0.9-0.2-1.3c-0.1-0.8-0.2-1.6-0.3-2.4l-0.1-0.5c0-0.2,0-0.4,0-0.5l0,0c0,0,0,0,0,0
		c-0.1-0.4-0.1-0.7-0.1-1.1c0-0.3-0.1-0.6-0.1-1c-0.1-0.4-0.1-0.8-0.1-1.2l0,0c0,0,0,0,0,0c-0.2-1.8-0.3-3.7-0.5-5.6
		c0-0.4-0.1-0.8-0.1-1.2c-0.1-0.9-0.1-1.9-0.2-2.9c0,0,0-0.1,0-0.1c0-1-0.1-2.1-0.1-3.1c0-0.3,0-0.6,0-0.9c0-0.8-0.1-1.6-0.1-2.4
		c0-0.6,0-1.1,0-1.6c0,0,0,0,0,0c0-1,0-2.1,0-3.1c0-4.6,0.1-9.2,0.4-13.9c0-0.7,0.1-1.4,0.1-2.1c0.1-1.4,0.2-2.8,0.4-4.2
		c0,0,0,0,0,0c0.1-0.7,0.1-1.4,0.2-2.1c0.1-0.8,0.1-1.5,0.2-2.3c0.1-0.8,0.2-1.5,0.3-2.3c0.1-1,0.3-2,0.4-3c0.1-0.6,0.2-1.1,0.2-1.7
		c0-0.1,0-0.2,0-0.3s0-0.2,0-0.3c0-0.2,0.1-0.4,0.1-0.6c0,0,0-0.1,0-0.1c0.1-0.7,0.2-1.4,0.3-2.1c0.1-0.7,0.2-1.4,0.4-2.1l0,0l0-0.1
		c0-0.1,0-0.1,0-0.2c0-0.1,0-0.1,0-0.2c0-0.1,0-0.3,0.1-0.4v0c0.1-0.6,0.2-1.2,0.3-1.8v0c0.1-0.6,0.2-1.2,0.4-1.8
		c0-0.2,0.1-0.4,0.1-0.7c0-0.1,0.1-0.3,0.1-0.4c0-0.1,0-0.1,0-0.2v0c0,0,0,0,0,0c0.2-1.2,0.5-2.4,0.7-3.6c0.1-0.3,0.1-0.6,0.2-0.8
		c0,0,0,0,0,0c0.3-1.4,0.6-2.9,1-4.3c0.1-0.3,0.1-0.6,0.2-0.9c0.2-0.7,0.3-1.4,0.5-2.1v0c0.1-0.5,0.2-1,0.4-1.5
		c0.1-0.4,0.2-0.8,0.3-1.2c0.1-0.3,0.2-0.7,0.3-1c0.1-0.4,0.2-0.7,0.3-1c0.1-0.3,0.2-0.7,0.3-1c0.1-0.3,0.2-0.7,0.3-1l0,0l0,0l0-0.2
		v0c0,0,0,0,0,0c0.2-0.7,0.4-1.4,0.6-2.1c0.1-0.5,0.3-1,0.4-1.5c0.1-0.2,0.1-0.4,0.2-0.6c0,0,0,0,0,0c0.1-0.4,0.2-0.8,0.4-1.2
		c0.3-1,0.6-2,1-3c0-0.1,0-0.2,0.1-0.2c0.1-0.4,0.3-0.8,0.4-1.1c0.4-1.3,0.9-2.6,1.3-3.9c0,0,0-0.1,0.1-0.1c0,0,0,0,0,0
		c0,0,0-0.1,0.1-0.2c0.1-0.2,0.1-0.3,0.2-0.5l0,0c0.1-0.3,0.2-0.5,0.3-0.8c0.3-0.8,0.6-1.6,0.9-2.4l0,0c0.3-0.8,0.6-1.6,0.9-2.4
		c0,0,0,0,0,0v0c0.3-0.7,0.6-1.4,0.9-2.1c0.3-0.8,0.7-1.6,1-2.4c0.3-0.7,0.6-1.4,0.9-2.1c0.2-0.4,0.3-0.8,0.5-1.2
		c0.2-0.4,0.4-0.8,0.5-1.2c0.1-0.1,0.1-0.3,0.2-0.5c0.2-0.5,0.5-1,0.7-1.6l0-0.1c0,0,0,0,0,0c0.2-0.5,0.5-1,0.7-1.5
		c0.1-0.3,0.3-0.6,0.4-0.9c0.1-0.3,0.3-0.6,0.4-0.9l0.5-1.1l0,0c0.4-0.8,0.8-1.6,1.2-2.4c0.2-0.3,0.3-0.7,0.5-1
		c0.2-0.3,0.3-0.7,0.5-1c0.4-0.8,0.8-1.6,1.3-2.4v0c0.3-0.6,0.6-1.2,0.9-1.8c0,0,0-0.1,0.1-0.1c0-0.1,0.1-0.1,0.1-0.2
		c0.6-1.1,1.1-2.1,1.7-3.1c0.2-0.3,0.3-0.6,0.5-0.9c0,0,0,0,0-0.1c0,0,0,0,0,0c0.3-0.6,0.7-1.2,1-1.8c0.1-0.2,0.3-0.4,0.4-0.7
		c0,0,0,0,0,0c0.1-0.1,0.2-0.3,0.2-0.4c0.2-0.4,0.4-0.7,0.6-1c0.1-0.1,0.1-0.2,0.2-0.3c0,0,0-0.1,0.1-0.1c0.1-0.2,0.2-0.4,0.3-0.5
		c0,0,0,0,0,0c0.1-0.2,0.3-0.4,0.4-0.7c0.2-0.4,0.5-0.8,0.7-1.2c0.2-0.4,0.5-0.8,0.7-1.2c0-0.1,0.1-0.1,0.1-0.2c0,0,0,0,0-0.1
		c0,0,0,0,0,0l0,0c0.1-0.1,0.1-0.2,0.2-0.3c0.1-0.1,0.1-0.2,0.2-0.3c0.1-0.2,0.3-0.4,0.4-0.6c0,0,0.1-0.1,0.1-0.2l0,0
		c0.2-0.3,0.4-0.6,0.6-0.9c0.3-0.4,0.5-0.8,0.8-1.2c0,0,0.1-0.1,0.1-0.2c0,0,0,0,0,0c0,0,0,0,0,0c0.3-0.5,0.7-1,1-1.6
		c0.5-0.8,1-1.5,1.5-2.2c0.4-0.5,0.7-1.1,1.1-1.6c0.5-0.7,1-1.4,1.5-2.1h0c0.1-0.1,0.2-0.2,0.2-0.3c0.1-0.1,0.2-0.2,0.2-0.3
		c0.2-0.2,0.3-0.4,0.5-0.6c0.1-0.1,0.2-0.2,0.3-0.4c0.4-0.6,0.8-1.2,1.3-1.8c0.1-0.1,0.2-0.2,0.2-0.3c0,0,0,0,0,0
		c0.4-0.5,0.8-1,1.2-1.6c0.5-0.7,1-1.4,1.6-2c0.4-0.5,0.8-1,1.2-1.5c0.1-0.1,0.2-0.3,0.3-0.4c0.4-0.6,0.9-1.1,1.3-1.6l0,0
		c0.4-0.5,0.8-1,1.2-1.5c0.5-0.6,1.1-1.3,1.7-2c0.4-0.5,0.9-1,1.3-1.5c0.5-0.6,1.1-1.2,1.6-1.9c0,0,0-0.1,0.1-0.1
		c0.4-0.5,0.9-1,1.3-1.4c0.1-0.1,0.3-0.3,0.4-0.4c0.5-0.5,0.9-1,1.4-1.5c0.4-0.4,0.8-0.9,1.2-1.3l0,0c0,0,0,0,0,0l0.1-0.1
		c0,0,0,0,0,0c0.6-0.6,1.2-1.3,1.8-1.9c0.2-0.2,0.4-0.4,0.6-0.7c0.2-0.2,0.4-0.4,0.6-0.6l0,0c0.3-0.3,0.7-0.7,1-1
		c0.4-0.4,0.7-0.7,1.1-1.1c0.2-0.2,0.4-0.4,0.6-0.6c0.2-0.2,0.3-0.4,0.5-0.5c0.5-0.5,1.1-1.1,1.7-1.6c0.4-0.4,0.8-0.7,1.1-1.1v0
		c0.2-0.2,0.3-0.3,0.5-0.4c1.1-1,2.2-2,3.3-3c0.2-0.1,0.3-0.3,0.5-0.5c0.2-0.1,0.3-0.3,0.5-0.4c0.7-0.6,1.4-1.2,2-1.8
		c0.1-0.1,0.2-0.1,0.3-0.2c1.3-1.1,2.5-2.1,3.8-3.2c0.3-0.2,0.5-0.4,0.8-0.6c1-0.8,2-1.6,3-2.4h0c0.1-0.1,0.2-0.2,0.3-0.3
		c0.3-0.3,0.7-0.5,1.1-0.8c0.8-0.6,1.7-1.3,2.5-1.9c0,0,0,0,0,0c0,0,0,0,0,0c0.3-0.2,0.5-0.4,0.8-0.6c0.1-0.1,0.3-0.2,0.4-0.3
		c0.1-0.1,0.3-0.2,0.4-0.3v0c0.1-0.1,0.3-0.2,0.4-0.3c0.7-0.5,1.3-1,2-1.4c0.3-0.2,0.5-0.4,0.8-0.6s0.5-0.4,0.8-0.5
		c0.8-0.6,1.7-1.1,2.5-1.7c0.5-0.4,1.1-0.7,1.6-1c0,0,0,0,0,0c0.9-0.6,1.8-1.1,2.6-1.7c0.5-0.3,1-0.6,1.5-0.9c0,0,0.1,0,0.1-0.1
		c0.5-0.3,1-0.6,1.5-0.9c0,0,0,0,0,0c0.5-0.3,1.1-0.6,1.6-0.9c0.1-0.1,0.3-0.2,0.4-0.2c0.2-0.1,0.4-0.2,0.6-0.3
		c0.8-0.4,1.5-0.9,2.3-1.3c0.6-0.3,1.2-0.7,1.8-1c0,0,0,0,0,0c0,0,0,0,0.1,0h0c0.1-0.1,0.3-0.1,0.4-0.2l0.2-0.1
		c0.1,0,0.1-0.1,0.2-0.1l0,0c1.2-0.7,2.5-1.3,3.7-1.9c0,0,0,0,0,0c0,0,0.1,0,0.1,0c0.2-0.1,0.4-0.2,0.7-0.3c0.3-0.1,0.5-0.2,0.8-0.4
		c0.2-0.1,0.4-0.2,0.5-0.3c0.4-0.2,0.9-0.4,1.3-0.6c0.4-0.2,0.9-0.4,1.3-0.6c0,0,0,0,0.1,0c0.5-0.2,1-0.5,1.5-0.7c0,0,0,0,0.1,0
		c0,0,0,0,0,0c1.1-0.5,2.2-1,3.3-1.5l0,0c0.5-0.2,0.9-0.4,1.3-0.6c1.6-0.6,3.1-1.3,4.7-1.9l0,0c0,0,0,0,0,0c0.1,0,0.2-0.1,0.3-0.1
		c0.1,0,0.2-0.1,0.3-0.1c0,0,0.1,0,0.1,0c1.1-0.4,2.2-0.8,3.3-1.2c0.2-0.1,0.4-0.2,0.7-0.3h0c0.1,0,0.2-0.1,0.3-0.1
		c0.1,0,0.3-0.1,0.4-0.1c0.3-0.1,0.6-0.2,0.9-0.3c0.3-0.1,0.6-0.2,0.9-0.3c0.5-0.2,1-0.3,1.6-0.5c0.3-0.1,0.5-0.2,0.8-0.3
		c0,0,0,0,0,0c0.3-0.1,0.5-0.2,0.7-0.2c0.3-0.1,0.6-0.2,1-0.3c0.1,0,0.3-0.1,0.4-0.1c1-0.3,2-0.6,3.1-0.9c0.5-0.2,1-0.3,1.5-0.4
		c1.6-0.4,3.2-0.9,4.9-1.3c0.1,0,0.3-0.1,0.6-0.1c0,0,0,0,0,0c1.4-0.3,2.9-0.7,4.3-1c0,0,0,0,0,0c0.5-0.1,1.1-0.2,1.6-0.3
		c1.1-0.2,2.3-0.4,3.4-0.7c0,0,0,0,0,0c0.6-0.1,1.2-0.2,1.7-0.3c1.2-0.2,2.3-0.4,3.5-0.6c0.2,0,0.5-0.1,0.7-0.1
		c0.2,0,0.4-0.1,0.7-0.1h0c0,0,0,0,0,0c0,0,0.1,0,0.1,0h0c0.2,0,0.3,0,0.5-0.1c1.5-0.2,3-0.4,4.5-0.5c0,0,0,0,0,0c0.1,0,0.2,0,0.3,0
		h0c1.6-0.2,3.2-0.3,4.7-0.4c0.3,0,0.6,0,0.9,0c0.2,0,0.5,0,0.7-0.1h0c0.6,0,1.2-0.1,1.8-0.1c0.6,0,1.2-0.1,1.8-0.1
		c0.6,0,1.2,0,1.8-0.1c0.4,0,0.8,0,1.1,0c0.6,0,1.1,0,1.7,0c0.2,0,0.5,0,0.7,0c0.5,0,1,0,1.5,0h0.1c0.3,0,0.7,0,1,0
		c1.4,0,2.7,0,4,0.1h0.1c0.8,0,1.5,0.1,2.3,0.1c0.3,0,0.5,0,0.8,0c1,0.1,2,0.1,3.1,0.2c0.3,0,0.6,0,0.9,0.1c1.2,0.1,2.4,0.2,3.6,0.3
		c0.6,0.1,1.3,0.2,2,0.2c1.1,0.1,2.2,0.3,3.2,0.4c0,0,0,0,0,0s0,0,0,0s0,0,0,0c0.1,0,0.1,0,0.2,0c0.3,0,0.6,0.1,0.9,0.1
		c0.3,0,0.6,0.1,0.9,0.1c0.3,0,0.5,0.1,0.8,0.1c0.5,0.1,1.1,0.2,1.6,0.3c0.3,0,0.5,0.1,0.8,0.1c0.7,0.1,1.3,0.2,1.9,0.4
		c0.6,0.1,1.2,0.2,1.7,0.3c0.6,0.1,1.2,0.2,1.7,0.4c0,0,0,0,0.1,0c0.3,0.1,0.7,0.1,1,0.2c0.2,0,0.4,0.1,0.6,0.1c0.1,0,0.1,0,0.2,0
		c0.7,0.2,1.4,0.3,2.1,0.5c0.1,0,0.2,0.1,0.3,0.1c0,0,0,0,0,0c0.5,0.1,1,0.2,1.4,0.4c0.3,0.1,0.6,0.1,0.9,0.2h0l0,0c0,0,0,0,0,0
		c0,0,0,0,0,0c0,0,0.1,0,0.1,0c0.7,0.2,1.4,0.4,2.1,0.6c0.9,0.3,1.8,0.5,2.8,0.8c0.2,0.1,0.4,0.1,0.7,0.2h0c0.7,0.2,1.5,0.4,2.2,0.7
		c0.1,0,0.2,0.1,0.3,0.1c0.4,0.1,0.9,0.3,1.3,0.4c0.3,0.1,0.6,0.2,0.9,0.3c0,0,0,0,0,0c33.3,11.3,61.3,33.7,81,63.6
		c19.7,29.9,31.1,67.1,31.1,107.7c0,7.3-0.4,14.8-1.1,22.3c-5.3,53-29.1,100.4-63.2,134.6C655.6,382.6,611,403.4,564,403.4z"/>
</g>
</svg>
