<?xml version="1.0" encoding="utf-8"?>
<!-- Generator: Adobe Illustrator 21.0.2, SVG Export Plug-In . SVG Version: 6.00 Build 0)  -->
<svg version="1.1" id="Слой_1" xmlns="http://www.w3.org/2000/svg" xmlns:xlink="http://www.w3.org/1999/xlink" x="0px" y="0px"
	 viewBox="0 0 521 62.6" style="enable-background:new 0 0 521 62.6;" xml:space="preserve">
<style type="text/css">
	.st0{fill:#181818;}
	.st1{fill:#2059ED;}
	.st2{fill:#BCC2C9;}
</style>
<g>
	<g>
		<path class="st0" d="M28.5,20.4c-2.5-3.2-6.4-4.8-11.5-4.8c-2.6,0-5,0.6-7.2,1.9c-2.2,1.3-4,3.1-5.2,5.7v-6.5H3.3L0,18.2v43.3h4.7
			V34.7c0-9.9,4-14.8,12-14.8c7.3,0,11,4.6,11,14v27.7h4.6V35.4C32.3,28.6,31,23.6,28.5,20.4z"/>
		<path class="st0" d="M81.5,38.2c0-7.5-1.6-13.1-4.7-16.9c-3.1-3.8-7.2-5.7-12.3-5.7c-5.6,0-10.1,2.1-13.6,6.2
			c-3.4,4.2-5.1,9.9-5.1,17.2c0,6.9,1.7,12.6,5.1,16.9c3.4,4.4,7.9,6.6,13.6,6.6c4.9,0,9.2-1.6,13.2-4.9l-2.5-3.2
			c-3.2,2.4-6.6,3.6-10.4,3.6c-4.1,0-7.4-1.5-9.8-4.4c-2.4-3-3.8-7.2-4.2-12.9h30.7C81.4,40.1,81.5,39.2,81.5,38.2z M50.6,36.6
			c0.3-5.6,1.7-9.7,4.2-12.5c2.5-2.8,5.7-4.2,9.7-4.2c3.2,0,6,1.3,8.5,3.8c2.4,2.5,3.7,6.9,3.7,12.9H50.6z"/>
		<path class="st0" d="M106.1,58.1c-2,0-3.4-0.6-4.1-1.8c-0.7-1.2-1-3-1-5.4V20.9h11.4v-4.2H101V0h-1.3l-3.3,1.5v15.1h-7.6v4.2h7.6
			v31.4c0,6.8,2.8,10.3,8.5,10.3c2.8,0,5.3-0.7,7.4-1.9l0.5-4.9C110.4,57.3,108.2,58.1,106.1,58.1z"/>
	</g>
	<g>
		<path class="st1" d="M160.9,19.5c-3.1-2.6-6.7-4-10.9-4c-5.3,0-9.3,1.7-12.2,5.2V0h-4.1L125,4v57.5h12.7V37.3
			c0-6.3,2.6-9.4,7.9-9.4c2.6,0,4.4,0.7,5.5,2.3c1.1,1.5,1.6,4,1.6,7.3v24h12.7V32.4C165.5,26.4,164,22.2,160.9,19.5z"/>
		<path class="st1" d="M197.2,15.6c-7.3,0-13.7,1.9-19.3,5.6l4,9.7c4.7-3.1,9.6-4.7,14.4-4.7c2.3,0,4.1,0.6,5.3,1.6
			c1.3,1.1,1.9,2.7,1.9,4.7V35c-2.4-1-5.6-1.6-9.8-1.6c-4.8,0-9.1,1.2-12.7,3.7c-3.6,2.5-5.4,6.1-5.4,10.7c0,4.7,1.6,8.4,4.7,10.9
			c3.1,2.5,7.2,3.8,12.2,3.8c4.7,0,8.4-1.5,11.1-4.4v3.3h12.6V33.1C216.3,21.5,209.9,15.6,197.2,15.6z M203.6,48.7
			c-2.7,2.1-5.6,3.2-8.7,3.2c-4.6,0-6.8-1.3-6.8-3.9c0-2.9,2.6-4.3,7.9-4.3c2.8,0,5.3,0.4,7.6,1.1V48.7z"/>
		<path class="st1" d="M289.5,19.6c-3-2.7-7.2-4-12.7-4c-6.3,0-11,2.1-14,6.2c-2-4.1-5.7-6.2-11.3-6.2c-4,0-7.4,1.7-10.3,5.2v-4.1
			h-3.9l-8.8,3.3v41.5h12.7V38c0-3.8,0.5-6.4,1.6-7.9c1-1.5,2.9-2.2,5.7-2.2c2.4,0,4,0.7,5,2.3c0.9,1.5,1.4,4.2,1.4,8.2v23.1h12.7
			V38c0-3.8,0.5-6.4,1.5-7.9c1-1.5,2.9-2.2,5.7-2.2c2.4,0,4.1,0.7,5,2.3c0.9,1.5,1.4,4.2,1.4,8.2v23.1h12.7V33.8
			C293.9,27,292.4,22.3,289.5,19.6z"/>
		<path class="st1" d="M367.5,19.6c-3-2.7-7.2-4-12.6-4c-6.3,0-11,2.1-14,6.2c-2-4.1-5.8-6.2-11.3-6.2c-4,0-7.5,1.7-10.3,5.2v-4.1
			h-3.9l-8.8,3.3v41.5h12.7V38c0-3.8,0.5-6.4,1.5-7.9c1-1.5,2.9-2.2,5.7-2.2c2.4,0,4.1,0.7,5,2.3c0.9,1.5,1.4,4.2,1.4,8.2v23.1h12.7
			V38c0-3.8,0.5-6.4,1.5-7.9c1-1.5,2.9-2.2,5.7-2.2c2.4,0,4.1,0.7,5,2.3c0.9,1.5,1.4,4.2,1.4,8.2v23.1H372V33.8
			C372,27,370.6,22.3,367.5,19.6z"/>
		<path class="st1" d="M424.1,36.8c0-6.9-1.9-12.1-5.6-15.8c-3.7-3.6-8.6-5.5-14.5-5.5c-6.5,0-11.8,2.1-15.6,6.3
			c-3.9,4.2-5.8,9.9-5.8,17.1c0,7.4,1.9,13.2,5.7,17.3c3.8,4.1,9,6.2,15.6,6.2c7.1,0,13-2.7,17.4-8.2L414,47
			c-2.6,3.2-6,4.7-10.1,4.7c-2.5,0-4.6-0.7-6.2-2.1c-1.7-1.4-2.5-3.5-2.7-6.3h28.7C424,41.9,424.1,39.7,424.1,36.8z M395.1,33.8
			c0.3-2.3,1.2-4.2,2.6-5.5c1.5-1.3,3.3-2,5.6-2c5,0,7.9,2.5,8.5,7.5H395.1z"/>
		<path class="st1" d="M455.9,15.6c-2.1,0-3.9,0.6-5.4,1.7c-1.5,1.1-2.5,2.3-3.2,3.4v-4h-3.9l-8.8,3.3v41.5h12.7V37.2
			c0-6.2,2.6-9.3,7.7-9.3c2.9,0,5.6,1,8,3l1.7-11.6C462.3,16.8,459.4,15.6,455.9,15.6z"/>
	</g>
	<g>
		<path class="st2" d="M476.6,38.2l-2.5,1.2v22.1h3.4V38.2H476.6z"/>
		<path class="st2" d="M494.9,47.3c-0.4-0.9-0.9-1.6-1.6-1.9c-0.7-0.4-1.3-0.7-2-0.8c-0.7-0.1-1.4-0.2-2.2-0.2
			c-2.5,0-4.6,0.6-6.3,1.7l1,2.8c1.3-1,2.9-1.5,4.8-1.5c1.2,0,2.2,0.3,2.7,0.8c0.6,0.5,0.8,1.4,0.8,2.7v0.9c-1.1-0.6-2.5-1-4.1-1
			c-1.8,0-3.3,0.5-4.6,1.4c-1.2,1-1.9,2.3-1.9,4.1c0,1.8,0.6,3.2,1.7,4.2c1.1,1,2.5,1.5,4.3,1.5c1.9,0,3.4-0.6,4.6-1.8v1.5h3.3V50.6
			C495.4,49.3,495.2,48.2,494.9,47.3z M492.1,57.1c-1.1,1.2-2.4,1.8-4,1.8c-1.1,0-1.9-0.2-2.5-0.7c-0.6-0.5-0.8-1.1-0.8-1.9
			c0-0.9,0.4-1.5,1-1.9c0.7-0.4,1.6-0.6,2.7-0.6c1.3,0,2.5,0.3,3.6,0.8V57.1z"/>
		<path class="st2" d="M512.4,46.7c-1.3-1.6-3-2.3-5.1-2.3c-1.6,0-3,0.6-4,1.7v-7.8h-0.9l-2.5,1.2v22.1h3.4v-1.3
			c1.1,1.2,2.4,1.7,4,1.7c2.2,0,3.9-0.8,5.1-2.3c1.2-1.5,1.9-3.7,1.9-6.5C514.4,50.4,513.7,48.2,512.4,46.7z M509.9,57.2
			c-0.7,1-1.7,1.5-2.9,1.5c-1.6,0-2.8-0.6-3.5-1.9v-7.3c0.3-0.5,0.8-0.9,1.4-1.3c0.6-0.4,1.3-0.6,2.1-0.6c1.3,0,2.3,0.5,3,1.4
			c0.7,1,1,2.3,1,4.1C510.9,54.8,510.6,56.2,509.9,57.2z"/>
		<path class="st2" d="M520.2,57.8c-0.5-0.5-1.1-0.7-1.7-0.7c-0.7,0-1.3,0.2-1.8,0.7c-0.5,0.5-0.7,1.1-0.7,1.7
			c0,0.7,0.2,1.2,0.7,1.7c0.5,0.5,1.1,0.7,1.8,0.7c0.7,0,1.2-0.2,1.7-0.7c0.5-0.5,0.7-1,0.7-1.7C521,58.8,520.7,58.3,520.2,57.8z"/>
	</g>
</g>
</svg>
