<?xml version="1.0" encoding="utf-8"?>
<!-- Generator: Adobe Illustrator 21.0.2, SVG Export Plug-In . SVG Version: 6.00 Build 0)  -->
<svg version="1.1" id="Слой_1" xmlns="http://www.w3.org/2000/svg" xmlns:xlink="http://www.w3.org/1999/xlink" x="0px" y="0px"
	 viewBox="0 0 512.9 379" style="enable-background:new 0 0 512.9 379;" xml:space="preserve">
<style type="text/css">
	.st0{fill:url(#SVGID_1_);}
	.st1{fill:url(#SVGID_2_);}
	.st2{fill:url(#SVGID_3_);}
	.st3{fill:url(#SVGID_4_);}
	.st4{fill:url(#SVGID_5_);}
	.st5{fill:url(#SVGID_6_);}
	.st6{fill:url(#SVGID_7_);}
	.st7{fill:url(#SVGID_8_);}
	.st8{fill:url(#SVGID_9_);}
	.st9{fill:url(#SVGID_10_);}
	.st10{fill:url(#SVGID_11_);}
	.st11{fill:url(#SVGID_12_);}
	.st12{fill:url(#SVGID_13_);}
	.st13{fill:url(#SVGID_14_);}
	.st14{fill:url(#SVGID_15_);}
	.st15{fill:url(#SVGID_16_);}
	.st16{fill:url(#SVGID_17_);}
	.st17{fill:url(#SVGID_18_);}
	.st18{fill:url(#SVGID_19_);}
	.st19{fill:url(#SVGID_20_);}
	.st20{fill:url(#SVGID_21_);}
	.st21{fill:url(#SVGID_22_);}
	.st22{fill:url(#SVGID_23_);}
	.st23{fill:url(#SVGID_24_);}
	.st24{fill:url(#SVGID_25_);}
	.st25{fill:url(#SVGID_26_);}
	.st26{fill:url(#SVGID_27_);}
</style>
<g>
	<linearGradient id="SVGID_1_" gradientUnits="userSpaceOnUse" x1="639.3892" y1="173.9202" x2="545.0509" y2="243.9648">
		<stop  offset="0" style="stop-color:#FFE1C8"/>
		<stop  offset="1" style="stop-color:#B5C4EB"/>
	</linearGradient>
	<path class="st0" d="M505.5,273.3C505.5,273.3,505.5,273.3,505.5,273.3C505.5,273.4,505.5,273.4,505.5,273.3L505.5,273.3z"/>
	<linearGradient id="SVGID_2_" gradientUnits="userSpaceOnUse" x1="517.8235" y1="277.0926" x2="482.1681" y2="303.5662">
		<stop  offset="0" style="stop-color:#FFE1C8"/>
		<stop  offset="1" style="stop-color:#B5C4EB"/>
	</linearGradient>
	<polygon class="st1" points="500,290.3 500,290.3 500,290.3 	"/>
	<linearGradient id="SVGID_3_" gradientUnits="userSpaceOnUse" x1="540.6587" y1="257.319" x2="462.4987" y2="315.3515">
		<stop  offset="0" style="stop-color:#FFE1C8"/>
		<stop  offset="1" style="stop-color:#B5C4EB"/>
	</linearGradient>
	<polygon class="st2" points="501.6,286.3 501.6,286.3 501.6,286.3 	"/>
	<linearGradient id="SVGID_4_" gradientUnits="userSpaceOnUse" x1="618.5594" y1="145.866" x2="546.1976" y2="199.5935">
		<stop  offset="0" style="stop-color:#FFE1C8"/>
		<stop  offset="1" style="stop-color:#B5C4EB"/>
	</linearGradient>
	<polygon class="st3" points="512.5,224.6 512.5,224.6 512.5,224.6 	"/>
	<linearGradient id="SVGID_5_" gradientUnits="userSpaceOnUse" x1="550.8462" y1="54.6677" x2="40.8462" y2="433.3344">
		<stop  offset="0" style="stop-color:#FFE1C8"/>
		<stop  offset="1" style="stop-color:#B5C4EB"/>
	</linearGradient>
	<path class="st4" d="M512.8,213.1L512.8,213.1c-0.1-2.7-0.3-5.4-0.6-8.1c-0.8-6.8-2.2-13.6-4.2-20.3l0,0c-1-3.2-2.1-6.4-3.3-9.5
		c-0.4-0.9-0.8-1.9-1.2-2.8l0,0c-5.6-13.1-13.6-25.7-23.7-37.4c-5.2-6-11-11.8-17.4-17.3l0,0c-5.3-4.6-11-9-17.1-13.2
		c-1.9-1.3-3.9-2.6-5.9-3.9l0,0c-2.8-1.8-5.7-3.5-8.6-5.2c-8.7-5-17.9-9.5-27.7-13.5c-3.2-1.3-6.4-2.5-9.7-3.7l-0.1,0l0,0
		c-0.1-0.1-0.3-0.1-0.5-0.2l0,0l-3.3-1.2l-33.8-12.1l-1.2-0.4l-18.2-6.5L316,50.3l-7.5-2.7l-25.1-9l0,0l-3.5-1.3l-2,3.7l-11.1,20
		l0,0l0,0.1l-11.1,20l-1.8,3.2l0,0l-9.4,16.9l-2.2,4l-0.6,3.9l-0.7,5.2l-2.1,14.8l-1.7,11.9l15.4,5.5l17.7,6.3l18.9,6.7l1.8,0.6l0,0
		l26.7,9.5L330,174l12.2,4.4l8,2.8l0,0c4.9,1.7,9.4,3.7,13.7,6c2.7,1.4,5.3,2.9,7.8,4.5l0,0c2.5,1.6,4.9,3.3,7.2,5.1
		c6,4.7,11,10,15,15.7c1,1.5,2,3,2.9,4.5l0,0l0,0c2.3,3.9,4.1,7.9,5.4,12v0.5l0.2,0.2c0.3,1,0.6,2,0.8,2.9c-0.9,1.5-1.8,3-2.8,4.4
		c-2.5,3.6-5.5,6.8-8.9,9.8c-2,1.8-4.2,3.5-6.6,5.1l0,0c-0.8,0.6-1.7,1.1-2.6,1.7l0,0c-2.7,1.6-5.5,3.2-8.4,4.5
		c-5,2.3-10.4,4.3-16,5.7l0,0l0,0c-0.1,0-0.2,0.1-0.4,0.1l0,0l0,0c-1.6,0.4-3.1,0.8-4.7,1.1l0,0c-2.3,0.5-4.6,0.9-6.9,1.2
		c-5.1,0.7-10.3,1.1-15.5,1.1c-0.9,0-1.9,0-2.8,0l0,0c-0.3,0-0.5,0-0.6,0l0,0h0c-0.7,0-1.3,0-2-0.1h0c-9.5-0.4-18.9-2-28.3-4.9l0,0
		c-1.8-0.5-3.6-1.1-5.4-1.8l0,0L289,260l-5.7-2l-25.3-9l-16.4-5.9l-11.5-4.1l-10.8-3.9l-25-8.9l-13.9-5l-0.8-0.3l-1.6-0.6l-1.5,2.6
		l0,0l-10.2,18.4l-2.6,4.7l-8.5,15.3l-3,5.5l-1.3,2.3l1.7,1l-1.7-1l0,0L140.4,288l-5,35.8l97.6,34.9l0,0l2.9,1.1l12.5,4.5
		c0.2,0.1,0.3,0.1,0.5,0.2l0,0l0,0c0.5,0.2,1.1,0.4,1.6,0.5h0c0.9,0.3,1.9,0.7,2.8,1c0.7,0.2,1.3,0.4,2,0.6l0,0
		c0.9,0.3,1.8,0.6,2.7,0.9l0,0c0.7,0.2,1.4,0.4,2,0.6l0,0c0.9,0.3,1.8,0.5,2.7,0.8l0,0c0.7,0.2,1.4,0.4,2.1,0.6h0
		c0.9,0.3,1.7,0.5,2.6,0.7l0,0c0.7,0.2,1.4,0.4,2.2,0.6l0,0c0,0,0.1,0,0.1,0l1.2,0.3c0.5,0.1,0.9,0.2,1.3,0.3l0,0
		c0.7,0.2,1.5,0.4,2.2,0.5l0,0c0.9,0.2,1.7,0.4,2.6,0.6l0,0l0,0c0.7,0.2,1.4,0.3,2.2,0.5l0,0c0.9,0.2,1.7,0.4,2.6,0.6
		c0.7,0.2,1.5,0.3,2.2,0.5v0c0.4,0.1,0.7,0.1,1,0.2l0,0c0.5,0.1,1,0.2,1.5,0.3l0,0c0.3,0.1,0.7,0.1,1.1,0.2l0,0c0,0,0,0,0,0
		c0,0,0,0,0,0l0,0c0.4,0.1,0.8,0.1,1.2,0.2l0,0c0.7,0.1,1.3,0.2,2,0.4l0,0c0.8,0.1,1.7,0.3,2.5,0.4c0.7,0.1,1.3,0.2,2,0.3l0,0
		c0.8,0.1,1.7,0.3,2.5,0.4l0.1,0l0,0c0.6,0.1,1.3,0.2,2,0.3l0,0c0.8,0.1,1.7,0.2,2.5,0.3l0,0c0.7,0.1,1.3,0.2,2,0.3l0,0
		c0.9,0.1,1.7,0.2,2.6,0.3l0,0c0.6,0.1,1.3,0.1,1.9,0.2l0,0c0.9,0.1,1.8,0.2,2.7,0.3l0,0c0.6,0,1.2,0.1,1.8,0.2l0,0
		c1,0.1,2,0.2,2.9,0.2l0,0c0.5,0,1,0.1,1.5,0.1l0,0l0,0c1.5,0.1,3,0.2,4.5,0.2l0,0c0.4,0,0.8,0,1.2,0.1l0,0l0,0c0.3,0,0.6,0,1,0l0,0
		c0.2,0,0.4,0,0.5,0l0,0l0,0c0.9,0,1.7,0.1,2.6,0.1h0c0.7,0,1.5,0,2.2,0l0,0c0.9,0,1.7,0,2.6,0h0c0.1,0,0.2,0,0.3,0
		c0.6,0,1.3,0,1.9,0c0.8,0,1.7,0,2.6,0h0c0.7,0,1.4,0,2.2,0v0c0.8,0,1.7,0,2.5-0.1c0.7,0,1.4,0,2.1-0.1l0,0l0,0
		c0.8,0,1.7-0.1,2.5-0.1l0,0c0.7,0,1.4-0.1,2.1-0.1l0,0c0.9-0.1,1.7-0.1,2.5-0.2l0,0c0.7,0,1.4-0.1,2.1-0.1l0,0
		c0.8-0.1,1.7-0.1,2.5-0.2v0c0.7-0.1,1.4-0.1,2.1-0.2l0,0c0.3,0,0.6-0.1,0.9-0.1l0,0l0,0c0.2,0,0.3,0,0.4,0l0.1,0l0.1,0
		c0.4,0,0.7-0.1,1-0.1l0,0l0,0c0.4-0.1,0.9-0.1,1.4-0.2l0,0c0.3,0,0.5-0.1,0.6-0.1l0,0l0,0c0.6-0.1,1.1-0.1,1.7-0.2l0,0
		c0.8-0.1,1.7-0.2,2.5-0.3c0.6-0.1,1.2-0.2,1.8-0.2l0,0c0.8-0.1,1.6-0.2,2.4-0.3c0.6-0.1,1.2-0.2,1.8-0.3l0,0l0,0
		c0.8-0.1,1.6-0.3,2.3-0.4l0,0c0.6-0.1,1.2-0.2,1.9-0.3l0,0c0.8-0.1,1.5-0.3,2.3-0.4l0,0c0.6-0.1,1.2-0.2,1.7-0.3l0,0
		c0.8-0.2,1.6-0.3,2.4-0.5c0.2,0,0.3-0.1,0.5-0.1l0,0c0.4-0.1,0.8-0.2,1.2-0.3l0,0c0.9-0.2,1.8-0.4,2.6-0.6h0
		c0.4-0.1,0.9-0.2,1.4-0.3l0,0l0.1,0l0,0c1.3-0.3,2.6-0.6,3.9-1c1.6-0.4,3.1-0.8,4.7-1.3l0,0c0,0,0,0,0,0c0,0,0,0,0,0l0,0
		c0.5-0.1,1-0.3,1.4-0.4l0,0c1.1-0.3,2.2-0.6,3.3-1l0,0c0.5-0.2,1.1-0.3,1.6-0.5l0,0c0,0,0,0,0,0c0,0,0,0,0,0l0,0
		c0.8-0.3,1.7-0.5,2.5-0.8c0.2-0.1,0.5-0.2,0.7-0.2l0,0c0.5-0.2,1-0.3,1.4-0.5l0,0c1.4-0.5,2.8-1,4.2-1.5l0.2-0.1h0l0,0l0,0l0.1,0
		c1.1-0.4,2.1-0.8,3.2-1.2l0,0c0.5-0.2,1.1-0.4,1.6-0.6l0,0c0.5-0.2,0.9-0.4,1.3-0.5l0,0l0,0c1.2-0.5,2.4-1,3.6-1.5l0,0l0,0
		c0.4-0.2,0.8-0.3,1.2-0.5l0,0c1.1-0.5,2.3-1,3.4-1.5l0,0c0.4-0.2,0.8-0.4,1.2-0.6h0c0.3-0.1,0.6-0.3,0.8-0.4l0,0
		c1.3-0.6,2.5-1.2,3.8-1.8l0,0c0.4-0.2,0.9-0.4,1.3-0.7l0,0c1.2-0.6,2.4-1.2,3.6-1.9l0,0c0.3-0.1,0.6-0.3,0.8-0.5
		c0.5-0.3,1.1-0.6,1.6-0.9l0,0c0.9-0.5,1.8-1,2.7-1.5l0,0c0.4-0.2,0.7-0.4,1.1-0.6l0,0c0.8-0.5,1.6-1,2.4-1.5l0,0l0,0
		c0.3-0.2,0.5-0.3,0.8-0.5l0,0l0,0c0.4-0.2,0.8-0.5,1.2-0.8c1.4-0.9,2.7-1.8,4.1-2.7c1-0.7,2-1.4,3-2.1l0,0l0,0
		c0.3-0.2,0.6-0.5,0.9-0.7l0,0l0,0c0.7-0.5,1.3-1,2-1.5l0,0c0.4-0.3,0.7-0.6,1.1-0.8l0,0l0,0c0.6-0.5,1.2-0.9,1.8-1.4l0,0
		c0.2-0.1,0.3-0.2,0.4-0.3l0,0c0.2-0.2,0.5-0.4,0.7-0.6l0,0c0.5-0.4,1-0.8,1.4-1.2l0,0c0.1-0.1,0.2-0.2,0.3-0.3l0,0
		c0.4-0.3,0.7-0.6,1.1-0.9l0,0c0.6-0.5,1.2-1.1,1.8-1.6l0,0c0.3-0.3,0.6-0.5,0.9-0.8l0,0c0.8-0.7,1.5-1.3,2.2-2l0,0
		c0.2-0.1,0.3-0.3,0.5-0.4l0,0c0,0,0,0,0,0c0,0,0,0,0,0h0c0.8-0.8,1.6-1.5,2.4-2.3l0,0l0.1-0.1c1-0.9,1.9-1.9,2.8-2.9
		c0.2-0.2,0.3-0.4,0.4-0.5l0,0c0.8-0.8,1.5-1.7,2.3-2.5l0,0c0,0,0,0,0,0c0,0,0,0,0,0l0,0c0.2-0.2,0.4-0.4,0.6-0.7l0,0
		c0.1-0.2,0.3-0.3,0.3-0.4l0,0l0,0c0.2-0.2,0.3-0.4,0.5-0.6l0,0c0.4-0.5,0.8-0.9,1.2-1.4l0,0c0.4-0.4,0.7-0.8,1-1.2l0,0l0,0
		c0.5-0.6,1-1.3,1.5-1.9l0,0c0.3-0.4,0.7-0.9,1-1.3l0,0c0.5-0.6,1-1.3,1.5-2c0.3-0.4,0.6-0.9,0.9-1.3l0,0c0.5-0.7,0.9-1.3,1.4-2
		l-0.2,1.4l5.3-9.7c0,0,0,0,0,0l0.2-0.3l0,0c0.4-0.6,0.7-1.3,1-1.9l0,0c0.2-0.4,0.4-0.8,0.6-1.2l0,0c0-0.1,0.1-0.3,0.3-0.5l0,0
		c0.6-1.1,1.1-2.2,1.6-3.4h0l0,0c0,0,0.1-0.1,0.1-0.3l0,0c0.1-0.2,0.1-0.3,0.2-0.4l0,0l0,0c0.4-0.9,0.8-1.8,1.2-2.8l0.1-0.2l0,0l0,0
		c0.4-1,0.8-2,1.2-3l0,0c0,0,0,0,0,0c0,0,0,0,0-0.1h0c0.1-0.3,0.2-0.5,0.3-0.7l0,0c0.3-0.9,0.7-1.8,1-2.7l0,0l0,0l0,0
		c0,0,0-0.1,0.1-0.2h0c0.4-1,0.7-2,1-3l0,0c0.1-0.2,0.1-0.5,0.2-0.7h0c0.3-0.9,0.5-1.8,0.8-2.7c0.1-0.2,0.1-0.3,0.1-0.3l0,0l0,0
		c0.3-1,0.5-2,0.7-3c0.1-0.3,0.1-0.5,0.2-0.7l0,0c0-0.2,0.1-0.4,0.1-0.6h0c0.1-0.7,0.3-1.4,0.4-2.1l0,0l0,0c0-0.1,0.1-0.3,0.1-0.5
		l0,0c0.2-1,0.4-2,0.5-3.1l0-0.1l0-0.1h0l0-0.1l0,0l0,0c0.1-0.5,0.2-1,0.2-1.5l0,0l3.4-24.3l1.2-8.5h0c0-0.3,0.1-0.6,0.1-1h0
		c0,0,0,0,0,0c0,0,0,0,0,0h0c0.3-2.1,0.5-4.1,0.7-6.2c0.2-2.7,0.3-5.4,0.3-8.1C512.9,215.4,512.8,214.2,512.8,213.1z M428.9,98.7
		c2.9,1.7,5.7,3.4,8.4,5.1l0,0c2,1.2,3.9,2.5,5.8,3.8c5.9,4.1,11.5,8.4,16.7,12.9l0,0c6.2,5.4,11.9,11.1,17,16.9
		c9.9,11.5,17.7,23.7,23.1,36.4l0,0c0.4,0.9,0.8,1.8,1.1,2.7c1.2,3,2.3,6.1,3.2,9.2c1.5,5,2.7,10.1,3.5,15.2L394.3,82.6
		c2.5,0.9,4.9,1.9,7.4,2.8C411.3,89.3,420.4,93.8,428.9,98.7z M314.7,54.1l20.6,7.3l1.7,0.6l169.4,177c0,0,0,0.1,0,0.1l0,0
		c-0.1,0.3-0.1,0.5-0.2,0.8c-0.2,0.7-0.4,1.5-0.6,2.2l0,0c-0.1,0.4-0.2,0.8-0.3,1.2l0,0l0,0c-0.2,0.7-0.4,1.3-0.6,2l0,0l0,0
		c-0.3,1-0.6,1.9-0.9,2.9l0,0l0,0l0,0l0,0l0,0c-0.1,0.2-0.1,0.4-0.2,0.7l0,0.1l0,0c-0.2,0.5-0.3,0.9-0.5,1.3l0,0l0,0
		c0,0.1-0.1,0.2-0.1,0.3c0,0.1-0.1,0.2-0.1,0.3l0,0l0,0l0,0l0,0c-0.1,0.3-0.2,0.5-0.3,0.8l0,0l0,0c-0.2,0.5-0.4,0.9-0.5,1.4l0,0
		c-0.1,0.2-0.1,0.4-0.2,0.5c-0.1,0.3-0.2,0.5-0.3,0.8l0,0l-0.2,0.4c-0.4,0.9-0.7,1.7-1.1,2.6c-0.3,0.6-0.6,1.3-0.9,1.9l0,0l0,0l0,0
		c-0.2,0.3-0.3,0.7-0.5,1l0,0l0,0c-0.4,0.8-0.8,1.7-1.3,2.5l0,0l0,0l0,0L288,44.5l19.3,6.9L314.7,54.1z M510.1,240.1L510.1,240.1
		C510.1,240.1,510.1,240.1,510.1,240.1C510.1,240.1,510.1,240.1,510.1,240.1z M498.8,282.3c-0.3,0.9-0.6,1.8-1,2.7
		c-0.1,0.2-0.2,0.5-0.3,0.6l0,0l0,0c-0.3,0.7-0.6,1.4-0.8,2.1l2.5-17.7l0,0l0.1-0.9l0.3-2.1l0.1-0.1v0c0.1-0.1,0.1-0.3,0.2-0.4h0
		c0.1-0.2,0.2-0.5,0.4-0.7h0c0,0,0,0,0,0h0c0.2-0.3,0.3-0.6,0.4-0.8l0,0l0.1-0.2l0,0h0l0,0c0.5-0.9,0.9-1.8,1.3-2.6h0c0,0,0,0,0,0
		c0,0,0,0,0,0h0c0.2-0.3,0.3-0.7,0.5-1h0c0,0,0,0,0,0l0,0c0,0,0,0,0,0c0,0,0,0,0,0h0c0.3-0.7,0.6-1.3,0.9-2l0,0
		c0.1-0.3,0.3-0.6,0.4-0.9l-0.8,5.6l0,0c-0.1,0.5-0.1,1-0.2,1.4c0,0.1,0,0.2-0.1,0.3h0c-0.2,1-0.3,2-0.5,2.9l0,0
		c0,0.1-0.1,0.3-0.1,0.4l0,0c-0.1,0.7-0.3,1.4-0.4,2.1l0,0l0,0c0,0.1-0.1,0.3-0.1,0.4l0,0c-0.1,0.3-0.1,0.5-0.2,0.7l0,0
		c-0.2,1-0.5,2-0.7,2.9c0,0.1-0.1,0.2-0.1,0.3l0,0.1l0,0.1c-0.2,0.9-0.5,1.8-0.7,2.6l0,0c-0.1,0.2-0.1,0.5-0.2,0.7
		c-0.3,1-0.6,2-0.9,2.9l0,0l0,0C498.8,282.1,498.8,282.2,498.8,282.3L498.8,282.3z M281.4,43l0.4-0.7l0.3,0.1l0,0l1.7,0.6
		l210.6,220.2l-6.6-2.3l0,0l-5-1.8L450,247.3v0l-2.9-1l0,0l-1.7-0.6l-32.2-33.7c0-0.2,0-0.4,0-0.6c0-0.5,0-1.1,0-1.6
		c0-1.6-0.1-3.2-0.2-4.8l0,0c-0.1-0.6-0.1-1.1-0.2-1.7h0c0,0,0,0,0,0c0,0,0,0,0,0h0c0-0.2-0.1-0.4-0.1-0.5l-0.1-0.7l0,0
		c-1.4-8.9-5.1-17.7-10.8-25.7c-3.7-5.3-8.3-10.2-13.6-14.7c-0.7-0.6-1.4-1.2-2.2-1.8l0,0c-5-4-10.5-7.5-16.7-10.6
		c-4.1-2.1-8.5-4-13.1-5.6l-11.1-4l0,0l-0.1,0l-1.5-0.5l-73.1-76.5L281.4,43z M412.3,220c0.4-1.7,0.6-3.5,0.8-5.2l28.2,29.5
		l-5.8-2.1l-25.5-9.1l-1.9-0.7c0-0.1,0.1-0.1,0.1-0.2C410,228.2,411.4,224.1,412.3,220z M269.4,64.5l69.9,73.1l-10-3.6l-31.7-11.3
		l-5.7-2l0,0l-1.4-0.5l0,0l-0.2-0.1l-32.8-34.3l1.5-2.8L269.4,64.5z M256.5,87.7l29.7,31l-34.3-12.2l0,0l-1.6-0.6l-3.3-1.2l0.9-1.6
		L256.5,87.7z M381.3,193.7c-2.4-1.9-4.9-3.7-7.5-5.4l0,0c-2.6-1.7-5.3-3.2-8.1-4.7c-4.4-2.3-9.1-4.4-14.2-6.2l-7.9-2.8l-12.2-4.4
		l-12.4-4.4l-25.9-9.2l0,0l-2.6-0.9l-18.9-6.7l-17.7-6.3l-12.3-4.4l1.2-8.6l2.1-14.8l0.7-5.2l0.2-1.1l3.2,1.1l1.6,0.6l0,0l38.7,13.8
		l0,0l1.4,0.5l0,0l5.7,2l31.7,11.3l15.7,5.6l0.1,0.1l0,0l11.1,4c4.5,1.6,8.7,3.4,12.6,5.4c5.9,3,11.2,6.4,16,10.2
		c0.7,0.6,1.4,1.1,2.1,1.7l0,0c5.1,4.3,9.4,9,13,13.9c5.5,7.8,9,16.2,10.2,24.6l0.1,0.7l0,0c0.1,0.5,0.1,1,0.2,1.5
		c0.1,1.5,0.2,2.9,0.2,4.4c0,0.5,0,1,0,1.5l0,0c-0.1,2.6-0.4,5.2-0.9,7.8l0,0c-0.6,2.8-1.4,5.5-2.5,8.2c-1.4-4.2-3.3-8.4-5.6-12.4
		c-1-1.6-2-3.2-3.1-4.8C392.8,204.3,387.5,198.7,381.3,193.7z M154.4,271.1L154.4,271.1l1.3-2.4l3-5.5l8.5-15.3l2.6-4.7l10-18
		l13.1,4.7l25,8.9l10.8,3.9l11.5,4.1l16.4,5.9l25.3,9l5.7,2l2.1,0.7l0,0c1.8,0.7,3.7,1.3,5.6,1.8l0,0c9.7,2.9,19.5,4.6,29.3,5h0
		c0.7,0,1.4,0.1,2.1,0.1v0c0.3,0,0.5,0,0.7,0l0,0c1,0,1.9,0,2.9,0c5.4,0,10.8-0.4,16-1.1c2.4-0.3,4.8-0.7,7.1-1.2l0,0c0,0,0,0,0,0
		c0,0,0,0,0,0l0,0c1.6-0.3,3.3-0.7,4.9-1.1l0,0c0,0,0,0,0,0c0,0,0,0,0,0l0,0c0.2,0,0.3-0.1,0.5-0.1l0,0c0,0,0,0,0.1,0c0,0,0,0,0,0
		l0,0c5.9-1.5,11.4-3.5,16.6-5.9c3.1-1.4,6-3,8.8-4.8l0,0c0.9-0.6,1.8-1.2,2.7-1.8l0,0c2.5-1.7,4.8-3.5,7-5.4
		c3.6-3.2,6.8-6.7,9.5-10.5c0.8-1.2,1.6-2.4,2.3-3.6l2.6,0.9l25.5,9.1l11.7,4.2l0,0l0.2,0.1v0l35.5,12.7l4.1,1.5l0,0l0.5,0.2
		l8.7,3.1c-0.7,1.1-1.3,2.3-2,3.4l0,0c-3.2,5.1-6.8,9.9-10.9,14.5l0,0l0,0c-0.7,0.9-1.5,1.7-2.3,2.5l0,0c-4.7,5.1-9.9,9.8-15.5,14.2
		l0,0c-0.1,0.1-0.2,0.2-0.4,0.3l0,0c-2.6,2-5.2,3.9-7.9,5.8c-3,2-6,3.9-9.1,5.8l0,0c-1.4,0.8-2.8,1.6-4.2,2.4l0,0
		c-4.8,2.7-9.9,5.1-15.1,7.4l0,0c-2.9,1.3-5.9,2.5-9,3.6c-3.9,1.5-7.9,2.8-11.9,4l0,0c-3.1,1-6.3,1.9-9.5,2.7
		c-1.8,0.5-3.7,0.9-5.5,1.3l0,0c-2.5,0.6-5.1,1.1-7.6,1.6l0,0c-7.3,1.4-14.9,2.5-22.5,3.2c-0.7,0.1-1.4,0.1-2,0.2l0,0
		c-6.7,0.6-13.5,0.8-20.3,0.8c-2.1,0-4.2,0-6.3-0.1h0c-1.8,0-3.6-0.1-5.4-0.2l0,0h0c-7.9-0.4-15.8-1.1-23.8-2.3l0,0
		c-5.2-0.7-10.4-1.6-15.6-2.7c-5.8-1.2-11.6-2.6-17.3-4.2c-5.4-1.5-10.8-3.2-16.1-5.1l-15.3-5.4l0,0l-6.5-2.3L193.9,305l-8.3-3
		l-40.4-14.5L154.4,271.1z M489.2,302.7c-0.2,0.3-0.4,0.7-0.7,1.1l0,0c-0.5,0.7-0.9,1.5-1.4,2.2c-0.3,0.4-0.6,0.8-0.8,1.2l-0.1,0.1
		l0.1-0.1c-0.4,0.7-0.9,1.3-1.3,2l0,0c-0.3,0.4-0.6,0.9-0.9,1.3c-0.5,0.6-0.9,1.3-1.4,1.9l0,0c-0.3,0.4-0.6,0.9-1,1.3
		c-0.5,0.6-1,1.3-1.5,1.9l0,0c-0.4,0.4-0.7,0.8-1,1.2l0,0c-0.4,0.5-0.8,0.9-1.2,1.4l0,0c-0.2,0.2-0.3,0.4-0.5,0.6
		c-0.1,0.1-0.2,0.2-0.3,0.3l0,0l0,0c-0.2,0.2-0.3,0.4-0.5,0.6l0,0l0,0c-0.7,0.8-1.5,1.6-2.2,2.5l0,0c-0.2,0.2-0.3,0.4-0.4,0.5
		c-0.9,1-1.8,1.9-2.8,2.8l0,0l-0.1,0.1c-0.8,0.8-1.5,1.5-2.3,2.2l0,0l0,0c-0.1,0.1-0.2,0.2-0.4,0.3l0,0l0,0c-0.7,0.7-1.4,1.3-2.1,2
		h0c-0.3,0.3-0.6,0.5-0.9,0.8h0c-0.6,0.5-1.2,1-1.7,1.5l0,0c-0.3,0.3-0.7,0.6-1,0.9l-0.1,0l0.1-0.1c-0.1,0.1-0.2,0.2-0.3,0.3l0,0
		c-0.5,0.4-0.9,0.8-1.4,1.1l0,0l0,0c-0.2,0.1-0.4,0.3-0.6,0.5l0,0c-0.2,0.1-0.3,0.3-0.4,0.3l0,0c-0.6,0.5-1.2,0.9-1.8,1.4
		c-0.4,0.3-0.7,0.6-1.1,0.8l-0.1,0.1l0.1,0c-0.6,0.5-1.3,1-2,1.5l0,0c-0.3,0.2-0.6,0.4-0.9,0.7h0c-1,0.7-2,1.4-3,2.1
		c-1.3,0.9-2.6,1.8-4,2.6c-0.4,0.2-0.8,0.5-1.2,0.7l0,0c-0.3,0.2-0.5,0.3-0.8,0.5h0c-0.8,0.5-1.6,1-2.3,1.4l0,0
		c-0.4,0.2-0.7,0.4-1.1,0.6l0,0c-0.8,0.5-1.7,1-2.6,1.5l0,0l0,0c-0.5,0.3-1,0.6-1.5,0.9c-0.3,0.1-0.6,0.3-0.8,0.4l0,0
		c-1.1,0.6-2.3,1.2-3.5,1.8c-0.4,0.2-0.9,0.4-1.3,0.7l0,0c-1.2,0.6-2.4,1.2-3.7,1.8l0,0c-0.3,0.1-0.5,0.3-0.7,0.3l0,0l0,0
		c-0.4,0.2-0.8,0.4-1.2,0.5l0,0l0,0c-1.1,0.5-2.2,1-3.3,1.5l0,0c-0.4,0.2-0.8,0.3-1.2,0.5h0c-1.2,0.5-2.4,1-3.6,1.5
		c-0.5,0.2-0.9,0.4-1.3,0.5l0,0c-0.5,0.2-1.1,0.4-1.6,0.6l0,0c-1,0.4-2,0.8-3.1,1.2l-0.2,0.1l0,0l0,0c-1.4,0.5-2.8,1-4.2,1.5l0,0
		c-0.5,0.2-1,0.3-1.4,0.5l0,0c-0.2,0.1-0.5,0.2-0.7,0.2c-0.8,0.3-1.6,0.5-2.4,0.8l0,0l0,0c-0.5,0.2-1,0.3-1.6,0.5l0,0
		c-1.1,0.3-2.1,0.6-3.2,0.9l0,0c-0.5,0.1-0.9,0.3-1.4,0.4l0,0c-1.5,0.4-3.1,0.8-4.6,1.2c-1.3,0.3-2.6,0.6-3.8,0.9l-0.1,0l0,0
		c-0.4,0.1-0.9,0.2-1.3,0.3l0,0c-0.9,0.2-1.7,0.4-2.6,0.6l-0.1,0l0,0c-0.4,0.1-0.8,0.2-1.2,0.2l0,0c-0.2,0-0.3,0.1-0.4,0.1l0,0l0,0
		c-0.8,0.2-1.5,0.3-2.3,0.5l0,0c-0.6,0.1-1.2,0.2-1.8,0.3c-0.8,0.1-1.5,0.3-2.3,0.4l0,0c-0.6,0.1-1.2,0.2-1.8,0.3l0,0
		c-0.8,0.1-1.5,0.3-2.3,0.4c-0.6,0.1-1.2,0.2-1.8,0.3l0,0c-0.8,0.1-1.5,0.2-2.3,0.3l0,0c-0.6,0.1-1.2,0.2-1.8,0.3
		c-0.8,0.1-1.6,0.2-2.4,0.3l0,0c-0.6,0.1-1.1,0.1-1.7,0.2l0,0c-0.2,0-0.4,0.1-0.6,0.1l0,0l0,0c-0.4,0.1-0.9,0.1-1.5,0.2l0,0
		c-0.4,0-0.7,0.1-1,0.1c-0.2,0-0.4,0-0.5,0.1c-0.3,0-0.6,0.1-0.9,0.1c-0.7,0.1-1.4,0.1-2.1,0.2l0,0c-0.8,0.1-1.6,0.1-2.4,0.2l0,0
		c-0.7,0-1.4,0.1-2.1,0.1c-0.8,0.1-1.7,0.1-2.5,0.2l0,0c-0.7,0-1.4,0.1-2.1,0.1l0,0c-0.8,0-1.6,0.1-2.5,0.1c-0.7,0-1.4,0.1-2.1,0.1
		l0,0c-0.8,0-1.6,0-2.5,0.1h0l0,0c-0.7,0-1.4,0-2.1,0h0c-0.8,0-1.7,0-2.5,0c-0.6,0-1.3,0-1.9,0c-0.1,0-0.2,0-0.2,0
		c-0.8,0-1.7,0-2.5,0l0,0c-0.7,0-1.4,0-2.1,0h0c-0.8,0-1.7,0-2.5-0.1l0,0c-0.2,0-0.4,0-0.5,0l0,0l0,0c-0.3,0-0.6,0-1,0
		c-0.4,0-0.8,0-1.2-0.1l0,0c-1.5-0.1-2.9-0.1-4.4-0.2c-0.5,0-1-0.1-1.5-0.1v0c-1-0.1-1.9-0.1-2.9-0.2l0,0c-0.6,0-1.2-0.1-1.8-0.2
		l0,0c-0.9-0.1-1.8-0.2-2.6-0.2l0,0c-0.6-0.1-1.3-0.1-1.9-0.2l0,0c-0.8-0.1-1.7-0.2-2.5-0.3c-0.7-0.1-1.3-0.2-1.9-0.2l0,0l0,0
		c-0.8-0.1-1.6-0.2-2.5-0.3l0,0c-0.7-0.1-1.3-0.2-2-0.3c-0.8-0.1-1.6-0.2-2.5-0.4l-0.1,0l0,0c-0.7-0.1-1.3-0.2-2-0.3l0,0
		c-0.8-0.1-1.6-0.3-2.4-0.4l0,0c-0.6-0.1-1.3-0.2-2-0.3l0,0c-0.4-0.1-0.8-0.1-1.1-0.2l0,0c-0.3-0.1-0.7-0.1-1.1-0.2h0
		c-0.5-0.1-1-0.2-1.5-0.3l0,0l0,0c-0.3-0.1-0.6-0.1-0.9-0.2l0,0l0,0c-0.7-0.1-1.4-0.3-2.1-0.4l0,0c-0.9-0.2-1.7-0.4-2.5-0.5l0,0
		c-0.7-0.2-1.4-0.3-2.2-0.5l0,0c-0.9-0.2-1.7-0.4-2.5-0.6l0,0c-0.6-0.1-1.3-0.3-1.9-0.5v0l-1.5-0.4c-0.4-0.1-0.9-0.2-1.3-0.3l0,0
		l0,0c-0.7-0.2-1.4-0.4-2.1-0.5l0,0c-0.9-0.2-1.7-0.5-2.6-0.7l0,0c-0.7-0.2-1.4-0.4-2.1-0.6l0,0c-0.9-0.3-1.8-0.5-2.6-0.8l0,0
		c-0.7-0.2-1.4-0.4-2-0.6l0,0c-0.9-0.3-1.8-0.6-2.7-0.9l0,0c-0.7-0.2-1.3-0.4-1.9-0.6l0,0c-0.9-0.3-1.8-0.6-2.8-1l0,0l0,0
		c-0.5-0.2-1.1-0.4-1.6-0.5c-0.2-0.1-0.3-0.1-0.5-0.2l0,0l-12.5-4.5l-2.1-0.7l0,0l-95.3-34.1l4.2-29.7l40.4,14.4l8.3,3l38.7,13.8
		l5.7,2l0,0l16,5.7c5.4,1.9,10.9,3.7,16.4,5.2c5.8,1.6,11.7,3.1,17.6,4.3c5.3,1.1,10.6,2,15.8,2.8l0,0c8.1,1.1,16.2,1.9,24.2,2.3
		l0,0h0.1c1.8,0.1,3.6,0.1,5.4,0.2h0c2.1,0.1,4.3,0.1,6.4,0.1c7,0,13.9-0.3,20.7-0.8l0,0c0.7-0.1,1.4-0.1,2-0.2l0,0
		c7.8-0.7,15.4-1.8,22.9-3.2l0,0c2.6-0.5,5.2-1,7.8-1.6l0.1,0l-0.1,0c1.9-0.4,3.8-0.9,5.6-1.4c3.3-0.8,6.5-1.7,9.7-2.7
		c4.1-1.3,8.2-2.6,12.2-4.1c3.1-1.2,6.2-2.4,9.2-3.7l0,0c5.3-2.3,10.5-4.8,15.4-7.5l0,0c1.4-0.8,2.9-1.6,4.3-2.4l0,0
		c3.2-1.9,6.3-3.9,9.4-5.9c2.8-1.9,5.5-3.9,8.1-5.9l0,0l0,0c0.1-0.1,0.2-0.2,0.3-0.3l0,0c5.7-4.5,11.1-9.4,15.9-14.7
		c0.8-0.9,1.6-1.7,2.4-2.6l0,0c3.5-3.9,6.6-8.1,9.5-12.4l-2.6,18.6l-0.4,2.8v0l-0.4,2.5C490.4,300.6,489.8,301.7,489.2,302.7
		L489.2,302.7z M498.5,293.8L498.5,293.8L498.5,293.8L498.5,293.8z M507.6,232L507.6,232L507.6,232c0,0.3-0.1,0.7-0.2,1l0,0.1l0,0.1
		h0l0,0.1l0,0l0,0c-0.1,0.6-0.2,1.1-0.3,1.7l0,0l0,0c-0.1,0.4-0.1,0.7-0.2,1l0,0l0,0c0,0.2-0.1,0.3-0.1,0.5L341.1,63.5l12.3,4.4
		l1.2,0.4l33.8,12.1L390,81l118.1,123.4c0,0.3,0.1,0.7,0.1,1c0.3,2.6,0.5,5.2,0.6,7.8c0,1.1,0.1,2.2,0.1,3.2c0,2.6-0.1,5.2-0.3,7.8
		l0,0c-0.1,2-0.4,4-0.6,5.9l0,0l0,0c0,0.3-0.1,0.6-0.1,0.9l0,0C507.7,231.5,507.7,231.7,507.6,232z"/>
	<linearGradient id="SVGID_6_" gradientUnits="userSpaceOnUse" x1="404.6808" y1="211.6699" x2="395.7112" y2="218.3297">
		<stop  offset="0" style="stop-color:#FFE1C8"/>
		<stop  offset="1" style="stop-color:#B5C4EB"/>
	</linearGradient>
	<polygon class="st5" points="400.2,215 400.2,215 400.2,215 	"/>
	<linearGradient id="SVGID_7_" gradientUnits="userSpaceOnUse" x1="405.8847" y1="210.7567" x2="394.4916" y2="219.2159">
		<stop  offset="0" style="stop-color:#FFE1C8"/>
		<stop  offset="1" style="stop-color:#B5C4EB"/>
	</linearGradient>
	<polygon class="st6" points="400.2,215 400.2,215 400.2,215 	"/>
	<linearGradient id="SVGID_8_" gradientUnits="userSpaceOnUse" x1="356.581" y1="173.7291" x2="346.4708" y2="181.2358">
		<stop  offset="0" style="stop-color:#FFE1C8"/>
		<stop  offset="1" style="stop-color:#B5C4EB"/>
	</linearGradient>
	<polygon class="st7" points="351.5,177.5 351.5,177.5 351.5,177.5 	"/>
	<linearGradient id="SVGID_9_" gradientUnits="userSpaceOnUse" x1="430.4087" y1="206.5115" x2="394.1805" y2="233.4104">
		<stop  offset="0" style="stop-color:#FFE1C8"/>
		<stop  offset="1" style="stop-color:#B5C4EB"/>
	</linearGradient>
	<polygon class="st8" points="412.3,220 412.3,220 412.3,220 	"/>
	<linearGradient id="SVGID_10_" gradientUnits="userSpaceOnUse" x1="447.2547" y1="186.2761" x2="379.2995" y2="236.7317">
		<stop  offset="0" style="stop-color:#FFE1C8"/>
		<stop  offset="1" style="stop-color:#B5C4EB"/>
	</linearGradient>
	<polygon class="st9" points="413.3,211.5 413.3,211.5 413.3,211.5 	"/>
	<linearGradient id="SVGID_11_" gradientUnits="userSpaceOnUse" x1="439.3464" y1="208.922" x2="376.773" y2="255.3818">
		<stop  offset="0" style="stop-color:#FFE1C8"/>
		<stop  offset="1" style="stop-color:#B5C4EB"/>
	</linearGradient>
	<polygon class="st10" points="408.1,232.1 408.1,232.2 408.1,232.2 	"/>
	<linearGradient id="SVGID_12_" gradientUnits="userSpaceOnUse" x1="400.0557" y1="152.978" x2="376.366" y2="170.5672">
		<stop  offset="0" style="stop-color:#FFE1C8"/>
		<stop  offset="1" style="stop-color:#B5C4EB"/>
	</linearGradient>
	<polygon class="st11" points="388.2,161.8 388.2,161.8 388.2,161.8 	"/>
	<linearGradient id="SVGID_13_" gradientUnits="userSpaceOnUse" x1="384.9756" y1="346.8418" x2="298.7503" y2="410.8626">
		<stop  offset="0" style="stop-color:#FFE1C8"/>
		<stop  offset="1" style="stop-color:#B5C4EB"/>
	</linearGradient>
	<polygon class="st12" points="341.9,378.9 341.9,378.9 341.8,378.9 	"/>
	<linearGradient id="SVGID_14_" gradientUnits="userSpaceOnUse" x1="408.6993" y1="348.235" x2="333.2327" y2="404.2678">
		<stop  offset="0" style="stop-color:#FFE1C8"/>
		<stop  offset="1" style="stop-color:#B5C4EB"/>
	</linearGradient>
	<polygon class="st13" points="371,376.3 371,376.3 371,376.3 	"/>
	<linearGradient id="SVGID_15_" gradientUnits="userSpaceOnUse" x1="320.74" y1="355.3085" x2="265.8961" y2="396.0292">
		<stop  offset="0" style="stop-color:#FFE1C8"/>
		<stop  offset="1" style="stop-color:#B5C4EB"/>
	</linearGradient>
	<polygon class="st14" points="293.3,375.7 293.3,375.7 293.3,375.7 	"/>
	<linearGradient id="SVGID_16_" gradientUnits="userSpaceOnUse" x1="655.0244" y1="194.9782" x2="502.0462" y2="308.562">
		<stop  offset="0" style="stop-color:#FFE1C8"/>
		<stop  offset="1" style="stop-color:#B5C4EB"/>
	</linearGradient>
	<path class="st15" d="M468.9,333.2L468.9,333.2C468.9,333.2,468.9,333.2,468.9,333.2L468.9,333.2z"/>
	<linearGradient id="SVGID_17_" gradientUnits="userSpaceOnUse" x1="311.9396" y1="351.0316" x2="251.3922" y2="395.9872">
		<stop  offset="0" style="stop-color:#FFE1C8"/>
		<stop  offset="1" style="stop-color:#B5C4EB"/>
	</linearGradient>
	<polygon class="st16" points="281.7,373.5 281.7,373.5 281.7,373.5 	"/>
	<linearGradient id="SVGID_18_" gradientUnits="userSpaceOnUse" x1="426.2606" y1="303.3908" x2="233.5897" y2="446.4458">
		<stop  offset="0" style="stop-color:#FFE1C8"/>
		<stop  offset="1" style="stop-color:#B5C4EB"/>
	</linearGradient>
	<polygon class="st17" points="329.9,374.9 329.9,374.9 329.9,374.9 	"/>
	<linearGradient id="SVGID_19_" gradientUnits="userSpaceOnUse" x1="651.0584" y1="189.6366" x2="356.5658" y2="408.2926">
		<stop  offset="0" style="stop-color:#FFE1C8"/>
		<stop  offset="1" style="stop-color:#B5C4EB"/>
	</linearGradient>
	<polygon class="st18" points="478,318.1 478,318.1 478,318.1 	"/>
	<linearGradient id="SVGID_20_" gradientUnits="userSpaceOnUse" x1="651.0336" y1="189.6032" x2="306.3358" y2="445.5357">
		<stop  offset="0" style="stop-color:#FFE1C8"/>
		<stop  offset="1" style="stop-color:#B5C4EB"/>
	</linearGradient>
	<path class="st19" d="M428.1,355.1L428.1,355.1C428.1,355.1,428.1,355.1,428.1,355.1L428.1,355.1z"/>
	<linearGradient id="SVGID_21_" gradientUnits="userSpaceOnUse" x1="285.4739" y1="341.9259" x2="221.0547" y2="389.7561">
		<stop  offset="0" style="stop-color:#FFE1C8"/>
		<stop  offset="1" style="stop-color:#B5C4EB"/>
	</linearGradient>
	<path class="st20" d="M253.3,365.8C253.3,365.8,253.3,365.8,253.3,365.8C253.3,365.8,253.3,365.8,253.3,365.8L253.3,365.8z"/>
	<linearGradient id="SVGID_22_" gradientUnits="userSpaceOnUse" x1="289.184" y1="358.6872" x2="255.1142" y2="383.9835">
		<stop  offset="0" style="stop-color:#FFE1C8"/>
		<stop  offset="1" style="stop-color:#B5C4EB"/>
	</linearGradient>
	<polygon class="st21" points="272.2,371.3 272.2,371.3 272.1,371.3 	"/>
	<linearGradient id="SVGID_23_" gradientUnits="userSpaceOnUse" x1="433.3929" y1="316.1593" x2="381.8669" y2="354.4165">
		<stop  offset="0" style="stop-color:#FFE1C8"/>
		<stop  offset="1" style="stop-color:#B5C4EB"/>
	</linearGradient>
	<polygon class="st22" points="407.6,335.3 407.6,335.3 407.6,335.3 	"/>
	<linearGradient id="SVGID_24_" gradientUnits="userSpaceOnUse" x1="499.4038" y1="278.1314" x2="465.5611" y2="303.259">
		<stop  offset="0" style="stop-color:#FFE1C8"/>
		<stop  offset="1" style="stop-color:#B5C4EB"/>
	</linearGradient>
	<polygon class="st23" points="482.5,290.7 482.5,290.7 482.5,290.7 	"/>
	<linearGradient id="SVGID_25_" gradientUnits="userSpaceOnUse" x1="454.9023" y1="-74.5524" x2="-55.0977" y2="304.1143">
		<stop  offset="0" style="stop-color:#FFE1C8"/>
		<stop  offset="1" style="stop-color:#B5C4EB"/>
	</linearGradient>
	<path class="st24" d="M135.8,78.1c20.4-10,44.7-15.4,70.2-15.4c10.8,0,21.8,1,32.7,3l0.7-3.9c-11.2-2-22.4-3-33.4-3
		c-26.1,0-51,5.5-72,15.9c-21,10.3-38,25.4-48,44.6c-6.3,12-9.3,24.6-9.3,37.1c0,18,6.1,35.9,17.4,51.9c11.2,16.1,27.6,30.3,48,41.2
		l1.9-3.5l0,0c-19.9-10.6-35.8-24.5-46.6-40c-10.8-15.5-16.7-32.6-16.7-49.6c0-11.9,2.8-23.8,8.8-35.3
		C99.1,102.7,115.5,88.2,135.8,78.1z"/>
	<linearGradient id="SVGID_26_" gradientUnits="userSpaceOnUse" x1="446.5446" y1="-85.8089" x2="-63.4554" y2="292.8578">
		<stop  offset="0" style="stop-color:#FFE1C8"/>
		<stop  offset="1" style="stop-color:#B5C4EB"/>
	</linearGradient>
	<path class="st25" d="M64.8,216.6c-13.5-19.5-20.8-41-20.8-62.5c0-15.1,3.6-30.3,11.2-44.9C67.4,85.9,88.1,67.4,114,54.7
		C139.9,41.9,170.8,35,203.2,35c11.8,0,23.7,0.9,35.7,2.8l0.6-4C227.3,32,215.1,31,203.2,31c-32.9,0-64.5,7-90.9,20
		c-26.5,13-47.9,32.1-60.6,56.3c-7.9,15.1-11.7,31-11.7,46.7c0,22.4,7.6,44.7,21.5,64.8c13.9,20.1,34.1,38,59.4,51.8l1.9-3.5l0,0
		C98,253.6,78.3,236.1,64.8,216.6z"/>
	<linearGradient id="SVGID_27_" gradientUnits="userSpaceOnUse" x1="437.1844" y1="-98.4155" x2="-72.8156" y2="280.2511">
		<stop  offset="0" style="stop-color:#FFE1C8"/>
		<stop  offset="1" style="stop-color:#B5C4EB"/>
	</linearGradient>
	<path class="st26" d="M29.4,227.5C12.9,203.5,4,177.1,4,150.7c0-18.7,4.4-37.4,13.8-55.3c15-28.7,40.6-51.5,72.4-67.2
		C122.1,12.5,160.2,4,200,4c12.8,0,25.8,0.9,38.9,2.7l0.5-4C226.2,0.9,213,0,200,0c-40.4,0-79,8.6-111.5,24.5
		C56,40.5,29.7,63.9,14.3,93.5C4.6,112,0,131.4,0,150.7c0,27.3,9.2,54.5,26.1,79.1c16.9,24.5,41.5,46.5,72.3,63.4l1.9-3.5l0,0
		C70,273,45.9,251.4,29.4,227.5z"/>
</g>
</svg>
