<?xml version="1.0" encoding="utf-8"?>
<!-- Generator: Adobe Illustrator 21.0.2, SVG Export Plug-In . SVG Version: 6.00 Build 0)  -->
<svg version="1.1" id="Слой_1" xmlns="http://www.w3.org/2000/svg" xmlns:xlink="http://www.w3.org/1999/xlink" x="0px" y="0px"
	 viewBox="0 0 211.8 155.7" style="enable-background:new 0 0 211.8 155.7;" xml:space="preserve">
<style type="text/css">
	.st0{fill:url(#SVGID_1_);}
	.st1{fill:none;stroke:#2059ED;stroke-width:14.1584;stroke-miterlimit:10;}
	.st2{fill:#2059ED;}
</style>
<g>
	<g>
		
			<linearGradient id="SVGID_1_" gradientUnits="userSpaceOnUse" x1="335.0845" y1="-147.2156" x2="267.3898" y2="-66.6899" gradientTransform="matrix(0.9987 5.083023e-02 -5.083023e-02 0.9987 -249.2352 210.0476)">
			<stop  offset="0" style="stop-color:#232FA5"/>
			<stop  offset="0.3289" style="stop-color:#2059ED"/>
		</linearGradient>
		<path class="st0" d="M2.1,143.9L2.1,143.9c5,10.3,17.4,14.6,27.7,9.6l80.8-39.4L92.5,76.9l-80.8,39.4
			C1.4,121.3-2.9,133.7,2.1,143.9z"/>
		<path class="st1" d="M73.1,33.9l28.7,58.9l26.9,55.4c0,0,21.8-2.1,38.3-9.5c17.7-8,36.2-26.8,36.2-26.8l-43.6-89.1l-46.9-15
			L73.1,33.9z"/>
	</g>
	<g>
		<polygon class="st2" points="152.5,44.3 109.9,28.2 113.9,25.5 148.8,36.7 		"/>
	</g>
</g>
</svg>
