<?xml version="1.0" encoding="utf-8"?>
<!-- Generator: Adobe Illustrator 21.0.2, SVG Export Plug-In . SVG Version: 6.00 Build 0)  -->
<svg version="1.1" id="Слой_1" xmlns="http://www.w3.org/2000/svg" xmlns:xlink="http://www.w3.org/1999/xlink" x="0px" y="0px"
	 viewBox="0 0 211.2 173.5" style="enable-background:new 0 0 211.2 173.5;" xml:space="preserve">
<style type="text/css">
	.st0{fill:#2059ED;}
	.st1{fill:none;stroke:#2059ED;stroke-width:12.0601;stroke-linecap:round;stroke-miterlimit:10;}
	.st2{fill:none;stroke:#2059ED;stroke-width:6.8146;stroke-linecap:round;stroke-miterlimit:10;}
</style>
<g>
	<g>
		<path class="st0" d="M53.1,33c0.6-3.7,1.7-7.3,3.4-10.9c0.8-1.8,1.8-3.5,2.9-5.2c0.6-0.8,1.1-1.7,1.8-2.4c0.7-0.8,1.3-1.6,2-2.3
			c2.8-3,6.3-5.4,9.9-7.2c3.7-1.8,7.5-2.9,11.4-3.7l2.9-0.5c1-0.1,1.9-0.2,2.9-0.3l1.4-0.1l1.4-0.1c0.9,0,1.8-0.1,2.8-0.1
			c3.7-0.1,7.5,0,11.3,0.4c3.8,0.4,7.7,1.2,11.2,2.2c1.8,0.5,3.5,1,5.1,1.5c1.6,0.5,3.1,0.9,4.6,1.2l1.1,0.2l1.2,0.2
			c0.9,0.2,1.8,0.3,2.7,0.5c1.8,0.4,3.6,0.8,5.4,1.2c3.5,0.9,7,1.9,10.5,3.1c6.9,2.4,13.7,5.3,20.2,9.1c6.5,3.8,12.6,8.6,17.6,14.7
			c2.5,3.1,4.7,6.5,6.4,10.1c1.7,3.7,2.9,7.6,3.6,11.5c0.6,3.3-1.7,6.4-4.9,6.9c-3.2,0.5-6.2-1.5-6.9-4.7l0-0.2
			c-1.2-5.8-3.9-11.1-7.8-15.7c-3.9-4.6-9-8.4-14.5-11.7c-5.5-3.2-11.6-5.8-17.8-8c-3.1-1.1-6.3-2-9.5-2.8c-1.6-0.4-3.2-0.8-4.8-1.1
			l-5.2-1c-1.9-0.4-3.8-1-5.5-1.5c-1.7-0.5-3.3-1-4.9-1.5c-3.1-0.9-6.1-1.5-9.2-1.9c-3.1-0.4-6.3-0.5-9.5-0.5
			c-0.8,0-1.6,0.1-2.4,0.1l-1.2,0l-1.2,0.1c-0.8,0.1-1.6,0.1-2.3,0.2l-2.3,0.3c-6,1.1-11.4,3.3-15.7,7.1c-1.1,1-2.1,2-3.1,3.1
			c-0.5,0.5-0.9,1.1-1.4,1.7c-0.5,0.6-0.9,1.2-1.4,1.8c-1.7,2.5-3.3,5.3-4.8,8.3l-0.1,0.1c-1,1.9-3.3,2.7-5.3,1.7
			C53.6,36.4,52.8,34.6,53.1,33z"/>
	</g>
	<path class="st1" d="M69.1,14c-21-0.8-34.9,10.6-46.6,33.8"/>
	<g>
		<path class="st0" d="M34.1,50.5c-0.4,0-1,0.1-1.7,0.2c-0.6,0.1-1.3,0.3-2,0.5c-1.4,0.4-2.7,0.9-4,1.5c-2.6,1.2-5.1,2.8-7.2,4.6
			c-4.3,3.6-7.2,8.5-8.2,13.8c-0.1,0.7-0.3,1.3-0.3,2c-0.1,0.7-0.2,1.4-0.2,2.1c-0.1,0.7,0,1.4,0,2.1c0,0.7,0.1,1.5,0.1,2.2l0.2,2.2
			c0.1,0.7,0.2,1.5,0.3,2.2c0.2,1.5,0.5,2.8,0.8,4.2c0.7,2.7,1.7,5.2,3.1,7l0.2,0.4l0.3,0.3l0.5,0.6c0.4,0.3,0.7,0.7,1.1,0.9
			l0.3,0.2l0.3,0.1l0.3,0.2l0.3,0.1c0.2,0.1,0.3,0.1,0.5,0.2c0.1,0,0.1,0,0.1,0c0,0,0,0,0,0l0,0c0,0-0.2,0-0.3,0
			c3.3,0.3,5.7,3.3,5.4,6.6c-0.3,3.3-3.3,5.7-6.6,5.4c-0.2,0-0.4-0.1-0.6-0.1l-0.3-0.1c-0.2,0-0.4-0.1-0.6-0.1
			c-0.3-0.1-0.7-0.2-1-0.3c-0.6-0.2-1.3-0.5-1.8-0.8l-0.8-0.4l-0.8-0.5l-0.8-0.5l-0.7-0.6c-1-0.7-1.7-1.6-2.5-2.4l-1-1.3l-0.5-0.7
			l-0.4-0.7c-2.3-3.6-3.5-7.4-4.3-11c-0.3-1.8-0.7-3.6-0.8-5.4c-0.1-0.9-0.2-1.8-0.2-2.7L0,79.9C0,79,0,78.2,0,77.2
			c0-0.9,0.1-1.9,0.2-2.8c0.1-0.9,0.2-1.9,0.4-2.8c0.1-0.9,0.4-1.9,0.6-2.8c0.9-3.7,2.5-7.2,4.6-10.4c1.1-1.6,2.3-3.1,3.6-4.4
			c1.3-1.4,2.7-2.6,4.2-3.7c3-2.3,6.2-4.1,9.5-5.4c1.7-0.7,3.4-1.2,5.2-1.7c0.9-0.2,1.8-0.4,2.8-0.6c1-0.1,1.9-0.3,3.2-0.2
			c2.2,0,4,1.9,4,4.1c0,2.2-1.8,3.9-3.9,4L34.1,50.5z"/>
	</g>
	<path class="st1" d="M18,101.4c0,0,3,44.3,44,13.7"/>
	<path class="st1" d="M62,115.1c0,0-3.8,18.9,13.5,22c17.2,3,29.6-9.7,29.6-9.7"/>
	<path class="st1" d="M105,127.3c4,4,4.5,16,18,12.1"/>
	<path class="st1" d="M123,139.5c2.3,3.2,19,27,23.4,27.9c4.5,0.9,13.1-1.4,12.9-4c-0.2-2.6-6.7-12.8-5.6-16.5"/>
	<g>
		<path class="st0" d="M174.2,62.8c1.5-1.9,3.1-3.2,4.8-4.4c1.7-1.1,3.6-2.1,5.6-2.8c2-0.7,4.1-1.2,6.4-1.3c2.3-0.1,4.8,0.2,7.2,1.1
			c2.4,0.9,4.6,2.4,6.4,4.2c1.7,1.8,2.9,3.8,3.9,5.8c0.9,2,1.5,4,1.9,5.9c0.2,1,0.4,1.9,0.5,2.9l0.2,1.4c0,0.5,0.1,1,0.1,1.5
			c0.2,2,0,4.2-0.3,6.3c-0.4,2.1-1.1,4.3-2,6.3c-2,4.1-5.3,7.4-8.8,9.5c-1.8,1.1-3.6,2-5.4,2.7c-1.8,0.7-3.7,1.2-5.5,1.6
			c-1.8,0.4-3.7,0.7-5.5,0.9c-0.9,0.1-1.8,0.2-2.8,0.2l-1.4,0c-0.5,0-0.9,0-1.5,0c-2.8-0.1-5.1-2.4-5-5.3c0.1-2.7,2.1-4.8,4.7-5
			l0.4,0l1-0.1l1.1-0.1c0.7-0.1,1.5-0.2,2.2-0.3c1.4-0.2,2.9-0.6,4.3-1c2.8-0.8,5.3-1.9,7.4-3.3c2.1-1.4,3.5-3.1,4.4-5
			c0.4-1,0.7-2,0.9-3.2c0.1-1.1,0.2-2.3,0.1-3.6l-0.1-1l-0.2-1c-0.1-0.7-0.2-1.3-0.4-2c-0.3-1.3-0.7-2.5-1.1-3.5
			c-0.5-1-1-1.9-1.6-2.4c-0.6-0.6-1.2-1-1.9-1.2c-1.3-0.6-3.5-0.5-5.9,0.1c-1.2,0.3-2.4,0.8-3.5,1.3c-1.1,0.5-2.2,1.2-3,1.7
			l-0.7,0.4c-2.3,1.6-5.5,1-7.1-1.3C172.7,67,172.9,64.5,174.2,62.8z"/>
	</g>
	<path class="st2" d="M107.8,25.5c0,0,0,0-1.9,4.6c-1.9,4.8-6.2,8.1-11.3,8.3C88,38.5,81,41.6,79.2,53.4"/>
	<path class="st2" d="M79.2,27.8c0,0,13.9-1.6,11.2,11.1"/>
	<path class="st2" d="M82.8,44c0,0-24.9-9.6-19.8,14.5"/>
	<path class="st2" d="M48.8,63.3c1,0.9-13.7-11.1-22.5,4.4"/>
	<path class="st2" d="M25.4,78c0.9-2.3-7.2,17.5,14.2,15.6"/>
	<path class="st2" d="M54.5,100c2.4-4.6,11.2-20.8,24.5-18.8c2.3,0.3,4.6-0.4,6.2-2.1c2.6-2.9,7-6.8,12-6.2c2.3,0.3,4.5-0.6,5.8-2.5
		c2.9-4,8.1-10,12.9-10.3c1.8-0.1,3.4-0.8,4.9-1.9c4.3-3.2,11.4-9.9,9.9-18.6c-0.3-2,1.7-3.6,3.7-2.8c4.4,1.7,10.5,2,17.4-3.4"/>
	<path class="st2" d="M72.8,69.6c0,0-2.3,11.7-8.3,14.8"/>
	<path class="st2" d="M44.6,79.6c0,0,1.3,11.4,24.5,2.2"/>
	<path class="st2" d="M95.5,53.4c0,0,10.8-2.9,13.3,10.2"/>
	<path class="st2" d="M169.9,50.2c0,0-11.2-7-17.9,2.2c-6.7,9.1,0,18.7,0,18.7"/>
	<path class="st2" d="M116.9,78.2c13.8-0.9,13.8-14.5,18-18.8s14.2-0.4,14.2-0.4"/>
	<path class="st2" d="M135.8,82.4c0,0-4.1-9-13.8-5.4"/>
	<path class="st2" d="M161.8,70.4c0,0,6.4,5.5,4.7,10.3c-1.7,4.8-5.4,7.6-5.4,7.6"/>
	<path class="st2" d="M186.8,77c-6,0.6-5,3.9-10.8,6.9c-2.5,1.3-7.7-3-7.7-3"/>
	<path class="st2" d="M120.2,91.5c0,0,6.2,0,5.5,5.7"/>
	<path class="st2" d="M92.3,89.4c0,0,16.6-6,19.2,12"/>
	<path class="st2" d="M76,97.2c0,0,11.3,17.9,27.4-5.7"/>
	<path class="st2" d="M85.3,104.1c0,0,3.4,15.8-8.1,16.5"/>
	<path class="st2" d="M96.8,119.1c0,0,3.7-11.1-11-5.7"/>
	<path class="st2" d="M180.4,118c0,0-16.1-4.1-22.1,0s-12.5-4.8-15.6,1.2"/>
	<path class="st2" d="M161.6,134c0,0,5.7-9.5-4.6-15.3"/>
	<g>
		<path class="st0" d="M120.6,112.5c6.1-3.9,12.4-7,19.1-9.7c3.3-1.4,6.7-2.6,10.1-3.7c1.7-0.6,3.4-1,5.2-1.6
			c1.7-0.5,3.5-0.9,5.3-1.3c0.9-0.2,1.8-0.4,2.7-0.6l2.7-0.5l2.7-0.5c0.9-0.1,1.8-0.2,2.8-0.3c1.8-0.2,3.7-0.4,5.6-0.4l2.8-0.1
			c0.5,0,0.9,0,1.4,0l1.4,0.1l2.8,0.2c1,0.1,1.9,0.1,3,0.3c1.1,0.2,2.1,0.3,3.2,0.6c1.1,0.3,2.1,0.6,3.2,1.1
			c0.5,0.2,1.1,0.4,1.6,0.7l1.6,0.9l0.8,0.5c0.3,0.2,0.5,0.4,0.8,0.6c0.5,0.4,1,0.8,1.5,1.2c1.9,1.8,3.5,4.1,4.4,6.5
			c0.9,2.4,1.4,4.9,1.5,7.2c0.1,1.2,0,2.3-0.1,3.4c-0.1,1.1-0.3,2.2-0.5,3.2c-0.9,4.2-2.3,8-4.2,11.5c-1.9,3.5-4.1,6.7-6.7,9.7
			c-2.6,3-5.5,5.7-9,8c-3.4,2.3-7.6,4.2-12.6,4.6c-3.9,0.1-7.8,0-11.7-0.7c-3.9-0.6-7.7-1.8-11.3-3.4c-1.8-0.8-3.6-1.8-5.2-2.8
			c-0.8-0.6-1.7-1.1-2.5-1.7c-0.4-0.3-0.8-0.6-1.2-1c-0.4-0.4-0.7-0.6-1.3-1.2c-1.9-1.8-1.9-4.9-0.1-6.8c1.2-1.3,3-1.7,4.6-1.3
			l2.5,0.6c0.1,0,0.4,0.3,0.7,0.4l0.9,0.6c0.6,0.4,1.3,0.7,1.9,1.1c1.3,0.7,2.7,1.3,4.1,1.8c2.8,1.1,5.8,1.7,8.8,2.1
			c3,0.4,6.1,0.4,9.1,0.2c1.9-0.2,4.3-1.1,6.6-2.8c4.6-3.2,8.7-8.1,11.4-13.4c1.3-2.6,2.4-5.4,3-8c0.5-2.6,0.4-5-0.2-6.7
			c-0.3-0.8-0.8-1.5-1.3-2.1c-0.2-0.1-0.3-0.3-0.5-0.4c-0.1-0.1-0.2-0.2-0.3-0.2l-0.3-0.2c-0.2-0.1-0.4-0.3-0.6-0.4l-0.8-0.3
			c-0.5-0.3-1.1-0.4-1.7-0.6c-0.6-0.2-1.3-0.3-1.9-0.5c-0.6-0.2-1.4-0.2-2.2-0.3l-2.4-0.3l-1.2-0.1c-0.4,0-0.8,0-1.2,0l-2.4-0.1
			c-1.6-0.1-3.2,0-4.8,0.1l-2.4,0.1l-2.4,0.2l-2.5,0.2c-0.8,0.1-1.6,0.2-2.5,0.4c-1.6,0.2-3.3,0.5-4.9,0.8c-1.6,0.3-3.3,0.6-4.9,1
			c-1.6,0.4-3.3,0.7-4.9,1.2c-1.6,0.4-3.3,0.8-4.9,1.3c-6.5,1.9-13,4.2-19.1,6.7l-0.1,0c-1.5,0.6-3.2-0.1-3.8-1.6
			C118.9,114.8,119.4,113.3,120.6,112.5z"/>
	</g>
</g>
</svg>
