<?xml version="1.0" encoding="utf-8"?>
<!-- Generator: Adobe Illustrator 21.0.2, SVG Export Plug-In . SVG Version: 6.00 Build 0)  -->
<svg version="1.1" id="Слой_1" xmlns="http://www.w3.org/2000/svg" xmlns:xlink="http://www.w3.org/1999/xlink" x="0px" y="0px"
	 viewBox="0 0 483.4 620.5" style="enable-background:new 0 0 483.4 620.5;" xml:space="preserve">
<style type="text/css">
	.st0{fill:url(#SVGID_1_);}
	.st1{fill:url(#SVGID_2_);}
	.st2{fill:url(#SVGID_3_);}
	.st3{fill:url(#SVGID_4_);}
	.st4{fill:url(#SVGID_5_);}
</style>
<g>
	<linearGradient id="SVGID_1_" gradientUnits="userSpaceOnUse" x1="448.3896" y1="67.175" x2="446.1351" y2="70.0945">
		<stop  offset="0" style="stop-color:#FFE1C8"/>
		<stop  offset="1" style="stop-color:#B5C4EB"/>
	</linearGradient>
	<polygon class="st0" points="447.3,68.6 447.3,68.6 447.3,68.6 	"/>
	<linearGradient id="SVGID_2_" gradientUnits="userSpaceOnUse" x1="478.6284" y1="2.8353" x2="0.6285" y2="621.8353">
		<stop  offset="0" style="stop-color:#FFE1C8"/>
		<stop  offset="1" style="stop-color:#B5C4EB"/>
	</linearGradient>
	<path class="st1" d="M481.4,91.2c-0.4-0.9-0.9-2.3-1.6-4.1c-1.1-2.6-2.7-5.8-5.5-9c-2.8-3.2-6.8-6.2-12.6-8.6c0,0,0,0-0.1,0
		c-1.8-1-3.7-1.8-5.8-2.5L241,1.4c-3.1-1-6.3-1.4-9.5-1.4c-7.2,0-14.3,2.3-20.3,6.3c-6,4-11,9.8-13.8,16.8L2.5,503.1
		c-1.7,4.2-2.5,8.4-2.5,12.5c0,6.5,2,12.6,5.6,17.6c0.2,0.3,0.4,0.5,0.6,0.7c1.7,3,3.4,6.1,5.6,9c2.2,2.9,5,5.8,8.7,8.5
		c1.8,1.3,4.1,2.3,6.6,3.2c2.5,0.9,5.1,1.6,7.4,2.4c3.7,1.1,126.3,38.6,135.7,41.5c4.3,1.3,14.7,4.8,26.8,8.6
		c12.2,3.9,26.2,8.2,37.8,11.4c5.3,1.5,9.9,2,13.9,2c4.3,0,7.9-0.7,10.9-1.5c2.9-0.9,5.2-1.9,6.9-2.6c3.7-1.6,7.5-4.2,10.8-7.6
		c3.3-3.3,6.1-7.4,8-11.8c0.6-1.4,1.1-2.7,1.7-4.1c1.1-2.6,2.1-5.3,3.2-7.9c1.5-3.8,137.5-338.4,140.8-346.7
		c3.2-7.9,6.4-15.7,9.6-23.6c3-7.3,38.6-95.1,39.2-96.5c2-4.9,3.5-10.8,3.5-16.6C483.4,98,482.8,94.4,481.4,91.2z M4,515.6
		c0-3.6,0.7-7.3,2.2-11L201.1,24.6c2.5-6.2,7-11.4,12.4-15C218.9,6,225.2,4,231.6,4c2.8,0,5.6,0.4,8.3,1.2l207.4,63.4h0
		c5.6,1.7,9.5,3.2,12.7,4.6c3.2,1.8,5.9,4.3,8,7.1c3.1,4.3,4.8,9.7,4.8,15.3c0,3.6-0.7,7.3-2.2,11L275.7,586.6
		c-2.5,6.2-7,11.4-12.4,15c-5.4,3.6-11.7,5.6-18.1,5.6c-2.8,0-5.6-0.4-8.3-1.2L22.1,540.3c-5.7-1.7-10.2-5.1-13.3-9.4
		C5.7,526.6,4,521.2,4,515.6z M476.2,116.7c-0.6,1.4-36.2,89.2-39.2,96.5c-3.2,7.9-6.4,15.7-9.6,23.6
		c-3.4,8.3-139.3,343-140.8,346.7c-1.1,2.6-2.1,5.3-3.2,7.9c-0.6,1.4-1.1,2.7-1.7,4.1c-1.6,3.9-4.1,7.5-7.1,10.5
		c-3,3-6.4,5.4-9.5,6.7c-1.7,0.8-3.8,1.7-6.5,2.5c-2.6,0.8-5.8,1.4-9.7,1.4c-3.6,0-7.9-0.5-12.9-1.9c-11.6-3.2-25.5-7.5-37.7-11.4
		c-12.2-3.9-22.5-7.3-26.9-8.7c-9.4-2.9-132-40.4-135.7-41.5c-2.4-0.7-5-1.5-7.3-2.3c-2.3-0.8-4.4-1.7-5.6-2.7
		c-2.6-1.9-4.7-3.8-6.4-5.8c1.4,0.7,2.9,1.3,4.5,1.8l214.8,65.7c3.1,0.9,6.3,1.4,9.5,1.4c7.2,0,14.3-2.3,20.3-6.3
		c6-4,11-9.8,13.8-16.8l194.9-479.9c1.7-4.2,2.5-8.4,2.5-12.5c0-2.5-0.3-5-0.9-7.4c0.1,0.2,0.1,0.3,0.2,0.5c0.7,1.6,1.1,3,1.6,4.1
		c1.1,2.6,1.6,5.6,1.6,8.7C479.4,106.7,478,112.2,476.2,116.7z"/>
	<linearGradient id="SVGID_3_" gradientUnits="userSpaceOnUse" x1="480.5865" y1="4.3474" x2="2.5865" y2="623.3474">
		<stop  offset="0" style="stop-color:#FFE1C8"/>
		<stop  offset="1" style="stop-color:#B5C4EB"/>
	</linearGradient>
	<path class="st2" d="M348,260.2l-4-10.8c-31.1,15.4-82.6,46.8-114.1,75.1c-1.7-10.4-5-27-13.9-47.6l-19.3,11
		c8.1,18.2,17,50.7,18.8,74.3C247.4,330.1,292.2,292.7,348,260.2z"/>
	<linearGradient id="SVGID_4_" gradientUnits="userSpaceOnUse" x1="472.0935" y1="-2.211" x2="-5.9065" y2="616.789">
		<stop  offset="0" style="stop-color:#FFE1C8"/>
		<stop  offset="1" style="stop-color:#B5C4EB"/>
	</linearGradient>
	<path class="st3" d="M38.8,473.1l234.4,71.7c0.7,0.2,1.4,0.3,2.1,0.3c1.6,0,3.1-0.5,4.4-1.4c1.3-0.9,2.4-2.1,3-3.6l-1.9-0.8
		l1.9,0.8l0,0l168.4-414.6c0.4-0.9,0.6-1.9,0.6-2.8c0-1.4-0.4-2.8-1.3-4c-0.8-1.1-2-2-3.5-2.5L212.5,44.5c-0.7-0.2-1.4-0.3-2.1-0.3
		c-1.6,0-3.1,0.5-4.4,1.4c-1.3,0.9-2.4,2.1-3,3.6L34.6,463.8c-0.4,0.9-0.6,1.9-0.6,2.8c0,1.4,0.4,2.8,1.3,4
		C36.2,471.7,37.4,472.6,38.8,473.1z M38.3,465.3L206.8,50.7c0.3-0.8,0.8-1.4,1.5-1.8c0.7-0.4,1.4-0.7,2.2-0.7c0.3,0,0.6,0,1,0.1
		L445.8,120c0.6,0.2,1.1,0.5,1.4,1c0.3,0.5,0.5,1,0.5,1.6c0,0.4-0.1,0.8-0.3,1.3L279,538.5h0c-0.3,0.7-0.8,1.4-1.5,1.8
		c-0.7,0.4-1.4,0.7-2.2,0.7c-0.3,0-0.6,0-1-0.1L40,469.2c-0.6-0.2-1.1-0.5-1.4-1c-0.3-0.5-0.5-1-0.5-1.6
		C38.1,466.2,38.2,465.8,38.3,465.3z"/>
	<linearGradient id="SVGID_5_" gradientUnits="userSpaceOnUse" x1="528.5994" y1="41.4236" x2="50.5994" y2="660.4236">
		<stop  offset="0" style="stop-color:#FFE1C8"/>
		<stop  offset="1" style="stop-color:#B5C4EB"/>
	</linearGradient>
	<path class="st4" d="M151.1,520.2L151.1,520.2c-2.1-0.6-4.2-0.9-6.3-0.9c-4.8,0-9.4,1.5-13.4,4.2c-4,2.7-7.2,6.5-9.1,11.2
		c-1.1,2.8-1.7,5.6-1.7,8.4c0,4.3,1.3,8.4,3.7,11.7c2.4,3.3,5.9,5.9,10.3,7.3c2.1,0.6,4.2,0.9,6.3,0.9c4.8,0,9.4-1.5,13.4-4.2
		c4-2.7,7.2-6.5,9.1-11.2c1.1-2.8,1.7-5.6,1.7-8.4c0-4.3-1.3-8.4-3.7-11.7C158.9,524.1,155.4,521.5,151.1,520.2z M159.7,546
		c-1.6,3.9-4.3,7.1-7.7,9.3c-3.3,2.2-7.3,3.5-11.2,3.5c-1.7,0-3.5-0.2-5.2-0.8c-3.5-1.1-6.3-3.1-8.2-5.8c-1.9-2.6-3-5.9-3-9.4
		c0-2.2,0.4-4.6,1.4-6.9c1.6-3.9,4.3-7.1,7.7-9.3c3.3-2.2,7.3-3.5,11.2-3.5c1.7,0,3.5,0.2,5.2,0.8l0.6-1.9l-0.6,1.9
		c3.5,1.1,6.3,3.1,8.2,5.8c1.9,2.6,3,5.9,3,9.4C161.1,541.4,160.6,543.7,159.7,546z"/>
</g>
</svg>
