<?xml version="1.0" encoding="utf-8"?>
<!-- Generator: Adobe Illustrator 21.0.2, SVG Export Plug-In . SVG Version: 6.00 Build 0)  -->
<svg version="1.1" id="Слой_1" xmlns="http://www.w3.org/2000/svg" xmlns:xlink="http://www.w3.org/1999/xlink" x="0px" y="0px"
	 viewBox="0 0 403.3 379.7" style="enable-background:new 0 0 403.3 379.7;" xml:space="preserve">
<style type="text/css">
	.st0{fill:none;stroke:#BCC2C9;stroke-width:5;stroke-linecap:round;stroke-miterlimit:10;}
	.st1{fill:#BCC2C9;}
	.st2{fill:#2059ED;}
	.st3{fill:url(#SVGID_1_);}
	.st4{fill:none;stroke:#2059ED;stroke-width:14.158;stroke-linecap:round;stroke-miterlimit:10;}
</style>
<g>
	<path class="st0" d="M254.9,254.8v34.7c0,1.8-1.4,3.2-3.2,3.2H5.7c-1.8,0-3.2-1.4-3.2-3.2V5.7c0-1.8,1.4-3.2,3.2-3.2h245.9
		c1.8,0,3.2,1.4,3.2,3.2v97.5"/>
	<line class="st0" x1="2.5" y1="66.3" x2="254.9" y2="66.3"/>
	<circle class="st1" cx="223.8" cy="34.5" r="9.4"/>
	<circle class="st2" cx="364.5" cy="281.7" r="7.1"/>
	<linearGradient id="SVGID_1_" gradientUnits="userSpaceOnUse" x1="137.7612" y1="148.6046" x2="188.4198" y2="208.9771">
		<stop  offset="0" style="stop-color:#FFCC33"/>
		<stop  offset="0.2265" style="stop-color:#FFC238"/>
		<stop  offset="0.6101" style="stop-color:#FFA845"/>
		<stop  offset="1" style="stop-color:#FF8656"/>
	</linearGradient>
	<circle class="st3" cx="163.1" cy="178.8" r="39.4"/>
	<g>
		<path class="st4" d="M227.4,178.8h112.7c13.4,0,24.4,11,24.4,24.4v49.9"/>
		<line class="st4" x1="227.4" y1="178.8" x2="268.4" y2="137.8"/>
		<line class="st4" x1="227.4" y1="178.8" x2="268.4" y2="219.8"/>
	</g>
	<g>
		<path class="st2" d="M364.5,330.8c-6.6,0-11.9,5.3-11.9,11.9c0,6.6,5.3,11.9,11.9,11.9s11.9-5.3,11.9-11.9
			C376.4,336.1,371.1,330.8,364.5,330.8z M364.5,348.3c-3.1,0-5.6-2.5-5.6-5.6c0-3.1,2.5-5.6,5.6-5.6s5.6,2.5,5.6,5.6
			C370.1,345.8,367.6,348.3,364.5,348.3z"/>
		<path class="st2" d="M403.2,336.9l-0.2-1.4l-0.2-1.4c-0.2-1-1.3-1.5-2.4-1.7L395,332c-1.4-4.1-3.5-7.8-6.3-10.9l2.2-4.9
			c0.4-1,0.5-2.3-0.3-2.9l-1.1-0.9l-1.1-0.9c-0.8-0.7-2-0.3-2.9,0.3l-4.4,3c-3.6-2.2-7.6-3.7-11.9-4.3l-1.4-5.2
			c-0.4-1-1-2.1-2.1-2.1h-2.8c-1,0-1.7,1-2.1,2.1l-1.4,5.2c-4.3,0.6-8.3,2.1-11.9,4.3l-4.4-3c-0.9-0.6-2.1-0.9-2.9-0.3l-1.1,0.9
			l-1.1,0.9c-0.8,0.7-0.7,1.9-0.3,2.9l2.2,4.9c-2.8,3.2-4.9,6.9-6.3,10.9l-5.4,0.5c-1.1,0.2-2.2,0.7-2.4,1.7l-0.5,2.7
			c-0.2,1,0.7,1.9,1.7,2.4l4.9,2.3c0,0.2,0,0.5,0,0.7c0,4.1,0.8,8.1,2.2,11.7l-3.8,3.8c-0.7,0.8-1.3,1.9-0.8,2.8l1.4,2.4
			c0.5,0.9,1.8,1,2.8,0.8l5.2-1.3c2.6,3.3,5.9,6.1,9.7,8.1l-0.4,5.4c0,1.1,0.3,2.3,1.2,2.6l1.3,0.5l1.3,0.5c1,0.4,2-0.4,2.7-1.2
			l3.1-4.4c2,0.4,4.2,0.6,6.3,0.6c2.2,0,4.3-0.2,6.3-0.6l3.1,4.4c0.7,0.9,1.7,1.6,2.6,1.2l1.3-0.5l1.3-0.5c1-0.4,1.3-1.6,1.2-2.6
			l-0.4-5.4c3.7-2,7-4.8,9.7-8.1l5.2,1.3c1.1,0.2,2.3,0.1,2.8-0.8l1.4-2.4c0.5-0.9,0-2-0.8-2.8l-3.8-3.8c1.4-3.6,2.2-7.6,2.2-11.7
			c0-0.2,0-0.5,0-0.7l4.9-2.3C402.5,338.8,403.4,338,403.2,336.9z M364.5,365.2c-12.4,0-22.5-10.1-22.5-22.5
			c0-12.4,10.1-22.5,22.5-22.5c12.4,0,22.5,10.1,22.5,22.5C387,355.1,376.9,365.2,364.5,365.2z"/>
	</g>
</g>
</svg>
