<?xml version="1.0" encoding="utf-8"?>
<!-- Generator: Adobe Illustrator 21.0.2, SVG Export Plug-In . SVG Version: 6.00 Build 0)  -->
<svg version="1.1" id="Слой_1" xmlns="http://www.w3.org/2000/svg" xmlns:xlink="http://www.w3.org/1999/xlink" x="0px" y="0px"
	 viewBox="0 0 50 23" style="enable-background:new 0 0 50 23;" xml:space="preserve">
<style type="text/css">
	.st0{fill:#181818;}
</style>
<g>
	<path class="st0" d="M48.5,3h-47C0.7,3,0,2.3,0,1.5v0C0,0.7,0.7,0,1.5,0h47C49.3,0,50,0.7,50,1.5v0C50,2.3,49.3,3,48.5,3z"/>
	<path class="st0" d="M48.5,13h-47C0.7,13,0,12.3,0,11.5v0C0,10.7,0.7,10,1.5,10h47c0.8,0,1.5,0.7,1.5,1.5v0
		C50,12.3,49.3,13,48.5,13z"/>
	<path class="st0" d="M48.5,23h-47C0.7,23,0,22.3,0,21.5v0C0,20.7,0.7,20,1.5,20h47c0.8,0,1.5,0.7,1.5,1.5v0
		C50,22.3,49.3,23,48.5,23z"/>
</g>
</svg>
