<?xml version="1.0" encoding="utf-8"?>
<!-- Generator: Adobe Illustrator 21.0.2, SVG Export Plug-In . SVG Version: 6.00 Build 0)  -->
<svg version="1.1" id="Слой_1" xmlns="http://www.w3.org/2000/svg" xmlns:xlink="http://www.w3.org/1999/xlink" x="0px" y="0px"
	 viewBox="0 0 36.2 36.2" style="enable-background:new 0 0 36.2 36.2;" xml:space="preserve">
<style type="text/css">
	.st0{fill:#181818;}
</style>
<g>
	<path class="st0" d="M33.7,35.8L0.4,2.6C-0.1,2-0.1,1,0.4,0.4l0,0C1-0.1,2-0.1,2.6,0.4l33.2,33.2c0.6,0.6,0.6,1.5,0,2.1l0,0
		C35.2,36.4,34.3,36.4,33.7,35.8z"/>
	<path class="st0" d="M2.6,35.8L35.8,2.6c0.6-0.6,0.6-1.5,0-2.1l0,0c-0.6-0.6-1.5-0.6-2.1,0L0.4,33.7c-0.6,0.6-0.6,1.5,0,2.1l0,0
		C1,36.4,2,36.4,2.6,35.8z"/>
</g>
</svg>
