<?xml version="1.0" encoding="utf-8"?>
<!-- Generator: Adobe Illustrator 21.0.2, SVG Export Plug-In . SVG Version: 6.00 Build 0)  -->
<svg version="1.1" id="Слой_1" xmlns="http://www.w3.org/2000/svg" xmlns:xlink="http://www.w3.org/1999/xlink" x="0px" y="0px"
	 viewBox="0 0 322.3 336" style="enable-background:new 0 0 322.3 336;" xml:space="preserve">
<style type="text/css">
	.st0{fill:#D3D8DD;}
	.st1{fill:none;stroke:#D3D8DD;stroke-miterlimit:10;}
	.st2{fill:none;stroke:#D3D8DD;stroke-width:0.9975;stroke-miterlimit:10;}
	.st3{fill:#2059ED;}
	.st4{fill:url(#SVGID_1_);}
</style>
<g>
	<circle class="st0" cx="223" cy="8" r="2.5"/>
	<circle class="st0" cx="213" cy="8" r="2.5"/>
	<circle class="st0" cx="203" cy="8" r="2.5"/>
	<circle class="st1" cx="13" cy="18" r="2.5"/>
	<circle class="st1" cx="20" cy="18" r="1.5"/>
	<path class="st1" d="M235.5,218.5v115c0,1.1-0.9,2-2,2H2.5c-1.1,0-2-0.9-2-2V2.5c0-1.1,0.9-2,2-2h231c1.1,0,2,0.9,2,2v116"/>
	<rect x="26.5" y="15.5" class="st2" width="199" height="5"/>
	<g>
		<circle class="st3" cx="291.3" cy="250.3" r="5.7"/>
		
			<linearGradient id="SVGID_1_" gradientUnits="userSpaceOnUse" x1="-709.3947" y1="-252.3239" x2="-708.5947" y2="-252.3239" gradientTransform="matrix(50.6585 60.3725 60.3725 -50.6585 51280.2578 30189.4512)">
			<stop  offset="0" style="stop-color:#FFCC33"/>
			<stop  offset="0.2275" style="stop-color:#FFC238"/>
			<stop  offset="0.6137" style="stop-color:#FFA745"/>
			<stop  offset="1" style="stop-color:#FF8656"/>
		</linearGradient>
		<circle class="st4" cx="130.2" cy="168" r="31.5"/>
		<path class="st3" d="M181.7,173.7h90.2c1.9,0,3.7,0.4,5.4,1.1c2.5,1,4.6,2.8,6.1,5c1.5,2.2,2.4,4.8,2.4,7.7v39.9
			c0,3.1,2.5,5.7,5.7,5.7c3.1,0,5.7-2.5,5.7-5.7l0-39.9c0-3.5-0.7-6.8-2-9.8c-1.9-4.5-5.1-8.3-9.1-11.1c-4-2.7-8.9-4.3-14.1-4.3
			h-90.2c-3.1,0-5.7,2.5-5.7,5.7C176,171.2,178.5,173.7,181.7,173.7L181.7,173.7z"/>
		<path class="st3" d="M185.7,172l32.8-32.8c2.2-2.2,2.2-5.8,0-8c-2.2-2.2-5.8-2.2-8,0L177.6,164c-2.2,2.2-2.2,5.8,0,8
			C179.9,174.2,183.4,174.2,185.7,172"/>
		<path class="st3" d="M177.6,172l32.8,32.8c2.2,2.2,5.8,2.2,8,0c2.2-2.2,2.2-5.8,0-8L185.7,164c-2.2-2.2-5.8-2.2-8,0
			C175.4,166.2,175.4,169.8,177.6,172"/>
		<path class="st3" d="M291.3,289.6c-5.3,0-9.5,4.3-9.5,9.5c0,5.3,4.3,9.5,9.5,9.5c5.3,0,9.5-4.3,9.5-9.5
			C300.8,293.9,296.6,289.6,291.3,289.6z M291.3,303.7c-2.5,0-4.5-2-4.5-4.5c0-2.5,2-4.5,4.5-4.5c2.5,0,4.5,2,4.5,4.5
			C295.8,301.6,293.8,303.7,291.3,303.7z"/>
		<path class="st3" d="M322.3,294.5l-0.2-1.1l-0.2-1.1c-0.1-0.8-1.1-1.2-1.9-1.3l-4.3-0.4c-1.1-3.3-2.8-6.2-5-8.7l1.8-3.9
			c0.3-0.8,0.4-1.8-0.2-2.3l-0.8-0.7l-0.8-0.7c-0.6-0.5-1.6-0.2-2.3,0.2l-3.5,2.4c-2.8-1.7-6.1-2.9-9.5-3.4l-1.2-4.1
			c-0.3-0.8-0.8-1.7-1.7-1.7h-2.2c-0.8,0-1.4,0.8-1.7,1.7l-1.2,4.1c-3.4,0.5-6.6,1.7-9.5,3.4l-3.5-2.4c-0.7-0.5-1.7-0.7-2.3-0.2
			l-0.8,0.7l-0.8,0.7c-0.6,0.5-0.5,1.5-0.2,2.3l1.8,3.9c-2.2,2.5-3.9,5.5-5,8.7l-4.3,0.4c-0.9,0.1-1.8,0.5-1.9,1.3l-0.4,2.2
			c-0.1,0.8,0.6,1.5,1.3,1.9l3.9,1.9c0,0.2,0,0.4,0,0.6c0,3.3,0.6,6.5,1.8,9.4l-3,3.1c-0.6,0.7-1,1.5-0.6,2.3l1.1,1.9
			c0.4,0.7,1.4,0.8,2.3,0.6l4.2-1.1c2.1,2.6,4.7,4.9,7.7,6.5l-0.3,4.3c0,0.9,0.2,1.8,1,2.1l1,0.4l1,0.4c0.8,0.3,1.6-0.3,2.1-1
			l2.5-3.5c1.6,0.3,3.3,0.5,5,0.5s3.4-0.2,5-0.5l2.5,3.5c0.5,0.7,1.3,1.3,2.1,1l1-0.4l1-0.4c0.8-0.3,1-1.2,1-2.1l-0.3-4.3
			c3-1.6,5.6-3.9,7.7-6.5l4.2,1.1c0.9,0.2,1.8,0.1,2.3-0.6l1.1-1.9c0.4-0.7,0-1.6-0.6-2.3l-3-3.1c1.1-2.9,1.8-6.1,1.8-9.4
			c0-0.2,0-0.4,0-0.6l3.9-1.9C321.7,296.1,322.5,295.4,322.3,294.5z M291.3,317.1c-9.9,0-18-8.1-18-18c0-10,8.1-18,18-18s18,8,18,18
			C309.3,309.1,301.2,317.1,291.3,317.1z"/>
	</g>
	<line class="st1" x1="224.9" y1="118.5" x2="246.1" y2="118.5"/>
	<line class="st1" x1="224.9" y1="218.5" x2="246.1" y2="218.5"/>
</g>
</svg>
