<?xml version="1.0" encoding="utf-8"?>
<!-- Generator: Adobe Illustrator 21.0.2, SVG Export Plug-In . SVG Version: 6.00 Build 0)  -->
<svg version="1.1" id="Слой_1" xmlns="http://www.w3.org/2000/svg" xmlns:xlink="http://www.w3.org/1999/xlink" x="0px" y="0px"
	 viewBox="0 0 235.5 335.5" style="enable-background:new 0 0 235.5 335.5;" xml:space="preserve">
<style type="text/css">
	.st0{fill:none;stroke:#2059ED;stroke-width:0.5;stroke-miterlimit:10;}
	.st1{fill:#2059ED;}
</style>
<g>
	<path class="st0" d="M232.3,335.3H3.3c-1.7,0-3-1.3-3-3V3.3c0-1.7,1.3-3,3-3h229c1.7,0,3,1.3,3,3v329
		C235.3,333.9,233.9,335.3,232.3,335.3z"/>
	<circle class="st0" cx="12.8" cy="17.8" r="2.5"/>
	<circle class="st0" cx="19.8" cy="17.8" r="1.5"/>
	<rect x="26.2" y="15.3" class="st0" width="199" height="5"/>
	<g>
		<rect x="195.3" y="38.8" class="st1" width="30" height="3"/>
		<circle class="st1" cx="20.3" cy="40.3" r="10"/>
		<rect x="155.3" y="38.8" class="st1" width="30" height="3"/>
		<rect x="115.3" y="38.8" class="st1" width="30" height="3"/>
		<rect x="75.3" y="38.8" class="st1" width="30" height="3"/>
		<rect x="10.3" y="180.3" class="st1" width="97.5" height="3"/>
		<rect x="10.3" y="188.3" class="st1" width="84.8" height="1"/>
		<rect x="10.3" y="194.3" class="st1" width="97.5" height="1"/>
		<rect x="10.3" y="200.3" class="st1" width="90.6" height="1"/>
		<rect x="10.3" y="206.3" class="st1" width="93.7" height="1"/>
		<rect x="10.3" y="212.3" class="st1" width="84.2" height="1"/>
		<rect x="10.3" y="218.3" class="st1" width="91" height="1"/>
		<rect x="10.3" y="224.3" class="st1" width="96" height="1"/>
		<rect x="10.3" y="235.3" class="st1" width="206.5" height="3"/>
		<rect x="10.3" y="243.3" class="st1" width="65.3" height="3"/>
		<polyline class="st1" points="225.3,60 10.2,60 10.2,60.5 225.3,60.5 225.3,60 		"/>
		<polygon class="st1" points="225.3,170.3 225.3,169.8 10.7,169.8 10.7,70.7 224.7,70.7 224.8,170.3 225.3,170.3 225.3,169.8 
			225.3,170.3 225.7,170.3 225.7,69.8 9.8,69.8 9.8,170.7 225.7,170.7 225.7,170.3 		"/>
		<polygon class="st1" points="225.3,325.3 225.3,324.8 10.7,324.8 10.7,256.7 224.7,256.7 224.8,325.3 225.3,325.3 225.3,324.8 
			225.3,325.3 225.7,325.3 225.7,255.8 9.8,255.8 9.8,325.7 225.7,325.7 225.7,325.3 		"/>
		<rect x="127.8" y="180.3" class="st1" width="97.5" height="3"/>
		<rect x="127.8" y="188.3" class="st1" width="84.8" height="1"/>
		<rect x="127.8" y="194.3" class="st1" width="97.5" height="1"/>
		<rect x="127.8" y="200.3" class="st1" width="90.6" height="1"/>
		<rect x="127.8" y="206.3" class="st1" width="93.7" height="1"/>
	</g>
</g>
</svg>
