<?xml version="1.0" encoding="utf-8"?>
<!-- Generator: Adobe Illustrator 21.0.2, SVG Export Plug-In . SVG Version: 6.00 Build 0)  -->
<svg version="1.1" id="Слой_1" xmlns="http://www.w3.org/2000/svg" xmlns:xlink="http://www.w3.org/1999/xlink" x="0px" y="0px"
	 viewBox="0 0 235.5 335.5" style="enable-background:new 0 0 235.5 335.5;" xml:space="preserve">
<style type="text/css">
	.st0{fill:none;stroke:#2059ED;stroke-width:0.5;stroke-miterlimit:10;}
	.st1{fill:#2059ED;}
	.st2{fill:none;stroke:#2059ED;stroke-width:0.9975;stroke-miterlimit:10;}
	.st3{fill:none;stroke:#2059ED;stroke-miterlimit:10;}
	.st4{fill:none;stroke:#2059ED;stroke-width:1.0361;stroke-miterlimit:10;}
	.st5{fill:none;stroke:#2059ED;stroke-width:0.9459;stroke-miterlimit:10;}
	.st6{fill:none;stroke:#2059ED;stroke-width:1.0872;stroke-miterlimit:10;}
	.st7{fill:none;stroke:#2059ED;stroke-width:1.0618;stroke-miterlimit:10;}
</style>
<g>
	<path class="st0" d="M232.3,335.3H3.3c-1.7,0-3-1.3-3-3V3.3c0-1.7,1.3-3,3-3h229c1.7,0,3,1.3,3,3v329
		C235.3,333.9,233.9,335.3,232.3,335.3z"/>
	<circle class="st0" cx="222.8" cy="7.8" r="2.5"/>
	<circle class="st0" cx="212.8" cy="7.8" r="2.5"/>
	<circle class="st0" cx="202.8" cy="7.8" r="2.5"/>
	<circle class="st0" cx="12.8" cy="17.8" r="2.5"/>
	<circle class="st0" cx="19.8" cy="17.8" r="1.5"/>
	<rect x="26.2" y="15.3" class="st0" width="199" height="5"/>
	<circle class="st1" cx="20.3" cy="40.3" r="10"/>
	<g>
		<rect x="90.3" y="60.3" class="st1" width="30" height="3"/>
		<rect x="50.3" y="60.3" class="st1" width="30" height="3"/>
		<rect x="10.3" y="60.3" class="st1" width="30" height="3"/>
	</g>
	<g>
		<rect x="127.8" y="238.5" class="st1" width="84.8" height="1"/>
		<rect x="127.8" y="244.5" class="st1" width="97.5" height="1"/>
		<rect x="127.8" y="250.5" class="st1" width="90.6" height="1"/>
		<rect x="127.8" y="256.5" class="st1" width="93.7" height="1"/>
		<rect x="127.8" y="262.5" class="st1" width="84.2" height="1"/>
		<rect x="127.8" y="268.5" class="st1" width="91" height="1"/>
		<rect x="127.8" y="274.5" class="st1" width="96" height="1"/>
	</g>
	<rect x="10.3" y="177.8" class="st1" width="178.8" height="3"/>
	<rect x="10.3" y="185.8" class="st1" width="65.3" height="3"/>
	<rect x="10.3" y="73.3" class="st2" width="215" height="99.5"/>
	<rect x="127.8" y="198.8" class="st3" width="97.5" height="29.7"/>
	<g>
		<rect x="62.8" y="235.2" class="st4" width="10" height="90"/>
		<rect x="80.3" y="250.2" class="st5" width="10" height="75"/>
		<rect x="45.3" y="215.9" class="st6" width="10" height="109.3"/>
		<rect x="27.8" y="268.5" class="st7" width="10" height="56.8"/>
		<rect x="10.3" y="303.1" class="st3" width="10" height="22.2"/>
		<rect x="97.8" y="286.9" class="st3" width="10" height="38.4"/>
	</g>
</g>
</svg>
