<?xml version="1.0" encoding="utf-8"?>
<!-- Generator: Adobe Illustrator 21.0.2, SVG Export Plug-In . SVG Version: 6.00 Build 0)  -->
<svg version="1.1" id="Слой_1" xmlns="http://www.w3.org/2000/svg" xmlns:xlink="http://www.w3.org/1999/xlink" x="0px" y="0px"
	 viewBox="0 0 235.5 335.5" style="enable-background:new 0 0 235.5 335.5;" xml:space="preserve">
<style type="text/css">
	.st0{fill:none;stroke:#2059ED;stroke-width:0.5;stroke-miterlimit:10;}
	.st1{fill:#2059ED;}
	.st2{fill:none;stroke:#2059ED;stroke-width:1.0247;stroke-miterlimit:10;}
	.st3{fill:none;stroke:#2059ED;stroke-width:0.5947;stroke-miterlimit:10;}
	.st4{fill:none;stroke:#2059ED;stroke-miterlimit:10;}
</style>
<g>
	<path class="st0" d="M232.3,335.3H3.3c-1.7,0-3-1.3-3-3V3.3c0-1.7,1.3-3,3-3h229c1.7,0,3,1.3,3,3v329
		C235.3,333.9,233.9,335.3,232.3,335.3z"/>
	<circle class="st0" cx="222.8" cy="7.8" r="2.5"/>
	<circle class="st0" cx="212.8" cy="7.8" r="2.5"/>
	<circle class="st0" cx="202.8" cy="7.8" r="2.5"/>
	<circle class="st0" cx="12.8" cy="17.8" r="2.5"/>
	<circle class="st0" cx="19.8" cy="17.8" r="1.5"/>
	<rect x="26.2" y="15.3" class="st0" width="199" height="5"/>
	<circle class="st1" cx="20.3" cy="40.3" r="10"/>
	<rect x="195.3" y="38.8" class="st1" width="30" height="3"/>
	<rect x="155.3" y="38.8" class="st1" width="30" height="3"/>
	<rect x="10.3" y="216.3" class="st1" width="70.4" height="3"/>
	<rect x="10.3" y="224.3" class="st1" width="97.5" height="3"/>
	<rect x="127.8" y="216.3" class="st1" width="97.5" height="3"/>
	<rect x="127.8" y="224.3" class="st1" width="72.6" height="3"/>
	<rect x="10.3" y="70.3" class="st1" width="178.8" height="3"/>
	<rect x="10.3" y="78.3" class="st1" width="65.3" height="3"/>
	<line class="st0" x1="10.3" y1="60.3" x2="225.3" y2="60.3"/>
	<rect x="10.3" y="86.3" class="st2" width="215" height="105"/>
	<rect x="10.3" y="232.3" class="st3" width="97.5" height="78"/>
	<rect x="127.8" y="232.3" class="st3" width="97.5" height="78"/>
	<path class="st4" d="M35.3,206.3h-20c-2.7,0-5-2.3-5-5l0,0c0-2.8,2.2-5,5-5h20c2.8,0,5,2.3,5,5l0,0C40.3,204,38,206.3,35.3,206.3z"
		/>
	<path class="st4" d="M35.3,325.3h-20c-2.7,0-5-2.3-5-5l0,0c0-2.8,2.2-5,5-5h20c2.8,0,5,2.3,5,5l0,0C40.3,323,38,325.3,35.3,325.3z"
		/>
	<path class="st4" d="M152.8,325.3h-20c-2.8,0-5-2.3-5-5l0,0c0-2.8,2.3-5,5-5h20c2.8,0,5,2.3,5,5l0,0
		C157.8,323,155.5,325.3,152.8,325.3z"/>
</g>
</svg>
